solid MYSOLID created by IVCON, original data in proe2/base_block_prt.stl
  facet normal 0.000000 -1.000000 0.000000
    outer loop
      vertex 1.125000 0.000000 -0.274516
      vertex 1.500000 0.000000 0.000000
      vertex -1.500000 0.000000 0.000000
    endloop
  endfacet
  facet normal 0.000000 0.000000 1.000000
    outer loop
      vertex 1.500000 6.700000 0.000000
      vertex -1.500000 0.000000 0.000000
      vertex 1.500000 0.000000 0.000000
    endloop
  endfacet
  facet normal 0.000000 -1.000000 0.000000
    outer loop
      vertex -1.225500 0.000000 -1.125000
      vertex -1.500000 0.000000 0.000000
      vertex -1.500000 0.000000 -1.500000
    endloop
  endfacet
  facet normal -1.000000 0.000000 0.000000
    outer loop
      vertex -1.500000 6.700000 0.000000
      vertex -1.500000 0.000000 -1.500000
      vertex -1.500000 0.000000 0.000000
    endloop
  endfacet
  facet normal 0.000000 -1.000000 0.000000
    outer loop
      vertex 1.053968 0.000000 -0.303916
      vertex -1.500000 0.000000 0.000000
      vertex 1.024500 0.000000 -0.375000
    endloop
  endfacet
  facet normal 0.000000 -1.000000 0.000000
    outer loop
      vertex 1.024500 0.000000 -1.125000
      vertex 1.024500 0.000000 -0.375000
      vertex -1.500000 0.000000 0.000000
    endloop
  endfacet
  facet normal 0.000000 -1.000000 0.000000
    outer loop
      vertex 1.053968 0.000000 -0.303916
      vertex 1.125000 0.000000 -0.274516
      vertex -1.500000 0.000000 0.000000
    endloop
  endfacet
  facet normal 0.000000 -1.000000 0.000000
    outer loop
      vertex -1.196032 0.000000 -0.303916
      vertex -1.500000 0.000000 0.000000
      vertex -1.225500 0.000000 -0.375000
    endloop
  endfacet
  facet normal 0.000000 -1.000000 0.000000
    outer loop
      vertex -1.225500 0.000000 -1.125000
      vertex -1.225500 0.000000 -0.375000
      vertex -1.500000 0.000000 0.000000
    endloop
  endfacet
  facet normal 0.000000 -1.000000 0.000000
    outer loop
      vertex -1.125000 0.000000 -0.274516
      vertex -1.053968 0.000000 -0.303916
      vertex -1.500000 0.000000 0.000000
    endloop
  endfacet
  facet normal 0.000000 -1.000000 0.000000
    outer loop
      vertex 1.024500 0.000000 -1.125000
      vertex -1.500000 0.000000 0.000000
      vertex -1.053968 0.000000 -0.303916
    endloop
  endfacet
  facet normal 0.000000 -1.000000 0.000000
    outer loop
      vertex -1.196032 0.000000 -0.303916
      vertex -1.125000 0.000000 -0.274516
      vertex -1.500000 0.000000 0.000000
    endloop
  endfacet
  facet normal 0.000000 0.000000 1.000000
    outer loop
      vertex 1.500000 6.700000 0.000000
      vertex -1.500000 6.700000 0.000000
      vertex -1.500000 0.000000 0.000000
    endloop
  endfacet
  facet normal 0.000000 -1.000000 0.000000
    outer loop
      vertex 1.225500 0.000000 -0.375000
      vertex 1.500000 0.000000 -1.500000
      vertex 1.500000 0.000000 0.000000
    endloop
  endfacet
  facet normal 1.000000 0.000000 0.000000
    outer loop
      vertex 1.500000 6.700000 -1.500000
      vertex 1.500000 0.000000 0.000000
      vertex 1.500000 0.000000 -1.500000
    endloop
  endfacet
  facet normal 0.000000 -1.000000 0.000000
    outer loop
      vertex 1.196032 0.000000 -0.303916
      vertex 1.225500 0.000000 -0.375000
      vertex 1.500000 0.000000 0.000000
    endloop
  endfacet
  facet normal 0.000000 -1.000000 0.000000
    outer loop
      vertex 1.125000 0.000000 -0.274516
      vertex 1.196032 0.000000 -0.303916
      vertex 1.500000 0.000000 0.000000
    endloop
  endfacet
  facet normal 1.000000 0.000000 0.000000
    outer loop
      vertex 1.500000 6.700000 0.000000
      vertex 1.500000 0.000000 0.000000
      vertex 1.500000 6.700000 -1.500000
    endloop
  endfacet
  facet normal 0.000000 -1.000000 0.000000
    outer loop
      vertex -1.125000 0.000000 -1.225484
      vertex -1.500000 0.000000 -1.500000
      vertex 1.500000 0.000000 -1.500000
    endloop
  endfacet
  facet normal 0.000000 0.000000 -1.000000
    outer loop
      vertex -1.500000 6.700000 -1.500000
      vertex 1.500000 0.000000 -1.500000
      vertex -1.500000 0.000000 -1.500000
    endloop
  endfacet
  facet normal 0.000000 -1.000000 0.000000
    outer loop
      vertex 1.225500 0.000000 -1.125000
      vertex 1.500000 0.000000 -1.500000
      vertex 1.225500 0.000000 -0.375000
    endloop
  endfacet
  facet normal 0.000000 -1.000000 0.000000
    outer loop
      vertex -1.024500 0.000000 -1.125000
      vertex 1.500000 0.000000 -1.500000
      vertex -1.024500 0.000000 -0.375000
    endloop
  endfacet
  facet normal 0.000000 -1.000000 0.000000
    outer loop
      vertex 1.053968 0.000000 -1.196084
      vertex -1.024500 0.000000 -0.375000
      vertex 1.500000 0.000000 -1.500000
    endloop
  endfacet
  facet normal 0.000000 -1.000000 0.000000
    outer loop
      vertex -1.053968 0.000000 -1.196084
      vertex -1.125000 0.000000 -1.225484
      vertex 1.500000 0.000000 -1.500000
    endloop
  endfacet
  facet normal 0.000000 -1.000000 0.000000
    outer loop
      vertex -1.024500 0.000000 -1.125000
      vertex -1.053968 0.000000 -1.196084
      vertex 1.500000 0.000000 -1.500000
    endloop
  endfacet
  facet normal 0.000000 -1.000000 0.000000
    outer loop
      vertex 1.125000 0.000000 -1.225484
      vertex 1.053968 0.000000 -1.196084
      vertex 1.500000 0.000000 -1.500000
    endloop
  endfacet
  facet normal 0.000000 -1.000000 0.000000
    outer loop
      vertex 1.196032 0.000000 -1.196084
      vertex 1.125000 0.000000 -1.225484
      vertex 1.500000 0.000000 -1.500000
    endloop
  endfacet
  facet normal 0.000000 -1.000000 0.000000
    outer loop
      vertex 1.225500 0.000000 -1.125000
      vertex 1.196032 0.000000 -1.196084
      vertex 1.500000 0.000000 -1.500000
    endloop
  endfacet
  facet normal 0.000000 0.000000 -1.000000
    outer loop
      vertex 1.500000 6.700000 -1.500000
      vertex 1.500000 0.000000 -1.500000
      vertex -1.500000 6.700000 -1.500000
    endloop
  endfacet
  facet normal 0.000000 -1.000000 0.000000
    outer loop
      vertex -1.196032 0.000000 -1.196084
      vertex -1.225500 0.000000 -1.125000
      vertex -1.500000 0.000000 -1.500000
    endloop
  endfacet
  facet normal 0.000000 -1.000000 0.000000
    outer loop
      vertex -1.125000 0.000000 -1.225484
      vertex -1.196032 0.000000 -1.196084
      vertex -1.500000 0.000000 -1.500000
    endloop
  endfacet
  facet normal -1.000000 0.000000 0.000000
    outer loop
      vertex -1.500000 6.700000 -1.500000
      vertex -1.500000 0.000000 -1.500000
      vertex -1.500000 6.700000 0.000000
    endloop
  endfacet
  facet normal 0.000000 -1.000000 0.000000
    outer loop
      vertex 1.053968 0.000000 -1.053916
      vertex 1.053968 0.000000 -0.446084
      vertex 1.024500 0.000000 -0.375000
    endloop
  endfacet
  facet normal 0.923769 0.000000 0.382949
    outer loop
      vertex 1.024500 0.603000 -0.375000
      vertex 1.024500 0.000000 -0.375000
      vertex 1.053968 0.000000 -0.446084
    endloop
  endfacet
  facet normal 0.923769 0.000037 -0.382949
    outer loop
      vertex 1.053936 0.603000 -0.303936
      vertex 1.053968 0.000000 -0.303916
      vertex 1.024500 0.000000 -0.375000
    endloop
  endfacet
  facet normal 0.000000 -1.000000 0.000000
    outer loop
      vertex 1.053968 0.000000 -1.053916
      vertex 1.024500 0.000000 -0.375000
      vertex 1.024500 0.000000 -1.125000
    endloop
  endfacet
  facet normal 0.923880 0.000000 -0.382683
    outer loop
      vertex 1.053936 0.603000 -0.303936
      vertex 1.024500 0.000000 -0.375000
      vertex 1.024500 0.603000 -0.375000
    endloop
  endfacet
  facet normal 0.000000 -1.000000 0.000000
    outer loop
      vertex 1.125000 0.000000 -1.024516
      vertex 1.125000 0.000000 -0.475484
      vertex 1.053968 0.000000 -0.446084
    endloop
  endfacet
  facet normal 0.382439 -0.000010 0.923981
    outer loop
      vertex 1.053936 0.603000 -0.446064
      vertex 1.053968 0.000000 -0.446084
      vertex 1.125000 0.000000 -0.475484
    endloop
  endfacet
  facet normal 0.000000 -1.000000 0.000000
    outer loop
      vertex 1.053968 0.000000 -1.053916
      vertex 1.125000 0.000000 -1.024516
      vertex 1.053968 0.000000 -0.446084
    endloop
  endfacet
  facet normal 0.923880 0.000037 0.382683
    outer loop
      vertex 1.024500 0.603000 -0.375000
      vertex 1.053968 0.000000 -0.446084
      vertex 1.053936 0.603000 -0.446064
    endloop
  endfacet
  facet normal 0.000000 -1.000000 0.000000
    outer loop
      vertex 1.196032 0.000000 -1.053916
      vertex 1.196032 0.000000 -0.446084
      vertex 1.125000 0.000000 -0.475484
    endloop
  endfacet
  facet normal -0.382439 0.000024 0.923981
    outer loop
      vertex 1.125000 0.603000 -0.475500
      vertex 1.125000 0.000000 -0.475484
      vertex 1.196032 0.000000 -0.446084
    endloop
  endfacet
  facet normal 0.000000 -1.000000 0.000000
    outer loop
      vertex 1.125000 0.000000 -1.024516
      vertex 1.196032 0.000000 -1.053916
      vertex 1.125000 0.000000 -0.475484
    endloop
  endfacet
  facet normal 0.382683 0.000024 0.923880
    outer loop
      vertex 1.053936 0.603000 -0.446064
      vertex 1.125000 0.000000 -0.475484
      vertex 1.125000 0.603000 -0.475500
    endloop
  endfacet
  facet normal 0.000000 -1.000000 0.000000
    outer loop
      vertex 1.225500 0.000000 -1.125000
      vertex 1.225500 0.000000 -0.375000
      vertex 1.196032 0.000000 -0.446084
    endloop
  endfacet
  facet normal -0.923769 0.000037 0.382949
    outer loop
      vertex 1.196064 0.603000 -0.446064
      vertex 1.196032 0.000000 -0.446084
      vertex 1.225500 0.000000 -0.375000
    endloop
  endfacet
  facet normal 0.000000 -1.000000 0.000000
    outer loop
      vertex 1.196032 0.000000 -1.053916
      vertex 1.225500 0.000000 -1.125000
      vertex 1.196032 0.000000 -0.446084
    endloop
  endfacet
  facet normal -0.382683 -0.000010 0.923880
    outer loop
      vertex 1.125000 0.603000 -0.475500
      vertex 1.196032 0.000000 -0.446084
      vertex 1.196064 0.603000 -0.446064
    endloop
  endfacet
  facet normal -0.923769 0.000000 -0.382949
    outer loop
      vertex 1.225500 0.603000 -0.375000
      vertex 1.225500 0.000000 -0.375000
      vertex 1.196032 0.000000 -0.303916
    endloop
  endfacet
  facet normal -0.923880 0.000000 0.382683
    outer loop
      vertex 1.196064 0.603000 -0.446064
      vertex 1.225500 0.000000 -0.375000
      vertex 1.225500 0.603000 -0.375000
    endloop
  endfacet
  facet normal -0.382439 -0.000010 -0.923981
    outer loop
      vertex 1.196064 0.603000 -0.303936
      vertex 1.196032 0.000000 -0.303916
      vertex 1.125000 0.000000 -0.274516
    endloop
  endfacet
  facet normal -0.923880 0.000037 -0.382683
    outer loop
      vertex 1.196064 0.603000 -0.303936
      vertex 1.225500 0.603000 -0.375000
      vertex 1.196032 0.000000 -0.303916
    endloop
  endfacet
  facet normal 0.382439 0.000024 -0.923981
    outer loop
      vertex 1.125000 0.603000 -0.274500
      vertex 1.125000 0.000000 -0.274516
      vertex 1.053968 0.000000 -0.303916
    endloop
  endfacet
  facet normal -0.382683 0.000024 -0.923880
    outer loop
      vertex 1.196064 0.603000 -0.303936
      vertex 1.125000 0.000000 -0.274516
      vertex 1.125000 0.603000 -0.274500
    endloop
  endfacet
  facet normal 0.382683 -0.000010 -0.923880
    outer loop
      vertex 1.125000 0.603000 -0.274500
      vertex 1.053968 0.000000 -0.303916
      vertex 1.053936 0.603000 -0.303936
    endloop
  endfacet
  facet normal 0.000000 -1.000000 0.000000
    outer loop
      vertex -1.196032 0.000000 -1.053916
      vertex -1.196032 0.000000 -0.446084
      vertex -1.225500 0.000000 -0.375000
    endloop
  endfacet
  facet normal 0.923769 0.000000 0.382949
    outer loop
      vertex -1.225500 0.603000 -0.375000
      vertex -1.225500 0.000000 -0.375000
      vertex -1.196032 0.000000 -0.446084
    endloop
  endfacet
  facet normal 0.923769 0.000037 -0.382949
    outer loop
      vertex -1.196064 0.603000 -0.303936
      vertex -1.196032 0.000000 -0.303916
      vertex -1.225500 0.000000 -0.375000
    endloop
  endfacet
  facet normal 0.000000 -1.000000 0.000000
    outer loop
      vertex -1.196032 0.000000 -1.053916
      vertex -1.225500 0.000000 -0.375000
      vertex -1.225500 0.000000 -1.125000
    endloop
  endfacet
  facet normal 0.923880 0.000000 -0.382683
    outer loop
      vertex -1.196064 0.603000 -0.303936
      vertex -1.225500 0.000000 -0.375000
      vertex -1.225500 0.603000 -0.375000
    endloop
  endfacet
  facet normal 0.000000 -1.000000 0.000000
    outer loop
      vertex -1.125000 0.000000 -1.024516
      vertex -1.125000 0.000000 -0.475484
      vertex -1.196032 0.000000 -0.446084
    endloop
  endfacet
  facet normal 0.382439 -0.000010 0.923981
    outer loop
      vertex -1.196064 0.603000 -0.446064
      vertex -1.196032 0.000000 -0.446084
      vertex -1.125000 0.000000 -0.475484
    endloop
  endfacet
  facet normal 0.000000 -1.000000 0.000000
    outer loop
      vertex -1.196032 0.000000 -1.053916
      vertex -1.125000 0.000000 -1.024516
      vertex -1.196032 0.000000 -0.446084
    endloop
  endfacet
  facet normal 0.923880 0.000037 0.382683
    outer loop
      vertex -1.225500 0.603000 -0.375000
      vertex -1.196032 0.000000 -0.446084
      vertex -1.196064 0.603000 -0.446064
    endloop
  endfacet
  facet normal 0.000000 -1.000000 0.000000
    outer loop
      vertex -1.053968 0.000000 -1.053916
      vertex -1.053968 0.000000 -0.446084
      vertex -1.125000 0.000000 -0.475484
    endloop
  endfacet
  facet normal -0.382439 0.000024 0.923981
    outer loop
      vertex -1.125000 0.603000 -0.475500
      vertex -1.125000 0.000000 -0.475484
      vertex -1.053968 0.000000 -0.446084
    endloop
  endfacet
  facet normal 0.000000 -1.000000 0.000000
    outer loop
      vertex -1.125000 0.000000 -1.024516
      vertex -1.053968 0.000000 -1.053916
      vertex -1.125000 0.000000 -0.475484
    endloop
  endfacet
  facet normal 0.382683 0.000024 0.923880
    outer loop
      vertex -1.196064 0.603000 -0.446064
      vertex -1.125000 0.000000 -0.475484
      vertex -1.125000 0.603000 -0.475500
    endloop
  endfacet
  facet normal 0.000000 -1.000000 0.000000
    outer loop
      vertex -1.024500 0.000000 -1.125000
      vertex -1.024500 0.000000 -0.375000
      vertex -1.053968 0.000000 -0.446084
    endloop
  endfacet
  facet normal -0.923769 0.000037 0.382949
    outer loop
      vertex -1.053936 0.603000 -0.446064
      vertex -1.053968 0.000000 -0.446084
      vertex -1.024500 0.000000 -0.375000
    endloop
  endfacet
  facet normal 0.000000 -1.000000 0.000000
    outer loop
      vertex -1.053968 0.000000 -1.053916
      vertex -1.024500 0.000000 -1.125000
      vertex -1.053968 0.000000 -0.446084
    endloop
  endfacet
  facet normal -0.382683 -0.000010 0.923880
    outer loop
      vertex -1.125000 0.603000 -0.475500
      vertex -1.053968 0.000000 -0.446084
      vertex -1.053936 0.603000 -0.446064
    endloop
  endfacet
  facet normal 0.000000 -1.000000 0.000000
    outer loop
      vertex 1.024500 0.000000 -1.125000
      vertex -1.053968 0.000000 -0.303916
      vertex -1.024500 0.000000 -0.375000
    endloop
  endfacet
  facet normal -0.923769 0.000000 -0.382949
    outer loop
      vertex -1.024500 0.603000 -0.375000
      vertex -1.024500 0.000000 -0.375000
      vertex -1.053968 0.000000 -0.303916
    endloop
  endfacet
  facet normal 0.000000 -1.000000 0.000000
    outer loop
      vertex 1.053968 0.000000 -1.196084
      vertex 1.024500 0.000000 -1.125000
      vertex -1.024500 0.000000 -0.375000
    endloop
  endfacet
  facet normal -0.923880 0.000000 0.382683
    outer loop
      vertex -1.053936 0.603000 -0.446064
      vertex -1.024500 0.000000 -0.375000
      vertex -1.024500 0.603000 -0.375000
    endloop
  endfacet
  facet normal -0.382439 -0.000010 -0.923981
    outer loop
      vertex -1.053936 0.603000 -0.303936
      vertex -1.053968 0.000000 -0.303916
      vertex -1.125000 0.000000 -0.274516
    endloop
  endfacet
  facet normal -0.923880 0.000037 -0.382683
    outer loop
      vertex -1.053936 0.603000 -0.303936
      vertex -1.024500 0.603000 -0.375000
      vertex -1.053968 0.000000 -0.303916
    endloop
  endfacet
  facet normal 0.382439 0.000024 -0.923981
    outer loop
      vertex -1.125000 0.603000 -0.274500
      vertex -1.125000 0.000000 -0.274516
      vertex -1.196032 0.000000 -0.303916
    endloop
  endfacet
  facet normal -0.382683 0.000024 -0.923880
    outer loop
      vertex -1.053936 0.603000 -0.303936
      vertex -1.125000 0.000000 -0.274516
      vertex -1.125000 0.603000 -0.274500
    endloop
  endfacet
  facet normal 0.382683 -0.000010 -0.923880
    outer loop
      vertex -1.125000 0.603000 -0.274500
      vertex -1.196032 0.000000 -0.303916
      vertex -1.196064 0.603000 -0.303936
    endloop
  endfacet
  facet normal 0.923769 0.000000 0.382949
    outer loop
      vertex -1.225500 0.603000 -1.125000
      vertex -1.225500 0.000000 -1.125000
      vertex -1.196032 0.000000 -1.196084
    endloop
  endfacet
  facet normal 0.923769 0.000037 -0.382949
    outer loop
      vertex -1.196064 0.603000 -1.053936
      vertex -1.196032 0.000000 -1.053916
      vertex -1.225500 0.000000 -1.125000
    endloop
  endfacet
  facet normal 0.923880 0.000000 -0.382683
    outer loop
      vertex -1.196064 0.603000 -1.053936
      vertex -1.225500 0.000000 -1.125000
      vertex -1.225500 0.603000 -1.125000
    endloop
  endfacet
  facet normal 0.382439 -0.000010 0.923981
    outer loop
      vertex -1.196064 0.603000 -1.196064
      vertex -1.196032 0.000000 -1.196084
      vertex -1.125000 0.000000 -1.225484
    endloop
  endfacet
  facet normal 0.923880 0.000037 0.382683
    outer loop
      vertex -1.225500 0.603000 -1.125000
      vertex -1.196032 0.000000 -1.196084
      vertex -1.196064 0.603000 -1.196064
    endloop
  endfacet
  facet normal -0.382439 0.000024 0.923981
    outer loop
      vertex -1.125000 0.603000 -1.225500
      vertex -1.125000 0.000000 -1.225484
      vertex -1.053968 0.000000 -1.196084
    endloop
  endfacet
  facet normal 0.382683 0.000024 0.923880
    outer loop
      vertex -1.196064 0.603000 -1.196064
      vertex -1.125000 0.000000 -1.225484
      vertex -1.125000 0.603000 -1.225500
    endloop
  endfacet
  facet normal -0.923769 0.000037 0.382949
    outer loop
      vertex -1.053936 0.603000 -1.196064
      vertex -1.053968 0.000000 -1.196084
      vertex -1.024500 0.000000 -1.125000
    endloop
  endfacet
  facet normal -0.382683 -0.000010 0.923880
    outer loop
      vertex -1.125000 0.603000 -1.225500
      vertex -1.053968 0.000000 -1.196084
      vertex -1.053936 0.603000 -1.196064
    endloop
  endfacet
  facet normal -0.923769 0.000000 -0.382949
    outer loop
      vertex -1.024500 0.603000 -1.125000
      vertex -1.024500 0.000000 -1.125000
      vertex -1.053968 0.000000 -1.053916
    endloop
  endfacet
  facet normal -0.923880 0.000000 0.382683
    outer loop
      vertex -1.053936 0.603000 -1.196064
      vertex -1.024500 0.000000 -1.125000
      vertex -1.024500 0.603000 -1.125000
    endloop
  endfacet
  facet normal -0.382439 -0.000010 -0.923981
    outer loop
      vertex -1.053936 0.603000 -1.053936
      vertex -1.053968 0.000000 -1.053916
      vertex -1.125000 0.000000 -1.024516
    endloop
  endfacet
  facet normal -0.923880 0.000037 -0.382683
    outer loop
      vertex -1.053936 0.603000 -1.053936
      vertex -1.024500 0.603000 -1.125000
      vertex -1.053968 0.000000 -1.053916
    endloop
  endfacet
  facet normal 0.382439 0.000024 -0.923981
    outer loop
      vertex -1.125000 0.603000 -1.024500
      vertex -1.125000 0.000000 -1.024516
      vertex -1.196032 0.000000 -1.053916
    endloop
  endfacet
  facet normal -0.382683 0.000024 -0.923880
    outer loop
      vertex -1.053936 0.603000 -1.053936
      vertex -1.125000 0.000000 -1.024516
      vertex -1.125000 0.603000 -1.024500
    endloop
  endfacet
  facet normal 0.382683 -0.000010 -0.923880
    outer loop
      vertex -1.125000 0.603000 -1.024500
      vertex -1.196032 0.000000 -1.053916
      vertex -1.196064 0.603000 -1.053936
    endloop
  endfacet
  facet normal 0.923769 0.000000 0.382949
    outer loop
      vertex 1.024500 0.603000 -1.125000
      vertex 1.024500 0.000000 -1.125000
      vertex 1.053968 0.000000 -1.196084
    endloop
  endfacet
  facet normal 0.923769 0.000037 -0.382949
    outer loop
      vertex 1.053936 0.603000 -1.053936
      vertex 1.053968 0.000000 -1.053916
      vertex 1.024500 0.000000 -1.125000
    endloop
  endfacet
  facet normal 0.923880 0.000000 -0.382683
    outer loop
      vertex 1.053936 0.603000 -1.053936
      vertex 1.024500 0.000000 -1.125000
      vertex 1.024500 0.603000 -1.125000
    endloop
  endfacet
  facet normal 0.382439 -0.000010 0.923981
    outer loop
      vertex 1.053936 0.603000 -1.196064
      vertex 1.053968 0.000000 -1.196084
      vertex 1.125000 0.000000 -1.225484
    endloop
  endfacet
  facet normal 0.923880 0.000037 0.382683
    outer loop
      vertex 1.024500 0.603000 -1.125000
      vertex 1.053968 0.000000 -1.196084
      vertex 1.053936 0.603000 -1.196064
    endloop
  endfacet
  facet normal -0.382439 0.000024 0.923981
    outer loop
      vertex 1.125000 0.603000 -1.225500
      vertex 1.125000 0.000000 -1.225484
      vertex 1.196032 0.000000 -1.196084
    endloop
  endfacet
  facet normal 0.382683 0.000024 0.923880
    outer loop
      vertex 1.053936 0.603000 -1.196064
      vertex 1.125000 0.000000 -1.225484
      vertex 1.125000 0.603000 -1.225500
    endloop
  endfacet
  facet normal -0.923769 0.000037 0.382949
    outer loop
      vertex 1.196064 0.603000 -1.196064
      vertex 1.196032 0.000000 -1.196084
      vertex 1.225500 0.000000 -1.125000
    endloop
  endfacet
  facet normal -0.382683 -0.000010 0.923880
    outer loop
      vertex 1.125000 0.603000 -1.225500
      vertex 1.196032 0.000000 -1.196084
      vertex 1.196064 0.603000 -1.196064
    endloop
  endfacet
  facet normal -0.923769 0.000000 -0.382949
    outer loop
      vertex 1.225500 0.603000 -1.125000
      vertex 1.225500 0.000000 -1.125000
      vertex 1.196032 0.000000 -1.053916
    endloop
  endfacet
  facet normal -0.923880 0.000000 0.382683
    outer loop
      vertex 1.196064 0.603000 -1.196064
      vertex 1.225500 0.000000 -1.125000
      vertex 1.225500 0.603000 -1.125000
    endloop
  endfacet
  facet normal -0.382439 -0.000010 -0.923981
    outer loop
      vertex 1.196064 0.603000 -1.053936
      vertex 1.196032 0.000000 -1.053916
      vertex 1.125000 0.000000 -1.024516
    endloop
  endfacet
  facet normal -0.923880 0.000037 -0.382683
    outer loop
      vertex 1.196064 0.603000 -1.053936
      vertex 1.225500 0.603000 -1.125000
      vertex 1.196032 0.000000 -1.053916
    endloop
  endfacet
  facet normal 0.382439 0.000024 -0.923981
    outer loop
      vertex 1.125000 0.603000 -1.024500
      vertex 1.125000 0.000000 -1.024516
      vertex 1.053968 0.000000 -1.053916
    endloop
  endfacet
  facet normal -0.382683 0.000024 -0.923880
    outer loop
      vertex 1.196064 0.603000 -1.053936
      vertex 1.125000 0.000000 -1.024516
      vertex 1.125000 0.603000 -1.024500
    endloop
  endfacet
  facet normal 0.382683 -0.000010 -0.923880
    outer loop
      vertex 1.125000 0.603000 -1.024500
      vertex 1.053968 0.000000 -1.053916
      vertex 1.053936 0.603000 -1.053936
    endloop
  endfacet
  facet normal 0.000000 1.000000 0.000000
    outer loop
      vertex -1.071032 6.700000 -0.928916
      vertex -1.500000 6.700000 -1.500000
      vertex -1.500000 6.700000 0.000000
    endloop
  endfacet
  facet normal 0.000000 1.000000 0.000000
    outer loop
      vertex 0.000000 6.700000 -0.274516
      vertex -1.500000 6.700000 0.000000
      vertex 1.500000 6.700000 0.000000
    endloop
  endfacet
  facet normal 0.000000 1.000000 0.000000
    outer loop
      vertex 0.000000 6.700000 -0.274516
      vertex -0.071032 6.700000 -0.303916
      vertex -1.500000 6.700000 0.000000
    endloop
  endfacet
  facet normal 0.000000 1.000000 0.000000
    outer loop
      vertex -1.071032 6.700000 -0.928916
      vertex -1.500000 6.700000 0.000000
      vertex -0.071032 6.700000 -0.303916
    endloop
  endfacet
  facet normal 0.000000 1.000000 0.000000
    outer loop
      vertex 1.000000 6.700000 -1.100484
      vertex 1.500000 6.700000 -1.500000
      vertex -1.500000 6.700000 -1.500000
    endloop
  endfacet
  facet normal 0.000000 1.000000 0.000000
    outer loop
      vertex 0.928968 6.700000 -1.071084
      vertex 1.000000 6.700000 -1.100484
      vertex -1.500000 6.700000 -1.500000
    endloop
  endfacet
  facet normal 0.000000 1.000000 0.000000
    outer loop
      vertex 0.899500 6.700000 -1.000000
      vertex 0.928968 6.700000 -1.071084
      vertex -1.500000 6.700000 -1.500000
    endloop
  endfacet
  facet normal 0.000000 1.000000 0.000000
    outer loop
      vertex 0.071032 6.700000 -0.446084
      vertex 0.899500 6.700000 -1.000000
      vertex -1.500000 6.700000 -1.500000
    endloop
  endfacet
  facet normal 0.000000 1.000000 0.000000
    outer loop
      vertex -0.000000 6.700000 -0.475484
      vertex 0.071032 6.700000 -0.446084
      vertex -1.500000 6.700000 -1.500000
    endloop
  endfacet
  facet normal 0.000000 1.000000 0.000000
    outer loop
      vertex -0.071032 6.700000 -0.446084
      vertex -0.000000 6.700000 -0.475484
      vertex -1.500000 6.700000 -1.500000
    endloop
  endfacet
  facet normal 0.000000 1.000000 0.000000
    outer loop
      vertex -0.928968 6.700000 -1.071084
      vertex -0.071032 6.700000 -0.446084
      vertex -1.500000 6.700000 -1.500000
    endloop
  endfacet
  facet normal 0.000000 1.000000 0.000000
    outer loop
      vertex -1.000000 6.700000 -1.100484
      vertex -0.928968 6.700000 -1.071084
      vertex -1.500000 6.700000 -1.500000
    endloop
  endfacet
  facet normal 0.000000 1.000000 0.000000
    outer loop
      vertex -1.071032 6.700000 -1.071084
      vertex -1.000000 6.700000 -1.100484
      vertex -1.500000 6.700000 -1.500000
    endloop
  endfacet
  facet normal 0.000000 1.000000 0.000000
    outer loop
      vertex -1.100500 6.700000 -1.000000
      vertex -1.071032 6.700000 -1.071084
      vertex -1.500000 6.700000 -1.500000
    endloop
  endfacet
  facet normal 0.000000 1.000000 0.000000
    outer loop
      vertex -1.071032 6.700000 -0.928916
      vertex -1.100500 6.700000 -1.000000
      vertex -1.500000 6.700000 -1.500000
    endloop
  endfacet
  facet normal 0.000000 1.000000 0.000000
    outer loop
      vertex 1.100500 6.700000 -1.000000
      vertex 1.500000 6.700000 0.000000
      vertex 1.500000 6.700000 -1.500000
    endloop
  endfacet
  facet normal 0.000000 1.000000 0.000000
    outer loop
      vertex 1.071032 6.700000 -1.071084
      vertex 1.100500 6.700000 -1.000000
      vertex 1.500000 6.700000 -1.500000
    endloop
  endfacet
  facet normal 0.000000 1.000000 0.000000
    outer loop
      vertex 1.000000 6.700000 -1.100484
      vertex 1.071032 6.700000 -1.071084
      vertex 1.500000 6.700000 -1.500000
    endloop
  endfacet
  facet normal 0.000000 1.000000 0.000000
    outer loop
      vertex 1.071032 6.700000 -0.928916
      vertex 1.500000 6.700000 0.000000
      vertex 1.100500 6.700000 -1.000000
    endloop
  endfacet
  facet normal 0.000000 1.000000 0.000000
    outer loop
      vertex 1.000000 6.700000 -0.899516
      vertex 0.928968 6.700000 -0.928916
      vertex 1.500000 6.700000 0.000000
    endloop
  endfacet
  facet normal 0.000000 1.000000 0.000000
    outer loop
      vertex 0.100500 6.700000 -0.375000
      vertex 1.500000 6.700000 0.000000
      vertex 0.928968 6.700000 -0.928916
    endloop
  endfacet
  facet normal 0.000000 1.000000 0.000000
    outer loop
      vertex 1.071032 6.700000 -0.928916
      vertex 1.000000 6.700000 -0.899516
      vertex 1.500000 6.700000 0.000000
    endloop
  endfacet
  facet normal 0.000000 1.000000 0.000000
    outer loop
      vertex 0.071032 6.700000 -0.303916
      vertex 1.500000 6.700000 0.000000
      vertex 0.100500 6.700000 -0.375000
    endloop
  endfacet
  facet normal 0.000000 1.000000 0.000000
    outer loop
      vertex 0.071032 6.700000 -0.303916
      vertex 0.000000 6.700000 -0.274516
      vertex 1.500000 6.700000 0.000000
    endloop
  endfacet
  facet normal -0.923769 -0.000000 0.382949
    outer loop
      vertex 1.100500 6.097000 -1.000000
      vertex 1.100500 6.700000 -1.000000
      vertex 1.071032 6.700000 -1.071084
    endloop
  endfacet
  facet normal -0.923769 -0.000037 -0.382949
    outer loop
      vertex 1.071064 6.097000 -0.928936
      vertex 1.071032 6.700000 -0.928916
      vertex 1.100500 6.700000 -1.000000
    endloop
  endfacet
  facet normal -0.923880 0.000000 -0.382683
    outer loop
      vertex 1.071064 6.097000 -0.928936
      vertex 1.100500 6.700000 -1.000000
      vertex 1.100500 6.097000 -1.000000
    endloop
  endfacet
  facet normal -0.382439 0.000010 0.923981
    outer loop
      vertex 1.071064 6.097000 -1.071064
      vertex 1.071032 6.700000 -1.071084
      vertex 1.000000 6.700000 -1.100484
    endloop
  endfacet
  facet normal -0.923880 -0.000037 0.382683
    outer loop
      vertex 1.100500 6.097000 -1.000000
      vertex 1.071032 6.700000 -1.071084
      vertex 1.071064 6.097000 -1.071064
    endloop
  endfacet
  facet normal 0.382439 -0.000024 0.923981
    outer loop
      vertex 1.000000 6.097000 -1.100500
      vertex 1.000000 6.700000 -1.100484
      vertex 0.928968 6.700000 -1.071084
    endloop
  endfacet
  facet normal -0.382683 -0.000024 0.923880
    outer loop
      vertex 1.071064 6.097000 -1.071064
      vertex 1.000000 6.700000 -1.100484
      vertex 1.000000 6.097000 -1.100500
    endloop
  endfacet
  facet normal 0.923769 -0.000037 0.382949
    outer loop
      vertex 0.928936 6.097000 -1.071064
      vertex 0.928968 6.700000 -1.071084
      vertex 0.899500 6.700000 -1.000000
    endloop
  endfacet
  facet normal 0.382683 0.000010 0.923880
    outer loop
      vertex 1.000000 6.097000 -1.100500
      vertex 0.928968 6.700000 -1.071084
      vertex 0.928936 6.097000 -1.071064
    endloop
  endfacet
  facet normal 0.000000 1.000000 0.000000
    outer loop
      vertex 0.100500 6.700000 -0.375000
      vertex 0.928968 6.700000 -0.928916
      vertex 0.899500 6.700000 -1.000000
    endloop
  endfacet
  facet normal 0.923769 0.000000 -0.382949
    outer loop
      vertex 0.899500 6.097000 -1.000000
      vertex 0.899500 6.700000 -1.000000
      vertex 0.928968 6.700000 -0.928916
    endloop
  endfacet
  facet normal 0.000000 1.000000 0.000000
    outer loop
      vertex 0.071032 6.700000 -0.446084
      vertex 0.100500 6.700000 -0.375000
      vertex 0.899500 6.700000 -1.000000
    endloop
  endfacet
  facet normal 0.923880 -0.000000 0.382683
    outer loop
      vertex 0.928936 6.097000 -1.071064
      vertex 0.899500 6.700000 -1.000000
      vertex 0.899500 6.097000 -1.000000
    endloop
  endfacet
  facet normal 0.382439 0.000010 -0.923981
    outer loop
      vertex 0.928936 6.097000 -0.928936
      vertex 0.928968 6.700000 -0.928916
      vertex 1.000000 6.700000 -0.899516
    endloop
  endfacet
  facet normal 0.923880 -0.000037 -0.382683
    outer loop
      vertex 0.928936 6.097000 -0.928936
      vertex 0.899500 6.097000 -1.000000
      vertex 0.928968 6.700000 -0.928916
    endloop
  endfacet
  facet normal -0.382439 -0.000024 -0.923981
    outer loop
      vertex 1.000000 6.097000 -0.899500
      vertex 1.000000 6.700000 -0.899516
      vertex 1.071032 6.700000 -0.928916
    endloop
  endfacet
  facet normal 0.382683 -0.000024 -0.923880
    outer loop
      vertex 0.928936 6.097000 -0.928936
      vertex 1.000000 6.700000 -0.899516
      vertex 1.000000 6.097000 -0.899500
    endloop
  endfacet
  facet normal -0.382683 0.000010 -0.923880
    outer loop
      vertex 1.000000 6.097000 -0.899500
      vertex 1.071032 6.700000 -0.928916
      vertex 1.071064 6.097000 -0.928936
    endloop
  endfacet
  facet normal -0.923769 0.000000 0.382949
    outer loop
      vertex 0.100500 6.097000 -0.375000
      vertex 0.100500 6.700000 -0.375000
      vertex 0.071032 6.700000 -0.446084
    endloop
  endfacet
  facet normal -0.923769 -0.000037 -0.382949
    outer loop
      vertex 0.071064 6.097000 -0.303936
      vertex 0.071032 6.700000 -0.303916
      vertex 0.100500 6.700000 -0.375000
    endloop
  endfacet
  facet normal -0.923880 0.000000 -0.382683
    outer loop
      vertex 0.071064 6.097000 -0.303936
      vertex 0.100500 6.700000 -0.375000
      vertex 0.100500 6.097000 -0.375000
    endloop
  endfacet
  facet normal -0.382439 0.000010 0.923981
    outer loop
      vertex 0.071064 6.097000 -0.446064
      vertex 0.071032 6.700000 -0.446084
      vertex -0.000000 6.700000 -0.475484
    endloop
  endfacet
  facet normal -0.923880 -0.000037 0.382683
    outer loop
      vertex 0.100500 6.097000 -0.375000
      vertex 0.071032 6.700000 -0.446084
      vertex 0.071064 6.097000 -0.446064
    endloop
  endfacet
  facet normal 0.382439 -0.000024 0.923981
    outer loop
      vertex -0.000000 6.097000 -0.475500
      vertex -0.000000 6.700000 -0.475484
      vertex -0.071032 6.700000 -0.446084
    endloop
  endfacet
  facet normal -0.382683 -0.000024 0.923880
    outer loop
      vertex 0.071064 6.097000 -0.446064
      vertex -0.000000 6.700000 -0.475484
      vertex -0.000000 6.097000 -0.475500
    endloop
  endfacet
  facet normal 0.000000 1.000000 0.000000
    outer loop
      vertex -0.928968 6.700000 -1.071084
      vertex -0.100500 6.700000 -0.375000
      vertex -0.071032 6.700000 -0.446084
    endloop
  endfacet
  facet normal 0.923769 -0.000037 0.382949
    outer loop
      vertex -0.071064 6.097000 -0.446064
      vertex -0.071032 6.700000 -0.446084
      vertex -0.100500 6.700000 -0.375000
    endloop
  endfacet
  facet normal 0.382683 0.000010 0.923880
    outer loop
      vertex -0.000000 6.097000 -0.475500
      vertex -0.071032 6.700000 -0.446084
      vertex -0.071064 6.097000 -0.446064
    endloop
  endfacet
  facet normal 0.000000 1.000000 0.000000
    outer loop
      vertex -0.899500 6.700000 -1.000000
      vertex -0.071032 6.700000 -0.303916
      vertex -0.100500 6.700000 -0.375000
    endloop
  endfacet
  facet normal 0.923769 0.000000 -0.382949
    outer loop
      vertex -0.100500 6.097000 -0.375000
      vertex -0.100500 6.700000 -0.375000
      vertex -0.071032 6.700000 -0.303916
    endloop
  endfacet
  facet normal 0.000000 1.000000 0.000000
    outer loop
      vertex -0.928968 6.700000 -1.071084
      vertex -0.899500 6.700000 -1.000000
      vertex -0.100500 6.700000 -0.375000
    endloop
  endfacet
  facet normal 0.923880 0.000000 0.382683
    outer loop
      vertex -0.071064 6.097000 -0.446064
      vertex -0.100500 6.700000 -0.375000
      vertex -0.100500 6.097000 -0.375000
    endloop
  endfacet
  facet normal 0.382439 0.000010 -0.923981
    outer loop
      vertex -0.071064 6.097000 -0.303936
      vertex -0.071032 6.700000 -0.303916
      vertex 0.000000 6.700000 -0.274516
    endloop
  endfacet
  facet normal 0.000000 1.000000 0.000000
    outer loop
      vertex -0.928968 6.700000 -0.928916
      vertex -0.071032 6.700000 -0.303916
      vertex -0.899500 6.700000 -1.000000
    endloop
  endfacet
  facet normal 0.000000 1.000000 0.000000
    outer loop
      vertex -1.000000 6.700000 -0.899516
      vertex -1.071032 6.700000 -0.928916
      vertex -0.071032 6.700000 -0.303916
    endloop
  endfacet
  facet normal 0.000000 1.000000 0.000000
    outer loop
      vertex -0.928968 6.700000 -0.928916
      vertex -1.000000 6.700000 -0.899516
      vertex -0.071032 6.700000 -0.303916
    endloop
  endfacet
  facet normal 0.923880 -0.000037 -0.382683
    outer loop
      vertex -0.071064 6.097000 -0.303936
      vertex -0.100500 6.097000 -0.375000
      vertex -0.071032 6.700000 -0.303916
    endloop
  endfacet
  facet normal -0.382439 -0.000024 -0.923981
    outer loop
      vertex -0.000000 6.097000 -0.274500
      vertex 0.000000 6.700000 -0.274516
      vertex 0.071032 6.700000 -0.303916
    endloop
  endfacet
  facet normal 0.382683 -0.000024 -0.923880
    outer loop
      vertex -0.071064 6.097000 -0.303936
      vertex 0.000000 6.700000 -0.274516
      vertex -0.000000 6.097000 -0.274500
    endloop
  endfacet
  facet normal -0.382683 0.000010 -0.923880
    outer loop
      vertex -0.000000 6.097000 -0.274500
      vertex 0.071032 6.700000 -0.303916
      vertex 0.071064 6.097000 -0.303936
    endloop
  endfacet
  facet normal -0.923769 -0.000000 0.382949
    outer loop
      vertex -0.899500 6.097000 -1.000000
      vertex -0.899500 6.700000 -1.000000
      vertex -0.928968 6.700000 -1.071084
    endloop
  endfacet
  facet normal -0.923769 -0.000037 -0.382949
    outer loop
      vertex -0.928936 6.097000 -0.928936
      vertex -0.928968 6.700000 -0.928916
      vertex -0.899500 6.700000 -1.000000
    endloop
  endfacet
  facet normal -0.923880 0.000000 -0.382683
    outer loop
      vertex -0.928936 6.097000 -0.928936
      vertex -0.899500 6.700000 -1.000000
      vertex -0.899500 6.097000 -1.000000
    endloop
  endfacet
  facet normal -0.382439 0.000010 0.923981
    outer loop
      vertex -0.928936 6.097000 -1.071064
      vertex -0.928968 6.700000 -1.071084
      vertex -1.000000 6.700000 -1.100484
    endloop
  endfacet
  facet normal -0.923880 -0.000037 0.382683
    outer loop
      vertex -0.899500 6.097000 -1.000000
      vertex -0.928968 6.700000 -1.071084
      vertex -0.928936 6.097000 -1.071064
    endloop
  endfacet
  facet normal 0.382439 -0.000024 0.923981
    outer loop
      vertex -1.000000 6.097000 -1.100500
      vertex -1.000000 6.700000 -1.100484
      vertex -1.071032 6.700000 -1.071084
    endloop
  endfacet
  facet normal -0.382683 -0.000024 0.923880
    outer loop
      vertex -0.928936 6.097000 -1.071064
      vertex -1.000000 6.700000 -1.100484
      vertex -1.000000 6.097000 -1.100500
    endloop
  endfacet
  facet normal 0.923769 -0.000037 0.382949
    outer loop
      vertex -1.071064 6.097000 -1.071064
      vertex -1.071032 6.700000 -1.071084
      vertex -1.100500 6.700000 -1.000000
    endloop
  endfacet
  facet normal 0.382683 0.000010 0.923880
    outer loop
      vertex -1.000000 6.097000 -1.100500
      vertex -1.071032 6.700000 -1.071084
      vertex -1.071064 6.097000 -1.071064
    endloop
  endfacet
  facet normal 0.923769 0.000000 -0.382949
    outer loop
      vertex -1.100500 6.097000 -1.000000
      vertex -1.100500 6.700000 -1.000000
      vertex -1.071032 6.700000 -0.928916
    endloop
  endfacet
  facet normal 0.923880 -0.000000 0.382683
    outer loop
      vertex -1.071064 6.097000 -1.071064
      vertex -1.100500 6.700000 -1.000000
      vertex -1.100500 6.097000 -1.000000
    endloop
  endfacet
  facet normal 0.382439 0.000010 -0.923981
    outer loop
      vertex -1.071064 6.097000 -0.928936
      vertex -1.071032 6.700000 -0.928916
      vertex -1.000000 6.700000 -0.899516
    endloop
  endfacet
  facet normal 0.923880 -0.000037 -0.382683
    outer loop
      vertex -1.071064 6.097000 -0.928936
      vertex -1.100500 6.097000 -1.000000
      vertex -1.071032 6.700000 -0.928916
    endloop
  endfacet
  facet normal -0.382439 -0.000024 -0.923981
    outer loop
      vertex -1.000000 6.097000 -0.899500
      vertex -1.000000 6.700000 -0.899516
      vertex -0.928968 6.700000 -0.928916
    endloop
  endfacet
  facet normal 0.382683 -0.000024 -0.923880
    outer loop
      vertex -1.071064 6.097000 -0.928936
      vertex -1.000000 6.700000 -0.899516
      vertex -1.000000 6.097000 -0.899500
    endloop
  endfacet
  facet normal -0.382683 0.000010 -0.923880
    outer loop
      vertex -1.000000 6.097000 -0.899500
      vertex -0.928968 6.700000 -0.928916
      vertex -0.928936 6.097000 -0.928936
    endloop
  endfacet
  facet normal 0.503703 0.838303 0.208641
    outer loop
      vertex 0.928936 6.097000 -1.071064
      vertex 0.899500 6.097000 -1.000000
      vertex 1.000000 6.036614 -1.000000
    endloop
  endfacet
  facet normal 0.503703 0.838303 -0.208641
    outer loop
      vertex 0.928936 6.097000 -0.928936
      vertex 1.000000 6.036614 -1.000000
      vertex 0.899500 6.097000 -1.000000
    endloop
  endfacet
  facet normal 0.208641 0.838303 0.503703
    outer loop
      vertex 1.000000 6.097000 -1.100500
      vertex 0.928936 6.097000 -1.071064
      vertex 1.000000 6.036614 -1.000000
    endloop
  endfacet
  facet normal -0.208641 0.838303 0.503703
    outer loop
      vertex 1.071064 6.097000 -1.071064
      vertex 1.000000 6.097000 -1.100500
      vertex 1.000000 6.036614 -1.000000
    endloop
  endfacet
  facet normal -0.503703 0.838303 0.208641
    outer loop
      vertex 1.100500 6.097000 -1.000000
      vertex 1.071064 6.097000 -1.071064
      vertex 1.000000 6.036614 -1.000000
    endloop
  endfacet
  facet normal -0.503703 0.838303 -0.208641
    outer loop
      vertex 1.071064 6.097000 -0.928936
      vertex 1.100500 6.097000 -1.000000
      vertex 1.000000 6.036614 -1.000000
    endloop
  endfacet
  facet normal -0.208641 0.838303 -0.503703
    outer loop
      vertex 1.000000 6.097000 -0.899500
      vertex 1.071064 6.097000 -0.928936
      vertex 1.000000 6.036614 -1.000000
    endloop
  endfacet
  facet normal 0.208641 0.838303 -0.503703
    outer loop
      vertex 0.928936 6.097000 -0.928936
      vertex 1.000000 6.097000 -0.899500
      vertex 1.000000 6.036614 -1.000000
    endloop
  endfacet
  facet normal 0.503703 0.838303 0.208641
    outer loop
      vertex -0.071064 6.097000 -0.446064
      vertex -0.100500 6.097000 -0.375000
      vertex -0.000000 6.036614 -0.375000
    endloop
  endfacet
  facet normal 0.503703 0.838303 -0.208641
    outer loop
      vertex -0.071064 6.097000 -0.303936
      vertex -0.000000 6.036614 -0.375000
      vertex -0.100500 6.097000 -0.375000
    endloop
  endfacet
  facet normal 0.208641 0.838303 0.503703
    outer loop
      vertex -0.000000 6.097000 -0.475500
      vertex -0.071064 6.097000 -0.446064
      vertex -0.000000 6.036614 -0.375000
    endloop
  endfacet
  facet normal -0.208641 0.838303 0.503703
    outer loop
      vertex 0.071064 6.097000 -0.446064
      vertex -0.000000 6.097000 -0.475500
      vertex -0.000000 6.036614 -0.375000
    endloop
  endfacet
  facet normal -0.503703 0.838303 0.208641
    outer loop
      vertex 0.100500 6.097000 -0.375000
      vertex 0.071064 6.097000 -0.446064
      vertex -0.000000 6.036614 -0.375000
    endloop
  endfacet
  facet normal -0.503703 0.838303 -0.208641
    outer loop
      vertex 0.071064 6.097000 -0.303936
      vertex 0.100500 6.097000 -0.375000
      vertex -0.000000 6.036614 -0.375000
    endloop
  endfacet
  facet normal -0.208641 0.838303 -0.503703
    outer loop
      vertex -0.000000 6.097000 -0.274500
      vertex 0.071064 6.097000 -0.303936
      vertex -0.000000 6.036614 -0.375000
    endloop
  endfacet
  facet normal 0.208641 0.838303 -0.503703
    outer loop
      vertex -0.071064 6.097000 -0.303936
      vertex -0.000000 6.097000 -0.274500
      vertex -0.000000 6.036614 -0.375000
    endloop
  endfacet
  facet normal 0.503703 0.838303 0.208641
    outer loop
      vertex -1.071064 6.097000 -1.071064
      vertex -1.100500 6.097000 -1.000000
      vertex -1.000000 6.036614 -1.000000
    endloop
  endfacet
  facet normal 0.503703 0.838303 -0.208641
    outer loop
      vertex -1.071064 6.097000 -0.928936
      vertex -1.000000 6.036614 -1.000000
      vertex -1.100500 6.097000 -1.000000
    endloop
  endfacet
  facet normal 0.208641 0.838303 0.503703
    outer loop
      vertex -1.000000 6.097000 -1.100500
      vertex -1.071064 6.097000 -1.071064
      vertex -1.000000 6.036614 -1.000000
    endloop
  endfacet
  facet normal -0.208641 0.838303 0.503703
    outer loop
      vertex -0.928936 6.097000 -1.071064
      vertex -1.000000 6.097000 -1.100500
      vertex -1.000000 6.036614 -1.000000
    endloop
  endfacet
  facet normal -0.503703 0.838303 0.208641
    outer loop
      vertex -0.899500 6.097000 -1.000000
      vertex -0.928936 6.097000 -1.071064
      vertex -1.000000 6.036614 -1.000000
    endloop
  endfacet
  facet normal -0.503703 0.838303 -0.208641
    outer loop
      vertex -0.928936 6.097000 -0.928936
      vertex -0.899500 6.097000 -1.000000
      vertex -1.000000 6.036614 -1.000000
    endloop
  endfacet
  facet normal -0.208641 0.838303 -0.503703
    outer loop
      vertex -1.000000 6.097000 -0.899500
      vertex -0.928936 6.097000 -0.928936
      vertex -1.000000 6.036614 -1.000000
    endloop
  endfacet
  facet normal 0.208641 0.838303 -0.503703
    outer loop
      vertex -1.071064 6.097000 -0.928936
      vertex -1.000000 6.097000 -0.899500
      vertex -1.000000 6.036614 -1.000000
    endloop
  endfacet
  facet normal -0.503703 -0.838303 0.208641
    outer loop
      vertex 1.196064 0.603000 -0.446064
      vertex 1.225500 0.603000 -0.375000
      vertex 1.125000 0.663387 -0.375000
    endloop
  endfacet
  facet normal -0.503703 -0.838303 -0.208641
    outer loop
      vertex 1.196064 0.603000 -0.303936
      vertex 1.125000 0.663387 -0.375000
      vertex 1.225500 0.603000 -0.375000
    endloop
  endfacet
  facet normal -0.208641 -0.838303 0.503703
    outer loop
      vertex 1.125000 0.603000 -0.475500
      vertex 1.196064 0.603000 -0.446064
      vertex 1.125000 0.663387 -0.375000
    endloop
  endfacet
  facet normal 0.208641 -0.838303 0.503703
    outer loop
      vertex 1.053936 0.603000 -0.446064
      vertex 1.125000 0.603000 -0.475500
      vertex 1.125000 0.663387 -0.375000
    endloop
  endfacet
  facet normal 0.503703 -0.838303 0.208641
    outer loop
      vertex 1.024500 0.603000 -0.375000
      vertex 1.053936 0.603000 -0.446064
      vertex 1.125000 0.663387 -0.375000
    endloop
  endfacet
  facet normal 0.503703 -0.838303 -0.208641
    outer loop
      vertex 1.053936 0.603000 -0.303936
      vertex 1.024500 0.603000 -0.375000
      vertex 1.125000 0.663387 -0.375000
    endloop
  endfacet
  facet normal 0.208641 -0.838303 -0.503703
    outer loop
      vertex 1.125000 0.603000 -0.274500
      vertex 1.053936 0.603000 -0.303936
      vertex 1.125000 0.663387 -0.375000
    endloop
  endfacet
  facet normal -0.208641 -0.838303 -0.503703
    outer loop
      vertex 1.196064 0.603000 -0.303936
      vertex 1.125000 0.603000 -0.274500
      vertex 1.125000 0.663387 -0.375000
    endloop
  endfacet
  facet normal -0.503703 -0.838303 0.208641
    outer loop
      vertex -1.053936 0.603000 -0.446064
      vertex -1.024500 0.603000 -0.375000
      vertex -1.125000 0.663387 -0.375000
    endloop
  endfacet
  facet normal -0.503703 -0.838303 -0.208641
    outer loop
      vertex -1.053936 0.603000 -0.303936
      vertex -1.125000 0.663387 -0.375000
      vertex -1.024500 0.603000 -0.375000
    endloop
  endfacet
  facet normal -0.208641 -0.838303 0.503703
    outer loop
      vertex -1.125000 0.603000 -0.475500
      vertex -1.053936 0.603000 -0.446064
      vertex -1.125000 0.663387 -0.375000
    endloop
  endfacet
  facet normal 0.208641 -0.838303 0.503703
    outer loop
      vertex -1.196064 0.603000 -0.446064
      vertex -1.125000 0.603000 -0.475500
      vertex -1.125000 0.663387 -0.375000
    endloop
  endfacet
  facet normal 0.503703 -0.838303 0.208641
    outer loop
      vertex -1.225500 0.603000 -0.375000
      vertex -1.196064 0.603000 -0.446064
      vertex -1.125000 0.663387 -0.375000
    endloop
  endfacet
  facet normal 0.503703 -0.838303 -0.208641
    outer loop
      vertex -1.196064 0.603000 -0.303936
      vertex -1.225500 0.603000 -0.375000
      vertex -1.125000 0.663387 -0.375000
    endloop
  endfacet
  facet normal 0.208641 -0.838303 -0.503703
    outer loop
      vertex -1.125000 0.603000 -0.274500
      vertex -1.196064 0.603000 -0.303936
      vertex -1.125000 0.663387 -0.375000
    endloop
  endfacet
  facet normal -0.208641 -0.838303 -0.503703
    outer loop
      vertex -1.053936 0.603000 -0.303936
      vertex -1.125000 0.603000 -0.274500
      vertex -1.125000 0.663387 -0.375000
    endloop
  endfacet
  facet normal -0.503703 -0.838303 0.208641
    outer loop
      vertex -1.053936 0.603000 -1.196064
      vertex -1.024500 0.603000 -1.125000
      vertex -1.125000 0.663387 -1.125000
    endloop
  endfacet
  facet normal -0.503703 -0.838303 -0.208641
    outer loop
      vertex -1.053936 0.603000 -1.053936
      vertex -1.125000 0.663387 -1.125000
      vertex -1.024500 0.603000 -1.125000
    endloop
  endfacet
  facet normal -0.208641 -0.838303 0.503703
    outer loop
      vertex -1.125000 0.603000 -1.225500
      vertex -1.053936 0.603000 -1.196064
      vertex -1.125000 0.663387 -1.125000
    endloop
  endfacet
  facet normal 0.208641 -0.838303 0.503703
    outer loop
      vertex -1.196064 0.603000 -1.196064
      vertex -1.125000 0.603000 -1.225500
      vertex -1.125000 0.663387 -1.125000
    endloop
  endfacet
  facet normal 0.503703 -0.838303 0.208641
    outer loop
      vertex -1.225500 0.603000 -1.125000
      vertex -1.196064 0.603000 -1.196064
      vertex -1.125000 0.663387 -1.125000
    endloop
  endfacet
  facet normal 0.503703 -0.838303 -0.208641
    outer loop
      vertex -1.196064 0.603000 -1.053936
      vertex -1.225500 0.603000 -1.125000
      vertex -1.125000 0.663387 -1.125000
    endloop
  endfacet
  facet normal 0.208641 -0.838303 -0.503703
    outer loop
      vertex -1.125000 0.603000 -1.024500
      vertex -1.196064 0.603000 -1.053936
      vertex -1.125000 0.663387 -1.125000
    endloop
  endfacet
  facet normal -0.208641 -0.838303 -0.503703
    outer loop
      vertex -1.053936 0.603000 -1.053936
      vertex -1.125000 0.603000 -1.024500
      vertex -1.125000 0.663387 -1.125000
    endloop
  endfacet
  facet normal -0.503703 -0.838303 0.208641
    outer loop
      vertex 1.196064 0.603000 -1.196064
      vertex 1.225500 0.603000 -1.125000
      vertex 1.125000 0.663387 -1.125000
    endloop
  endfacet
  facet normal -0.503703 -0.838303 -0.208641
    outer loop
      vertex 1.196064 0.603000 -1.053936
      vertex 1.125000 0.663387 -1.125000
      vertex 1.225500 0.603000 -1.125000
    endloop
  endfacet
  facet normal -0.208641 -0.838303 0.503703
    outer loop
      vertex 1.125000 0.603000 -1.225500
      vertex 1.196064 0.603000 -1.196064
      vertex 1.125000 0.663387 -1.125000
    endloop
  endfacet
  facet normal 0.208641 -0.838303 0.503703
    outer loop
      vertex 1.053936 0.603000 -1.196064
      vertex 1.125000 0.603000 -1.225500
      vertex 1.125000 0.663387 -1.125000
    endloop
  endfacet
  facet normal 0.503703 -0.838303 0.208641
    outer loop
      vertex 1.024500 0.603000 -1.125000
      vertex 1.053936 0.603000 -1.196064
      vertex 1.125000 0.663387 -1.125000
    endloop
  endfacet
  facet normal 0.503703 -0.838303 -0.208641
    outer loop
      vertex 1.053936 0.603000 -1.053936
      vertex 1.024500 0.603000 -1.125000
      vertex 1.125000 0.663387 -1.125000
    endloop
  endfacet
  facet normal 0.208641 -0.838303 -0.503703
    outer loop
      vertex 1.125000 0.603000 -1.024500
      vertex 1.053936 0.603000 -1.053936
      vertex 1.125000 0.663387 -1.125000
    endloop
  endfacet
  facet normal -0.208641 -0.838303 -0.503703
    outer loop
      vertex 1.196064 0.603000 -1.053936
      vertex 1.125000 0.603000 -1.024500
      vertex 1.125000 0.663387 -1.125000
    endloop
  endfacet
endsolid MYSOLID
