solid CONNECTOR_1
  facet normal 0.000000e+00 -1.000000e+00 0.000000e+00
    outer loop
      vertex 1.031027e+00 -2.500000e-01 -1.544142e-01
      vertex 1.500000e+00 -2.500000e-01 0.000000e+00
      vertex -1.500000e+00 -2.500000e-01 0.000000e+00
    endloop
  endfacet
  facet normal 0.000000e+00 0.000000e+00 1.000000e+00
    outer loop
      vertex -1.500000e+00 2.500000e-01 0.000000e+00
      vertex -1.500000e+00 -2.500000e-01 0.000000e+00
      vertex 1.500000e+00 -2.500000e-01 0.000000e+00
    endloop
  endfacet
  facet normal 0.000000e+00 -1.000000e+00 0.000000e+00
    outer loop
      vertex -1.100500e+00 -2.500000e-01 -2.250000e+00
      vertex -1.500000e+00 -2.500000e-01 0.000000e+00
      vertex -1.500000e+00 -2.500000e-01 -2.500000e+00
    endloop
  endfacet
  facet normal -1.000000e+00 0.000000e+00 0.000000e+00
    outer loop
      vertex -1.500000e+00 2.500000e-01 -2.500000e+00
      vertex -1.500000e+00 -2.500000e-01 -2.500000e+00
      vertex -1.500000e+00 -2.500000e-01 0.000000e+00
    endloop
  endfacet
  facet normal 0.000000e+00 -1.000000e+00 0.000000e+00
    outer loop
      vertex -1.100500e+00 -2.500000e-01 -2.500000e-01
      vertex -1.500000e+00 -2.500000e-01 0.000000e+00
      vertex -1.100500e+00 -2.500000e-01 -2.250000e+00
    endloop
  endfacet
  facet normal 0.000000e+00 -1.000000e+00 0.000000e+00
    outer loop
      vertex -1.031027e+00 -2.500000e-01 -1.544142e-01
      vertex -9.689727e-01 -2.500000e-01 -1.544142e-01
      vertex -1.500000e+00 -2.500000e-01 0.000000e+00
    endloop
  endfacet
  facet normal 0.000000e+00 -1.000000e+00 0.000000e+00
    outer loop
      vertex 8.995000e-01 -2.500000e-01 -2.500000e-01
      vertex -1.500000e+00 -2.500000e-01 0.000000e+00
      vertex -9.689727e-01 -2.500000e-01 -1.544142e-01
    endloop
  endfacet
  facet normal 0.000000e+00 -1.000000e+00 0.000000e+00
    outer loop
      vertex -1.081307e+00 -2.500000e-01 -1.909453e-01
      vertex -1.031027e+00 -2.500000e-01 -1.544142e-01
      vertex -1.500000e+00 -2.500000e-01 0.000000e+00
    endloop
  endfacet
  facet normal 0.000000e+00 -1.000000e+00 0.000000e+00
    outer loop
      vertex -1.100500e+00 -2.500000e-01 -2.500000e-01
      vertex -1.081307e+00 -2.500000e-01 -1.909453e-01
      vertex -1.500000e+00 -2.500000e-01 0.000000e+00
    endloop
  endfacet
  facet normal 0.000000e+00 -1.000000e+00 0.000000e+00
    outer loop
      vertex 9.689727e-01 -2.500000e-01 -1.544142e-01
      vertex 1.031027e+00 -2.500000e-01 -1.544142e-01
      vertex -1.500000e+00 -2.500000e-01 0.000000e+00
    endloop
  endfacet
  facet normal 0.000000e+00 -1.000000e+00 0.000000e+00
    outer loop
      vertex 9.186935e-01 -2.500000e-01 -1.909453e-01
      vertex 9.689727e-01 -2.500000e-01 -1.544142e-01
      vertex -1.500000e+00 -2.500000e-01 0.000000e+00
    endloop
  endfacet
  facet normal 0.000000e+00 -1.000000e+00 0.000000e+00
    outer loop
      vertex 8.995000e-01 -2.500000e-01 -2.500000e-01
      vertex 9.186935e-01 -2.500000e-01 -1.909453e-01
      vertex -1.500000e+00 -2.500000e-01 0.000000e+00
    endloop
  endfacet
  facet normal -1.000000e+00 0.000000e+00 0.000000e+00
    outer loop
      vertex -1.500000e+00 2.500000e-01 -2.500000e+00
      vertex -1.500000e+00 -2.500000e-01 0.000000e+00
      vertex -1.500000e+00 2.500000e-01 0.000000e+00
    endloop
  endfacet
  facet normal 0.000000e+00 -1.000000e+00 0.000000e+00
    outer loop
      vertex 1.100500e+00 -2.500000e-01 -2.500000e-01
      vertex 1.500000e+00 -2.500000e-01 -2.500000e+00
      vertex 1.500000e+00 -2.500000e-01 0.000000e+00
    endloop
  endfacet
  facet normal 1.000000e+00 0.000000e+00 0.000000e+00
    outer loop
      vertex 1.500000e+00 2.500000e-01 0.000000e+00
      vertex 1.500000e+00 -2.500000e-01 0.000000e+00
      vertex 1.500000e+00 -2.500000e-01 -2.500000e+00
    endloop
  endfacet
  facet normal 0.000000e+00 -1.000000e+00 0.000000e+00
    outer loop
      vertex 1.081307e+00 -2.500000e-01 -1.909453e-01
      vertex 1.100500e+00 -2.500000e-01 -2.500000e-01
      vertex 1.500000e+00 -2.500000e-01 0.000000e+00
    endloop
  endfacet
  facet normal 0.000000e+00 -1.000000e+00 0.000000e+00
    outer loop
      vertex 1.031027e+00 -2.500000e-01 -1.544142e-01
      vertex 1.081307e+00 -2.500000e-01 -1.909453e-01
      vertex 1.500000e+00 -2.500000e-01 0.000000e+00
    endloop
  endfacet
  facet normal 0.000000e+00 0.000000e+00 1.000000e+00
    outer loop
      vertex 1.500000e+00 2.500000e-01 0.000000e+00
      vertex -1.500000e+00 2.500000e-01 0.000000e+00
      vertex 1.500000e+00 -2.500000e-01 0.000000e+00
    endloop
  endfacet
  facet normal 0.000000e+00 -1.000000e+00 0.000000e+00
    outer loop
      vertex -1.031027e+00 -2.500000e-01 -2.345586e+00
      vertex -1.500000e+00 -2.500000e-01 -2.500000e+00
      vertex 1.500000e+00 -2.500000e-01 -2.500000e+00
    endloop
  endfacet
  facet normal 0.000000e+00 0.000000e+00 -1.000000e+00
    outer loop
      vertex 1.500000e+00 2.500000e-01 -2.500000e+00
      vertex 1.500000e+00 -2.500000e-01 -2.500000e+00
      vertex -1.500000e+00 -2.500000e-01 -2.500000e+00
    endloop
  endfacet
  facet normal 0.000000e+00 -1.000000e+00 0.000000e+00
    outer loop
      vertex -9.186935e-01 -2.500000e-01 -2.309055e+00
      vertex 1.500000e+00 -2.500000e-01 -2.500000e+00
      vertex -8.995000e-01 -2.500000e-01 -2.250000e+00
    endloop
  endfacet
  facet normal 0.000000e+00 -1.000000e+00 0.000000e+00
    outer loop
      vertex 9.689727e-01 -2.500000e-01 -2.345586e+00
      vertex -8.995000e-01 -2.500000e-01 -2.250000e+00
      vertex 1.500000e+00 -2.500000e-01 -2.500000e+00
    endloop
  endfacet
  facet normal 0.000000e+00 -1.000000e+00 0.000000e+00
    outer loop
      vertex -9.689727e-01 -2.500000e-01 -2.345586e+00
      vertex -1.031027e+00 -2.500000e-01 -2.345586e+00
      vertex 1.500000e+00 -2.500000e-01 -2.500000e+00
    endloop
  endfacet
  facet normal 0.000000e+00 -1.000000e+00 0.000000e+00
    outer loop
      vertex -9.186935e-01 -2.500000e-01 -2.309055e+00
      vertex -9.689727e-01 -2.500000e-01 -2.345586e+00
      vertex 1.500000e+00 -2.500000e-01 -2.500000e+00
    endloop
  endfacet
  facet normal 0.000000e+00 -1.000000e+00 0.000000e+00
    outer loop
      vertex 1.081307e+00 -2.500000e-01 -2.309055e+00
      vertex 1.500000e+00 -2.500000e-01 -2.500000e+00
      vertex 1.100500e+00 -2.500000e-01 -2.250000e+00
    endloop
  endfacet
  facet normal 0.000000e+00 -1.000000e+00 0.000000e+00
    outer loop
      vertex 1.100500e+00 -2.500000e-01 -2.500000e-01
      vertex 1.100500e+00 -2.500000e-01 -2.250000e+00
      vertex 1.500000e+00 -2.500000e-01 -2.500000e+00
    endloop
  endfacet
  facet normal 0.000000e+00 -1.000000e+00 0.000000e+00
    outer loop
      vertex 1.031027e+00 -2.500000e-01 -2.345586e+00
      vertex 9.689727e-01 -2.500000e-01 -2.345586e+00
      vertex 1.500000e+00 -2.500000e-01 -2.500000e+00
    endloop
  endfacet
  facet normal 0.000000e+00 -1.000000e+00 0.000000e+00
    outer loop
      vertex 1.081307e+00 -2.500000e-01 -2.309055e+00
      vertex 1.031027e+00 -2.500000e-01 -2.345586e+00
      vertex 1.500000e+00 -2.500000e-01 -2.500000e+00
    endloop
  endfacet
  facet normal 1.000000e+00 0.000000e+00 0.000000e+00
    outer loop
      vertex 1.500000e+00 2.500000e-01 0.000000e+00
      vertex 1.500000e+00 -2.500000e-01 -2.500000e+00
      vertex 1.500000e+00 2.500000e-01 -2.500000e+00
    endloop
  endfacet
  facet normal 0.000000e+00 -1.000000e+00 0.000000e+00
    outer loop
      vertex -1.081307e+00 -2.500000e-01 -2.309055e+00
      vertex -1.100500e+00 -2.500000e-01 -2.250000e+00
      vertex -1.500000e+00 -2.500000e-01 -2.500000e+00
    endloop
  endfacet
  facet normal 0.000000e+00 -1.000000e+00 0.000000e+00
    outer loop
      vertex -1.031027e+00 -2.500000e-01 -2.345586e+00
      vertex -1.081307e+00 -2.500000e-01 -2.309055e+00
      vertex -1.500000e+00 -2.500000e-01 -2.500000e+00
    endloop
  endfacet
  facet normal 0.000000e+00 0.000000e+00 -1.000000e+00
    outer loop
      vertex 1.500000e+00 2.500000e-01 -2.500000e+00
      vertex -1.500000e+00 -2.500000e-01 -2.500000e+00
      vertex -1.500000e+00 2.500000e-01 -2.500000e+00
    endloop
  endfacet
  facet normal 0.000000e+00 -1.000000e+00 0.000000e+00
    outer loop
      vertex -9.186935e-01 -2.500000e-01 -3.090547e-01
      vertex -9.186935e-01 -2.500000e-01 -2.190945e+00
      vertex -8.995000e-01 -2.500000e-01 -2.250000e+00
    endloop
  endfacet
  facet normal -9.510309e-01 0.000000e+00 -3.090960e-01
    outer loop
      vertex -8.995000e-01 2.500000e-01 -2.250000e+00
      vertex -8.995000e-01 -2.500000e-01 -2.250000e+00
      vertex -9.186935e-01 -2.500000e-01 -2.190945e+00
    endloop
  endfacet
  facet normal -9.510309e-01 0.000000e+00 3.090960e-01
    outer loop
      vertex -9.186935e-01 2.500000e-01 -2.309055e+00
      vertex -9.186935e-01 -2.500000e-01 -2.309055e+00
      vertex -8.995000e-01 -2.500000e-01 -2.250000e+00
    endloop
  endfacet
  facet normal 0.000000e+00 -1.000000e+00 0.000000e+00
    outer loop
      vertex -3.102729e-02 -2.500000e-01 -1.720586e+00
      vertex -8.130654e-02 -2.500000e-01 -1.684055e+00
      vertex -8.995000e-01 -2.500000e-01 -2.250000e+00
    endloop
  endfacet
  facet normal 0.000000e+00 -1.000000e+00 0.000000e+00
    outer loop
      vertex -8.995000e-01 -2.500000e-01 -2.500000e-01
      vertex -8.995000e-01 -2.500000e-01 -2.250000e+00
      vertex -8.130654e-02 -2.500000e-01 -1.684055e+00
    endloop
  endfacet
  facet normal 0.000000e+00 -1.000000e+00 0.000000e+00
    outer loop
      vertex 9.689727e-01 -2.500000e-01 -2.345586e+00
      vertex -3.102729e-02 -2.500000e-01 -1.720586e+00
      vertex -8.995000e-01 -2.500000e-01 -2.250000e+00
    endloop
  endfacet
  facet normal 0.000000e+00 -1.000000e+00 0.000000e+00
    outer loop
      vertex -9.186935e-01 -2.500000e-01 -3.090547e-01
      vertex -8.995000e-01 -2.500000e-01 -2.250000e+00
      vertex -8.995000e-01 -2.500000e-01 -2.500000e-01
    endloop
  endfacet
  facet normal -9.510309e-01 0.000000e+00 3.090960e-01
    outer loop
      vertex -9.186935e-01 2.500000e-01 -2.309055e+00
      vertex -8.995000e-01 -2.500000e-01 -2.250000e+00
      vertex -8.995000e-01 2.500000e-01 -2.250000e+00
    endloop
  endfacet
  facet normal 0.000000e+00 -1.000000e+00 0.000000e+00
    outer loop
      vertex -9.689727e-01 -2.500000e-01 -3.455858e-01
      vertex -9.689727e-01 -2.500000e-01 -2.154414e+00
      vertex -9.186935e-01 -2.500000e-01 -2.190945e+00
    endloop
  endfacet
  facet normal -5.877970e-01 0.000000e+00 -8.090084e-01
    outer loop
      vertex -9.186935e-01 2.500000e-01 -2.190945e+00
      vertex -9.186935e-01 -2.500000e-01 -2.190945e+00
      vertex -9.689727e-01 -2.500000e-01 -2.154414e+00
    endloop
  endfacet
  facet normal 0.000000e+00 -1.000000e+00 0.000000e+00
    outer loop
      vertex -9.186935e-01 -2.500000e-01 -3.090547e-01
      vertex -9.689727e-01 -2.500000e-01 -3.455858e-01
      vertex -9.186935e-01 -2.500000e-01 -2.190945e+00
    endloop
  endfacet
  facet normal -9.510309e-01 0.000000e+00 -3.090960e-01
    outer loop
      vertex -9.186935e-01 2.500000e-01 -2.190945e+00
      vertex -8.995000e-01 2.500000e-01 -2.250000e+00
      vertex -9.186935e-01 -2.500000e-01 -2.190945e+00
    endloop
  endfacet
  facet normal 0.000000e+00 -1.000000e+00 0.000000e+00
    outer loop
      vertex -1.031027e+00 -2.500000e-01 -3.455858e-01
      vertex -1.031027e+00 -2.500000e-01 -2.154414e+00
      vertex -9.689727e-01 -2.500000e-01 -2.154414e+00
    endloop
  endfacet
  facet normal 0.000000e+00 0.000000e+00 -1.000000e+00
    outer loop
      vertex -9.689727e-01 2.500000e-01 -2.154414e+00
      vertex -9.689727e-01 -2.500000e-01 -2.154414e+00
      vertex -1.031027e+00 -2.500000e-01 -2.154414e+00
    endloop
  endfacet
  facet normal 0.000000e+00 -1.000000e+00 0.000000e+00
    outer loop
      vertex -9.689727e-01 -2.500000e-01 -3.455858e-01
      vertex -1.031027e+00 -2.500000e-01 -3.455858e-01
      vertex -9.689727e-01 -2.500000e-01 -2.154414e+00
    endloop
  endfacet
  facet normal -5.877970e-01 0.000000e+00 -8.090084e-01
    outer loop
      vertex -9.186935e-01 2.500000e-01 -2.190945e+00
      vertex -9.689727e-01 -2.500000e-01 -2.154414e+00
      vertex -9.689727e-01 2.500000e-01 -2.154414e+00
    endloop
  endfacet
  facet normal 0.000000e+00 -1.000000e+00 0.000000e+00
    outer loop
      vertex -1.081307e+00 -2.500000e-01 -3.090547e-01
      vertex -1.081307e+00 -2.500000e-01 -2.190945e+00
      vertex -1.031027e+00 -2.500000e-01 -2.154414e+00
    endloop
  endfacet
  facet normal 5.877970e-01 0.000000e+00 -8.090084e-01
    outer loop
      vertex -1.031027e+00 2.500000e-01 -2.154414e+00
      vertex -1.031027e+00 -2.500000e-01 -2.154414e+00
      vertex -1.081307e+00 -2.500000e-01 -2.190945e+00
    endloop
  endfacet
  facet normal 0.000000e+00 -1.000000e+00 0.000000e+00
    outer loop
      vertex -1.031027e+00 -2.500000e-01 -3.455858e-01
      vertex -1.081307e+00 -2.500000e-01 -3.090547e-01
      vertex -1.031027e+00 -2.500000e-01 -2.154414e+00
    endloop
  endfacet
  facet normal 0.000000e+00 0.000000e+00 -1.000000e+00
    outer loop
      vertex -9.689727e-01 2.500000e-01 -2.154414e+00
      vertex -1.031027e+00 -2.500000e-01 -2.154414e+00
      vertex -1.031027e+00 2.500000e-01 -2.154414e+00
    endloop
  endfacet
  facet normal 0.000000e+00 -1.000000e+00 0.000000e+00
    outer loop
      vertex -1.100500e+00 -2.500000e-01 -2.500000e-01
      vertex -1.100500e+00 -2.500000e-01 -2.250000e+00
      vertex -1.081307e+00 -2.500000e-01 -2.190945e+00
    endloop
  endfacet
  facet normal 9.510309e-01 0.000000e+00 -3.090960e-01
    outer loop
      vertex -1.081307e+00 2.500000e-01 -2.190945e+00
      vertex -1.081307e+00 -2.500000e-01 -2.190945e+00
      vertex -1.100500e+00 -2.500000e-01 -2.250000e+00
    endloop
  endfacet
  facet normal 0.000000e+00 -1.000000e+00 0.000000e+00
    outer loop
      vertex -1.081307e+00 -2.500000e-01 -3.090547e-01
      vertex -1.100500e+00 -2.500000e-01 -2.500000e-01
      vertex -1.081307e+00 -2.500000e-01 -2.190945e+00
    endloop
  endfacet
  facet normal 5.877970e-01 0.000000e+00 -8.090084e-01
    outer loop
      vertex -1.031027e+00 2.500000e-01 -2.154414e+00
      vertex -1.081307e+00 -2.500000e-01 -2.190945e+00
      vertex -1.081307e+00 2.500000e-01 -2.190945e+00
    endloop
  endfacet
  facet normal 9.510309e-01 0.000000e+00 3.090960e-01
    outer loop
      vertex -1.100500e+00 2.500000e-01 -2.250000e+00
      vertex -1.100500e+00 -2.500000e-01 -2.250000e+00
      vertex -1.081307e+00 -2.500000e-01 -2.309055e+00
    endloop
  endfacet
  facet normal 9.510309e-01 0.000000e+00 -3.090960e-01
    outer loop
      vertex -1.081307e+00 2.500000e-01 -2.190945e+00
      vertex -1.100500e+00 -2.500000e-01 -2.250000e+00
      vertex -1.100500e+00 2.500000e-01 -2.250000e+00
    endloop
  endfacet
  facet normal 5.877970e-01 0.000000e+00 8.090084e-01
    outer loop
      vertex -1.081307e+00 2.500000e-01 -2.309055e+00
      vertex -1.081307e+00 -2.500000e-01 -2.309055e+00
      vertex -1.031027e+00 -2.500000e-01 -2.345586e+00
    endloop
  endfacet
  facet normal 9.510309e-01 0.000000e+00 3.090960e-01
    outer loop
      vertex -1.100500e+00 2.500000e-01 -2.250000e+00
      vertex -1.081307e+00 -2.500000e-01 -2.309055e+00
      vertex -1.081307e+00 2.500000e-01 -2.309055e+00
    endloop
  endfacet
  facet normal 0.000000e+00 0.000000e+00 1.000000e+00
    outer loop
      vertex -1.031027e+00 2.500000e-01 -2.345586e+00
      vertex -1.031027e+00 -2.500000e-01 -2.345586e+00
      vertex -9.689727e-01 -2.500000e-01 -2.345586e+00
    endloop
  endfacet
  facet normal 5.877970e-01 0.000000e+00 8.090084e-01
    outer loop
      vertex -1.081307e+00 2.500000e-01 -2.309055e+00
      vertex -1.031027e+00 -2.500000e-01 -2.345586e+00
      vertex -1.031027e+00 2.500000e-01 -2.345586e+00
    endloop
  endfacet
  facet normal -5.877970e-01 0.000000e+00 8.090084e-01
    outer loop
      vertex -9.689727e-01 2.500000e-01 -2.345586e+00
      vertex -9.689727e-01 -2.500000e-01 -2.345586e+00
      vertex -9.186935e-01 -2.500000e-01 -2.309055e+00
    endloop
  endfacet
  facet normal 0.000000e+00 0.000000e+00 1.000000e+00
    outer loop
      vertex -1.031027e+00 2.500000e-01 -2.345586e+00
      vertex -9.689727e-01 -2.500000e-01 -2.345586e+00
      vertex -9.689727e-01 2.500000e-01 -2.345586e+00
    endloop
  endfacet
  facet normal -5.877970e-01 0.000000e+00 8.090084e-01
    outer loop
      vertex -9.689727e-01 2.500000e-01 -2.345586e+00
      vertex -9.186935e-01 -2.500000e-01 -2.309055e+00
      vertex -9.186935e-01 2.500000e-01 -2.309055e+00
    endloop
  endfacet
  facet normal 0.000000e+00 -1.000000e+00 0.000000e+00
    outer loop
      vertex 8.130654e-02 -2.500000e-01 -9.340547e-01
      vertex 8.130654e-02 -2.500000e-01 -1.565945e+00
      vertex 1.005000e-01 -2.500000e-01 -1.625000e+00
    endloop
  endfacet
  facet normal -9.510309e-01 0.000000e+00 -3.090960e-01
    outer loop
      vertex 1.005000e-01 2.500000e-01 -1.625000e+00
      vertex 1.005000e-01 -2.500000e-01 -1.625000e+00
      vertex 8.130654e-02 -2.500000e-01 -1.565945e+00
    endloop
  endfacet
  facet normal 0.000000e+00 -1.000000e+00 0.000000e+00
    outer loop
      vertex 9.186935e-01 -2.500000e-01 -2.309055e+00
      vertex 1.005000e-01 -2.500000e-01 -1.625000e+00
      vertex 8.130654e-02 -2.500000e-01 -1.684055e+00
    endloop
  endfacet
  facet normal -9.510309e-01 0.000000e+00 3.090960e-01
    outer loop
      vertex 8.130654e-02 2.500000e-01 -1.684055e+00
      vertex 8.130654e-02 -2.500000e-01 -1.684055e+00
      vertex 1.005000e-01 -2.500000e-01 -1.625000e+00
    endloop
  endfacet
  facet normal 0.000000e+00 -1.000000e+00 0.000000e+00
    outer loop
      vertex 1.005000e-01 -2.500000e-01 -8.750000e-01
      vertex 1.005000e-01 -2.500000e-01 -1.625000e+00
      vertex 9.186935e-01 -2.500000e-01 -2.309055e+00
    endloop
  endfacet
  facet normal 0.000000e+00 -1.000000e+00 0.000000e+00
    outer loop
      vertex 8.130654e-02 -2.500000e-01 -9.340547e-01
      vertex 1.005000e-01 -2.500000e-01 -1.625000e+00
      vertex 1.005000e-01 -2.500000e-01 -8.750000e-01
    endloop
  endfacet
  facet normal -9.510309e-01 0.000000e+00 3.090960e-01
    outer loop
      vertex 8.130654e-02 2.500000e-01 -1.684055e+00
      vertex 1.005000e-01 -2.500000e-01 -1.625000e+00
      vertex 1.005000e-01 2.500000e-01 -1.625000e+00
    endloop
  endfacet
  facet normal 0.000000e+00 -1.000000e+00 0.000000e+00
    outer loop
      vertex 3.102729e-02 -2.500000e-01 -9.705858e-01
      vertex 3.102729e-02 -2.500000e-01 -1.529414e+00
      vertex 8.130654e-02 -2.500000e-01 -1.565945e+00
    endloop
  endfacet
  facet normal -5.877970e-01 0.000000e+00 -8.090084e-01
    outer loop
      vertex 8.130654e-02 2.500000e-01 -1.565945e+00
      vertex 8.130654e-02 -2.500000e-01 -1.565945e+00
      vertex 3.102729e-02 -2.500000e-01 -1.529414e+00
    endloop
  endfacet
  facet normal 0.000000e+00 -1.000000e+00 0.000000e+00
    outer loop
      vertex 8.130654e-02 -2.500000e-01 -9.340547e-01
      vertex 3.102729e-02 -2.500000e-01 -9.705858e-01
      vertex 8.130654e-02 -2.500000e-01 -1.565945e+00
    endloop
  endfacet
  facet normal -9.510309e-01 0.000000e+00 -3.090960e-01
    outer loop
      vertex 8.130654e-02 2.500000e-01 -1.565945e+00
      vertex 1.005000e-01 2.500000e-01 -1.625000e+00
      vertex 8.130654e-02 -2.500000e-01 -1.565945e+00
    endloop
  endfacet
  facet normal 0.000000e+00 -1.000000e+00 0.000000e+00
    outer loop
      vertex -3.102729e-02 -2.500000e-01 -9.705858e-01
      vertex -3.102729e-02 -2.500000e-01 -1.529414e+00
      vertex 3.102729e-02 -2.500000e-01 -1.529414e+00
    endloop
  endfacet
  facet normal -3.578215e-15 0.000000e+00 -1.000000e+00
    outer loop
      vertex 3.102729e-02 2.500000e-01 -1.529414e+00
      vertex 3.102729e-02 -2.500000e-01 -1.529414e+00
      vertex -3.102729e-02 -2.500000e-01 -1.529414e+00
    endloop
  endfacet
  facet normal 0.000000e+00 -1.000000e+00 0.000000e+00
    outer loop
      vertex 3.102729e-02 -2.500000e-01 -9.705858e-01
      vertex -3.102729e-02 -2.500000e-01 -9.705858e-01
      vertex 3.102729e-02 -2.500000e-01 -1.529414e+00
    endloop
  endfacet
  facet normal -5.877970e-01 0.000000e+00 -8.090084e-01
    outer loop
      vertex 8.130654e-02 2.500000e-01 -1.565945e+00
      vertex 3.102729e-02 -2.500000e-01 -1.529414e+00
      vertex 3.102729e-02 2.500000e-01 -1.529414e+00
    endloop
  endfacet
  facet normal 0.000000e+00 -1.000000e+00 0.000000e+00
    outer loop
      vertex -8.130654e-02 -2.500000e-01 -9.340547e-01
      vertex -8.130654e-02 -2.500000e-01 -1.565945e+00
      vertex -3.102729e-02 -2.500000e-01 -1.529414e+00
    endloop
  endfacet
  facet normal 5.877970e-01 0.000000e+00 -8.090084e-01
    outer loop
      vertex -3.102729e-02 2.500000e-01 -1.529414e+00
      vertex -3.102729e-02 -2.500000e-01 -1.529414e+00
      vertex -8.130654e-02 -2.500000e-01 -1.565945e+00
    endloop
  endfacet
  facet normal 0.000000e+00 -1.000000e+00 0.000000e+00
    outer loop
      vertex -3.102729e-02 -2.500000e-01 -9.705858e-01
      vertex -8.130654e-02 -2.500000e-01 -9.340547e-01
      vertex -3.102729e-02 -2.500000e-01 -1.529414e+00
    endloop
  endfacet
  facet normal -3.578215e-15 0.000000e+00 -1.000000e+00
    outer loop
      vertex 3.102729e-02 2.500000e-01 -1.529414e+00
      vertex -3.102729e-02 -2.500000e-01 -1.529414e+00
      vertex -3.102729e-02 2.500000e-01 -1.529414e+00
    endloop
  endfacet
  facet normal 0.000000e+00 -1.000000e+00 0.000000e+00
    outer loop
      vertex -1.005000e-01 -2.500000e-01 -8.750000e-01
      vertex -1.005000e-01 -2.500000e-01 -1.625000e+00
      vertex -8.130654e-02 -2.500000e-01 -1.565945e+00
    endloop
  endfacet
  facet normal 9.510309e-01 0.000000e+00 -3.090960e-01
    outer loop
      vertex -8.130654e-02 2.500000e-01 -1.565945e+00
      vertex -8.130654e-02 -2.500000e-01 -1.565945e+00
      vertex -1.005000e-01 -2.500000e-01 -1.625000e+00
    endloop
  endfacet
  facet normal 0.000000e+00 -1.000000e+00 0.000000e+00
    outer loop
      vertex -8.130654e-02 -2.500000e-01 -9.340547e-01
      vertex -1.005000e-01 -2.500000e-01 -8.750000e-01
      vertex -8.130654e-02 -2.500000e-01 -1.565945e+00
    endloop
  endfacet
  facet normal 5.877970e-01 0.000000e+00 -8.090084e-01
    outer loop
      vertex -3.102729e-02 2.500000e-01 -1.529414e+00
      vertex -8.130654e-02 -2.500000e-01 -1.565945e+00
      vertex -8.130654e-02 2.500000e-01 -1.565945e+00
    endloop
  endfacet
  facet normal 0.000000e+00 -1.000000e+00 0.000000e+00
    outer loop
      vertex -8.995000e-01 -2.500000e-01 -2.500000e-01
      vertex -8.130654e-02 -2.500000e-01 -1.684055e+00
      vertex -1.005000e-01 -2.500000e-01 -1.625000e+00
    endloop
  endfacet
  facet normal 9.510309e-01 0.000000e+00 3.090960e-01
    outer loop
      vertex -1.005000e-01 2.500000e-01 -1.625000e+00
      vertex -1.005000e-01 -2.500000e-01 -1.625000e+00
      vertex -8.130654e-02 -2.500000e-01 -1.684055e+00
    endloop
  endfacet
  facet normal 0.000000e+00 -1.000000e+00 0.000000e+00
    outer loop
      vertex -9.186935e-01 -2.500000e-01 -1.909453e-01
      vertex -1.005000e-01 -2.500000e-01 -1.625000e+00
      vertex -1.005000e-01 -2.500000e-01 -8.750000e-01
    endloop
  endfacet
  facet normal 0.000000e+00 -1.000000e+00 0.000000e+00
    outer loop
      vertex -9.186935e-01 -2.500000e-01 -1.909453e-01
      vertex -8.995000e-01 -2.500000e-01 -2.500000e-01
      vertex -1.005000e-01 -2.500000e-01 -1.625000e+00
    endloop
  endfacet
  facet normal 9.510309e-01 0.000000e+00 -3.090960e-01
    outer loop
      vertex -8.130654e-02 2.500000e-01 -1.565945e+00
      vertex -1.005000e-01 -2.500000e-01 -1.625000e+00
      vertex -1.005000e-01 2.500000e-01 -1.625000e+00
    endloop
  endfacet
  facet normal 5.877970e-01 0.000000e+00 8.090084e-01
    outer loop
      vertex -8.130654e-02 2.500000e-01 -1.684055e+00
      vertex -8.130654e-02 -2.500000e-01 -1.684055e+00
      vertex -3.102729e-02 -2.500000e-01 -1.720586e+00
    endloop
  endfacet
  facet normal 9.510309e-01 0.000000e+00 3.090960e-01
    outer loop
      vertex -1.005000e-01 2.500000e-01 -1.625000e+00
      vertex -8.130654e-02 -2.500000e-01 -1.684055e+00
      vertex -8.130654e-02 2.500000e-01 -1.684055e+00
    endloop
  endfacet
  facet normal 0.000000e+00 -1.000000e+00 0.000000e+00
    outer loop
      vertex 9.689727e-01 -2.500000e-01 -2.345586e+00
      vertex 3.102729e-02 -2.500000e-01 -1.720586e+00
      vertex -3.102729e-02 -2.500000e-01 -1.720586e+00
    endloop
  endfacet
  facet normal 7.156429e-15 0.000000e+00 1.000000e+00
    outer loop
      vertex -3.102729e-02 2.500000e-01 -1.720586e+00
      vertex -3.102729e-02 -2.500000e-01 -1.720586e+00
      vertex 3.102729e-02 -2.500000e-01 -1.720586e+00
    endloop
  endfacet
  facet normal 5.877970e-01 0.000000e+00 8.090084e-01
    outer loop
      vertex -8.130654e-02 2.500000e-01 -1.684055e+00
      vertex -3.102729e-02 -2.500000e-01 -1.720586e+00
      vertex -3.102729e-02 2.500000e-01 -1.720586e+00
    endloop
  endfacet
  facet normal 0.000000e+00 -1.000000e+00 0.000000e+00
    outer loop
      vertex 9.186935e-01 -2.500000e-01 -2.309055e+00
      vertex 8.130654e-02 -2.500000e-01 -1.684055e+00
      vertex 3.102729e-02 -2.500000e-01 -1.720586e+00
    endloop
  endfacet
  facet normal -5.877970e-01 0.000000e+00 8.090084e-01
    outer loop
      vertex 3.102729e-02 2.500000e-01 -1.720586e+00
      vertex 3.102729e-02 -2.500000e-01 -1.720586e+00
      vertex 8.130654e-02 -2.500000e-01 -1.684055e+00
    endloop
  endfacet
  facet normal 0.000000e+00 -1.000000e+00 0.000000e+00
    outer loop
      vertex 9.689727e-01 -2.500000e-01 -2.345586e+00
      vertex 9.186935e-01 -2.500000e-01 -2.309055e+00
      vertex 3.102729e-02 -2.500000e-01 -1.720586e+00
    endloop
  endfacet
  facet normal 7.156429e-15 0.000000e+00 1.000000e+00
    outer loop
      vertex -3.102729e-02 2.500000e-01 -1.720586e+00
      vertex 3.102729e-02 -2.500000e-01 -1.720586e+00
      vertex 3.102729e-02 2.500000e-01 -1.720586e+00
    endloop
  endfacet
  facet normal -5.877970e-01 0.000000e+00 8.090084e-01
    outer loop
      vertex 3.102729e-02 2.500000e-01 -1.720586e+00
      vertex 8.130654e-02 -2.500000e-01 -1.684055e+00
      vertex 8.130654e-02 2.500000e-01 -1.684055e+00
    endloop
  endfacet
  facet normal 0.000000e+00 -1.000000e+00 0.000000e+00
    outer loop
      vertex 1.081307e+00 -2.500000e-01 -3.090547e-01
      vertex 1.081307e+00 -2.500000e-01 -2.190945e+00
      vertex 1.100500e+00 -2.500000e-01 -2.250000e+00
    endloop
  endfacet
  facet normal -9.510309e-01 0.000000e+00 -3.090960e-01
    outer loop
      vertex 1.100500e+00 2.500000e-01 -2.250000e+00
      vertex 1.100500e+00 -2.500000e-01 -2.250000e+00
      vertex 1.081307e+00 -2.500000e-01 -2.190945e+00
    endloop
  endfacet
  facet normal -9.510309e-01 0.000000e+00 3.090960e-01
    outer loop
      vertex 1.081307e+00 2.500000e-01 -2.309055e+00
      vertex 1.081307e+00 -2.500000e-01 -2.309055e+00
      vertex 1.100500e+00 -2.500000e-01 -2.250000e+00
    endloop
  endfacet
  facet normal 0.000000e+00 -1.000000e+00 0.000000e+00
    outer loop
      vertex 1.081307e+00 -2.500000e-01 -3.090547e-01
      vertex 1.100500e+00 -2.500000e-01 -2.250000e+00
      vertex 1.100500e+00 -2.500000e-01 -2.500000e-01
    endloop
  endfacet
  facet normal -9.510309e-01 0.000000e+00 3.090960e-01
    outer loop
      vertex 1.081307e+00 2.500000e-01 -2.309055e+00
      vertex 1.100500e+00 -2.500000e-01 -2.250000e+00
      vertex 1.100500e+00 2.500000e-01 -2.250000e+00
    endloop
  endfacet
  facet normal 0.000000e+00 -1.000000e+00 0.000000e+00
    outer loop
      vertex 1.031027e+00 -2.500000e-01 -3.455858e-01
      vertex 1.031027e+00 -2.500000e-01 -2.154414e+00
      vertex 1.081307e+00 -2.500000e-01 -2.190945e+00
    endloop
  endfacet
  facet normal -5.877970e-01 0.000000e+00 -8.090084e-01
    outer loop
      vertex 1.081307e+00 2.500000e-01 -2.190945e+00
      vertex 1.081307e+00 -2.500000e-01 -2.190945e+00
      vertex 1.031027e+00 -2.500000e-01 -2.154414e+00
    endloop
  endfacet
  facet normal 0.000000e+00 -1.000000e+00 0.000000e+00
    outer loop
      vertex 1.081307e+00 -2.500000e-01 -3.090547e-01
      vertex 1.031027e+00 -2.500000e-01 -3.455858e-01
      vertex 1.081307e+00 -2.500000e-01 -2.190945e+00
    endloop
  endfacet
  facet normal -9.510309e-01 0.000000e+00 -3.090960e-01
    outer loop
      vertex 1.081307e+00 2.500000e-01 -2.190945e+00
      vertex 1.100500e+00 2.500000e-01 -2.250000e+00
      vertex 1.081307e+00 -2.500000e-01 -2.190945e+00
    endloop
  endfacet
  facet normal 0.000000e+00 -1.000000e+00 0.000000e+00
    outer loop
      vertex 9.689727e-01 -2.500000e-01 -3.455858e-01
      vertex 9.689727e-01 -2.500000e-01 -2.154414e+00
      vertex 1.031027e+00 -2.500000e-01 -2.154414e+00
    endloop
  endfacet
  facet normal 0.000000e+00 0.000000e+00 -1.000000e+00
    outer loop
      vertex 1.031027e+00 2.500000e-01 -2.154414e+00
      vertex 1.031027e+00 -2.500000e-01 -2.154414e+00
      vertex 9.689727e-01 -2.500000e-01 -2.154414e+00
    endloop
  endfacet
  facet normal 0.000000e+00 -1.000000e+00 0.000000e+00
    outer loop
      vertex 1.031027e+00 -2.500000e-01 -3.455858e-01
      vertex 9.689727e-01 -2.500000e-01 -3.455858e-01
      vertex 1.031027e+00 -2.500000e-01 -2.154414e+00
    endloop
  endfacet
  facet normal -5.877970e-01 0.000000e+00 -8.090084e-01
    outer loop
      vertex 1.081307e+00 2.500000e-01 -2.190945e+00
      vertex 1.031027e+00 -2.500000e-01 -2.154414e+00
      vertex 1.031027e+00 2.500000e-01 -2.154414e+00
    endloop
  endfacet
  facet normal 0.000000e+00 -1.000000e+00 0.000000e+00
    outer loop
      vertex 9.186935e-01 -2.500000e-01 -3.090547e-01
      vertex 9.186935e-01 -2.500000e-01 -2.190945e+00
      vertex 9.689727e-01 -2.500000e-01 -2.154414e+00
    endloop
  endfacet
  facet normal 5.877970e-01 0.000000e+00 -8.090084e-01
    outer loop
      vertex 9.689727e-01 2.500000e-01 -2.154414e+00
      vertex 9.689727e-01 -2.500000e-01 -2.154414e+00
      vertex 9.186935e-01 -2.500000e-01 -2.190945e+00
    endloop
  endfacet
  facet normal 0.000000e+00 -1.000000e+00 0.000000e+00
    outer loop
      vertex 9.689727e-01 -2.500000e-01 -3.455858e-01
      vertex 9.186935e-01 -2.500000e-01 -3.090547e-01
      vertex 9.689727e-01 -2.500000e-01 -2.154414e+00
    endloop
  endfacet
  facet normal 0.000000e+00 0.000000e+00 -1.000000e+00
    outer loop
      vertex 1.031027e+00 2.500000e-01 -2.154414e+00
      vertex 9.689727e-01 -2.500000e-01 -2.154414e+00
      vertex 9.689727e-01 2.500000e-01 -2.154414e+00
    endloop
  endfacet
  facet normal 0.000000e+00 -1.000000e+00 0.000000e+00
    outer loop
      vertex 8.995000e-01 -2.500000e-01 -2.500000e-01
      vertex 8.995000e-01 -2.500000e-01 -2.250000e+00
      vertex 9.186935e-01 -2.500000e-01 -2.190945e+00
    endloop
  endfacet
  facet normal 9.510309e-01 0.000000e+00 -3.090960e-01
    outer loop
      vertex 9.186935e-01 2.500000e-01 -2.190945e+00
      vertex 9.186935e-01 -2.500000e-01 -2.190945e+00
      vertex 8.995000e-01 -2.500000e-01 -2.250000e+00
    endloop
  endfacet
  facet normal 0.000000e+00 -1.000000e+00 0.000000e+00
    outer loop
      vertex 9.186935e-01 -2.500000e-01 -3.090547e-01
      vertex 8.995000e-01 -2.500000e-01 -2.500000e-01
      vertex 9.186935e-01 -2.500000e-01 -2.190945e+00
    endloop
  endfacet
  facet normal 5.877970e-01 0.000000e+00 -8.090084e-01
    outer loop
      vertex 9.689727e-01 2.500000e-01 -2.154414e+00
      vertex 9.186935e-01 -2.500000e-01 -2.190945e+00
      vertex 9.186935e-01 2.500000e-01 -2.190945e+00
    endloop
  endfacet
  facet normal 0.000000e+00 -1.000000e+00 0.000000e+00
    outer loop
      vertex 1.005000e-01 -2.500000e-01 -8.750000e-01
      vertex 9.186935e-01 -2.500000e-01 -2.309055e+00
      vertex 8.995000e-01 -2.500000e-01 -2.250000e+00
    endloop
  endfacet
  facet normal 9.510309e-01 0.000000e+00 3.090960e-01
    outer loop
      vertex 8.995000e-01 2.500000e-01 -2.250000e+00
      vertex 8.995000e-01 -2.500000e-01 -2.250000e+00
      vertex 9.186935e-01 -2.500000e-01 -2.309055e+00
    endloop
  endfacet
  facet normal 0.000000e+00 -1.000000e+00 0.000000e+00
    outer loop
      vertex 8.130654e-02 -2.500000e-01 -8.159453e-01
      vertex 1.005000e-01 -2.500000e-01 -8.750000e-01
      vertex 8.995000e-01 -2.500000e-01 -2.250000e+00
    endloop
  endfacet
  facet normal 0.000000e+00 -1.000000e+00 0.000000e+00
    outer loop
      vertex 8.995000e-01 -2.500000e-01 -2.500000e-01
      vertex 8.130654e-02 -2.500000e-01 -8.159453e-01
      vertex 8.995000e-01 -2.500000e-01 -2.250000e+00
    endloop
  endfacet
  facet normal 9.510309e-01 0.000000e+00 -3.090960e-01
    outer loop
      vertex 9.186935e-01 2.500000e-01 -2.190945e+00
      vertex 8.995000e-01 -2.500000e-01 -2.250000e+00
      vertex 8.995000e-01 2.500000e-01 -2.250000e+00
    endloop
  endfacet
  facet normal 5.877970e-01 0.000000e+00 8.090084e-01
    outer loop
      vertex 9.186935e-01 2.500000e-01 -2.309055e+00
      vertex 9.186935e-01 -2.500000e-01 -2.309055e+00
      vertex 9.689727e-01 -2.500000e-01 -2.345586e+00
    endloop
  endfacet
  facet normal 9.510309e-01 0.000000e+00 3.090960e-01
    outer loop
      vertex 8.995000e-01 2.500000e-01 -2.250000e+00
      vertex 9.186935e-01 -2.500000e-01 -2.309055e+00
      vertex 9.186935e-01 2.500000e-01 -2.309055e+00
    endloop
  endfacet
  facet normal 0.000000e+00 0.000000e+00 1.000000e+00
    outer loop
      vertex 9.689727e-01 2.500000e-01 -2.345586e+00
      vertex 9.689727e-01 -2.500000e-01 -2.345586e+00
      vertex 1.031027e+00 -2.500000e-01 -2.345586e+00
    endloop
  endfacet
  facet normal 5.877970e-01 0.000000e+00 8.090084e-01
    outer loop
      vertex 9.186935e-01 2.500000e-01 -2.309055e+00
      vertex 9.689727e-01 -2.500000e-01 -2.345586e+00
      vertex 9.689727e-01 2.500000e-01 -2.345586e+00
    endloop
  endfacet
  facet normal -5.877970e-01 0.000000e+00 8.090084e-01
    outer loop
      vertex 1.031027e+00 2.500000e-01 -2.345586e+00
      vertex 1.031027e+00 -2.500000e-01 -2.345586e+00
      vertex 1.081307e+00 -2.500000e-01 -2.309055e+00
    endloop
  endfacet
  facet normal 0.000000e+00 0.000000e+00 1.000000e+00
    outer loop
      vertex 9.689727e-01 2.500000e-01 -2.345586e+00
      vertex 1.031027e+00 -2.500000e-01 -2.345586e+00
      vertex 1.031027e+00 2.500000e-01 -2.345586e+00
    endloop
  endfacet
  facet normal -5.877970e-01 0.000000e+00 8.090084e-01
    outer loop
      vertex 1.031027e+00 2.500000e-01 -2.345586e+00
      vertex 1.081307e+00 -2.500000e-01 -2.309055e+00
      vertex 1.081307e+00 2.500000e-01 -2.309055e+00
    endloop
  endfacet
  facet normal -9.510309e-01 0.000000e+00 -3.090960e-01
    outer loop
      vertex 1.005000e-01 2.500000e-01 -8.750000e-01
      vertex 1.005000e-01 -2.500000e-01 -8.750000e-01
      vertex 8.130654e-02 -2.500000e-01 -8.159453e-01
    endloop
  endfacet
  facet normal -9.510309e-01 0.000000e+00 3.090960e-01
    outer loop
      vertex 8.130654e-02 2.500000e-01 -9.340547e-01
      vertex 8.130654e-02 -2.500000e-01 -9.340547e-01
      vertex 1.005000e-01 -2.500000e-01 -8.750000e-01
    endloop
  endfacet
  facet normal -9.510309e-01 0.000000e+00 3.090960e-01
    outer loop
      vertex 8.130654e-02 2.500000e-01 -9.340547e-01
      vertex 1.005000e-01 -2.500000e-01 -8.750000e-01
      vertex 1.005000e-01 2.500000e-01 -8.750000e-01
    endloop
  endfacet
  facet normal 0.000000e+00 -1.000000e+00 0.000000e+00
    outer loop
      vertex 8.995000e-01 -2.500000e-01 -2.500000e-01
      vertex 3.102729e-02 -2.500000e-01 -7.794142e-01
      vertex 8.130654e-02 -2.500000e-01 -8.159453e-01
    endloop
  endfacet
  facet normal -5.877970e-01 0.000000e+00 -8.090084e-01
    outer loop
      vertex 8.130654e-02 2.500000e-01 -8.159453e-01
      vertex 8.130654e-02 -2.500000e-01 -8.159453e-01
      vertex 3.102729e-02 -2.500000e-01 -7.794142e-01
    endloop
  endfacet
  facet normal -9.510309e-01 0.000000e+00 -3.090960e-01
    outer loop
      vertex 8.130654e-02 2.500000e-01 -8.159453e-01
      vertex 1.005000e-01 2.500000e-01 -8.750000e-01
      vertex 8.130654e-02 -2.500000e-01 -8.159453e-01
    endloop
  endfacet
  facet normal 0.000000e+00 -1.000000e+00 0.000000e+00
    outer loop
      vertex -9.689727e-01 -2.500000e-01 -1.544142e-01
      vertex -3.102729e-02 -2.500000e-01 -7.794142e-01
      vertex 3.102729e-02 -2.500000e-01 -7.794142e-01
    endloop
  endfacet
  facet normal 0.000000e+00 0.000000e+00 -1.000000e+00
    outer loop
      vertex 3.102729e-02 2.500000e-01 -7.794142e-01
      vertex 3.102729e-02 -2.500000e-01 -7.794142e-01
      vertex -3.102729e-02 -2.500000e-01 -7.794142e-01
    endloop
  endfacet
  facet normal 0.000000e+00 -1.000000e+00 0.000000e+00
    outer loop
      vertex 8.995000e-01 -2.500000e-01 -2.500000e-01
      vertex -9.689727e-01 -2.500000e-01 -1.544142e-01
      vertex 3.102729e-02 -2.500000e-01 -7.794142e-01
    endloop
  endfacet
  facet normal -5.877970e-01 0.000000e+00 -8.090084e-01
    outer loop
      vertex 8.130654e-02 2.500000e-01 -8.159453e-01
      vertex 3.102729e-02 -2.500000e-01 -7.794142e-01
      vertex 3.102729e-02 2.500000e-01 -7.794142e-01
    endloop
  endfacet
  facet normal 0.000000e+00 -1.000000e+00 0.000000e+00
    outer loop
      vertex -9.186935e-01 -2.500000e-01 -1.909453e-01
      vertex -8.130654e-02 -2.500000e-01 -8.159453e-01
      vertex -3.102729e-02 -2.500000e-01 -7.794142e-01
    endloop
  endfacet
  facet normal 5.877970e-01 0.000000e+00 -8.090084e-01
    outer loop
      vertex -3.102729e-02 2.500000e-01 -7.794142e-01
      vertex -3.102729e-02 -2.500000e-01 -7.794142e-01
      vertex -8.130654e-02 -2.500000e-01 -8.159453e-01
    endloop
  endfacet
  facet normal 0.000000e+00 -1.000000e+00 0.000000e+00
    outer loop
      vertex -9.689727e-01 -2.500000e-01 -1.544142e-01
      vertex -9.186935e-01 -2.500000e-01 -1.909453e-01
      vertex -3.102729e-02 -2.500000e-01 -7.794142e-01
    endloop
  endfacet
  facet normal 0.000000e+00 0.000000e+00 -1.000000e+00
    outer loop
      vertex 3.102729e-02 2.500000e-01 -7.794142e-01
      vertex -3.102729e-02 -2.500000e-01 -7.794142e-01
      vertex -3.102729e-02 2.500000e-01 -7.794142e-01
    endloop
  endfacet
  facet normal 0.000000e+00 -1.000000e+00 0.000000e+00
    outer loop
      vertex -9.186935e-01 -2.500000e-01 -1.909453e-01
      vertex -1.005000e-01 -2.500000e-01 -8.750000e-01
      vertex -8.130654e-02 -2.500000e-01 -8.159453e-01
    endloop
  endfacet
  facet normal 9.510309e-01 0.000000e+00 -3.090960e-01
    outer loop
      vertex -8.130654e-02 2.500000e-01 -8.159453e-01
      vertex -8.130654e-02 -2.500000e-01 -8.159453e-01
      vertex -1.005000e-01 -2.500000e-01 -8.750000e-01
    endloop
  endfacet
  facet normal 5.877970e-01 0.000000e+00 -8.090084e-01
    outer loop
      vertex -3.102729e-02 2.500000e-01 -7.794142e-01
      vertex -8.130654e-02 -2.500000e-01 -8.159453e-01
      vertex -8.130654e-02 2.500000e-01 -8.159453e-01
    endloop
  endfacet
  facet normal 9.510309e-01 0.000000e+00 3.090960e-01
    outer loop
      vertex -1.005000e-01 2.500000e-01 -8.750000e-01
      vertex -1.005000e-01 -2.500000e-01 -8.750000e-01
      vertex -8.130654e-02 -2.500000e-01 -9.340547e-01
    endloop
  endfacet
  facet normal 9.510309e-01 0.000000e+00 -3.090960e-01
    outer loop
      vertex -8.130654e-02 2.500000e-01 -8.159453e-01
      vertex -1.005000e-01 -2.500000e-01 -8.750000e-01
      vertex -1.005000e-01 2.500000e-01 -8.750000e-01
    endloop
  endfacet
  facet normal 5.877970e-01 0.000000e+00 8.090084e-01
    outer loop
      vertex -8.130654e-02 2.500000e-01 -9.340547e-01
      vertex -8.130654e-02 -2.500000e-01 -9.340547e-01
      vertex -3.102729e-02 -2.500000e-01 -9.705858e-01
    endloop
  endfacet
  facet normal 9.510309e-01 0.000000e+00 3.090960e-01
    outer loop
      vertex -1.005000e-01 2.500000e-01 -8.750000e-01
      vertex -8.130654e-02 -2.500000e-01 -9.340547e-01
      vertex -8.130654e-02 2.500000e-01 -9.340547e-01
    endloop
  endfacet
  facet normal 0.000000e+00 0.000000e+00 1.000000e+00
    outer loop
      vertex -3.102729e-02 2.500000e-01 -9.705858e-01
      vertex -3.102729e-02 -2.500000e-01 -9.705858e-01
      vertex 3.102729e-02 -2.500000e-01 -9.705858e-01
    endloop
  endfacet
  facet normal 5.877970e-01 0.000000e+00 8.090084e-01
    outer loop
      vertex -8.130654e-02 2.500000e-01 -9.340547e-01
      vertex -3.102729e-02 -2.500000e-01 -9.705858e-01
      vertex -3.102729e-02 2.500000e-01 -9.705858e-01
    endloop
  endfacet
  facet normal -5.877970e-01 0.000000e+00 8.090084e-01
    outer loop
      vertex 3.102729e-02 2.500000e-01 -9.705858e-01
      vertex 3.102729e-02 -2.500000e-01 -9.705858e-01
      vertex 8.130654e-02 -2.500000e-01 -9.340547e-01
    endloop
  endfacet
  facet normal 0.000000e+00 0.000000e+00 1.000000e+00
    outer loop
      vertex -3.102729e-02 2.500000e-01 -9.705858e-01
      vertex 3.102729e-02 -2.500000e-01 -9.705858e-01
      vertex 3.102729e-02 2.500000e-01 -9.705858e-01
    endloop
  endfacet
  facet normal -5.877970e-01 0.000000e+00 8.090084e-01
    outer loop
      vertex 3.102729e-02 2.500000e-01 -9.705858e-01
      vertex 8.130654e-02 -2.500000e-01 -9.340547e-01
      vertex 8.130654e-02 2.500000e-01 -9.340547e-01
    endloop
  endfacet
  facet normal -9.510309e-01 0.000000e+00 -3.090960e-01
    outer loop
      vertex -8.995000e-01 2.500000e-01 -2.500000e-01
      vertex -8.995000e-01 -2.500000e-01 -2.500000e-01
      vertex -9.186935e-01 -2.500000e-01 -1.909453e-01
    endloop
  endfacet
  facet normal -9.510309e-01 0.000000e+00 3.090960e-01
    outer loop
      vertex -9.186935e-01 2.500000e-01 -3.090547e-01
      vertex -9.186935e-01 -2.500000e-01 -3.090547e-01
      vertex -8.995000e-01 -2.500000e-01 -2.500000e-01
    endloop
  endfacet
  facet normal -9.510309e-01 0.000000e+00 3.090960e-01
    outer loop
      vertex -9.186935e-01 2.500000e-01 -3.090547e-01
      vertex -8.995000e-01 -2.500000e-01 -2.500000e-01
      vertex -8.995000e-01 2.500000e-01 -2.500000e-01
    endloop
  endfacet
  facet normal -5.877970e-01 0.000000e+00 -8.090084e-01
    outer loop
      vertex -9.186935e-01 2.500000e-01 -1.909453e-01
      vertex -9.186935e-01 -2.500000e-01 -1.909453e-01
      vertex -9.689727e-01 -2.500000e-01 -1.544142e-01
    endloop
  endfacet
  facet normal -9.510309e-01 0.000000e+00 -3.090960e-01
    outer loop
      vertex -9.186935e-01 2.500000e-01 -1.909453e-01
      vertex -8.995000e-01 2.500000e-01 -2.500000e-01
      vertex -9.186935e-01 -2.500000e-01 -1.909453e-01
    endloop
  endfacet
  facet normal 0.000000e+00 0.000000e+00 -1.000000e+00
    outer loop
      vertex -9.689727e-01 2.500000e-01 -1.544142e-01
      vertex -9.689727e-01 -2.500000e-01 -1.544142e-01
      vertex -1.031027e+00 -2.500000e-01 -1.544142e-01
    endloop
  endfacet
  facet normal -5.877970e-01 0.000000e+00 -8.090084e-01
    outer loop
      vertex -9.186935e-01 2.500000e-01 -1.909453e-01
      vertex -9.689727e-01 -2.500000e-01 -1.544142e-01
      vertex -9.689727e-01 2.500000e-01 -1.544142e-01
    endloop
  endfacet
  facet normal 5.877970e-01 0.000000e+00 -8.090084e-01
    outer loop
      vertex -1.031027e+00 2.500000e-01 -1.544142e-01
      vertex -1.031027e+00 -2.500000e-01 -1.544142e-01
      vertex -1.081307e+00 -2.500000e-01 -1.909453e-01
    endloop
  endfacet
  facet normal 0.000000e+00 0.000000e+00 -1.000000e+00
    outer loop
      vertex -9.689727e-01 2.500000e-01 -1.544142e-01
      vertex -1.031027e+00 -2.500000e-01 -1.544142e-01
      vertex -1.031027e+00 2.500000e-01 -1.544142e-01
    endloop
  endfacet
  facet normal 9.510309e-01 0.000000e+00 -3.090960e-01
    outer loop
      vertex -1.081307e+00 2.500000e-01 -1.909453e-01
      vertex -1.081307e+00 -2.500000e-01 -1.909453e-01
      vertex -1.100500e+00 -2.500000e-01 -2.500000e-01
    endloop
  endfacet
  facet normal 5.877970e-01 0.000000e+00 -8.090084e-01
    outer loop
      vertex -1.031027e+00 2.500000e-01 -1.544142e-01
      vertex -1.081307e+00 -2.500000e-01 -1.909453e-01
      vertex -1.081307e+00 2.500000e-01 -1.909453e-01
    endloop
  endfacet
  facet normal 9.510309e-01 0.000000e+00 3.090960e-01
    outer loop
      vertex -1.100500e+00 2.500000e-01 -2.500000e-01
      vertex -1.100500e+00 -2.500000e-01 -2.500000e-01
      vertex -1.081307e+00 -2.500000e-01 -3.090547e-01
    endloop
  endfacet
  facet normal 9.510309e-01 0.000000e+00 -3.090960e-01
    outer loop
      vertex -1.081307e+00 2.500000e-01 -1.909453e-01
      vertex -1.100500e+00 -2.500000e-01 -2.500000e-01
      vertex -1.100500e+00 2.500000e-01 -2.500000e-01
    endloop
  endfacet
  facet normal 5.877970e-01 0.000000e+00 8.090084e-01
    outer loop
      vertex -1.081307e+00 2.500000e-01 -3.090547e-01
      vertex -1.081307e+00 -2.500000e-01 -3.090547e-01
      vertex -1.031027e+00 -2.500000e-01 -3.455858e-01
    endloop
  endfacet
  facet normal 9.510309e-01 0.000000e+00 3.090960e-01
    outer loop
      vertex -1.100500e+00 2.500000e-01 -2.500000e-01
      vertex -1.081307e+00 -2.500000e-01 -3.090547e-01
      vertex -1.081307e+00 2.500000e-01 -3.090547e-01
    endloop
  endfacet
  facet normal 0.000000e+00 0.000000e+00 1.000000e+00
    outer loop
      vertex -1.031027e+00 2.500000e-01 -3.455858e-01
      vertex -1.031027e+00 -2.500000e-01 -3.455858e-01
      vertex -9.689727e-01 -2.500000e-01 -3.455858e-01
    endloop
  endfacet
  facet normal 5.877970e-01 0.000000e+00 8.090084e-01
    outer loop
      vertex -1.081307e+00 2.500000e-01 -3.090547e-01
      vertex -1.031027e+00 -2.500000e-01 -3.455858e-01
      vertex -1.031027e+00 2.500000e-01 -3.455858e-01
    endloop
  endfacet
  facet normal -5.877970e-01 0.000000e+00 8.090084e-01
    outer loop
      vertex -9.689727e-01 2.500000e-01 -3.455858e-01
      vertex -9.689727e-01 -2.500000e-01 -3.455858e-01
      vertex -9.186935e-01 -2.500000e-01 -3.090547e-01
    endloop
  endfacet
  facet normal 0.000000e+00 0.000000e+00 1.000000e+00
    outer loop
      vertex -1.031027e+00 2.500000e-01 -3.455858e-01
      vertex -9.689727e-01 -2.500000e-01 -3.455858e-01
      vertex -9.689727e-01 2.500000e-01 -3.455858e-01
    endloop
  endfacet
  facet normal -5.877970e-01 0.000000e+00 8.090084e-01
    outer loop
      vertex -9.689727e-01 2.500000e-01 -3.455858e-01
      vertex -9.186935e-01 -2.500000e-01 -3.090547e-01
      vertex -9.186935e-01 2.500000e-01 -3.090547e-01
    endloop
  endfacet
  facet normal -9.510309e-01 0.000000e+00 -3.090960e-01
    outer loop
      vertex 1.100500e+00 2.500000e-01 -2.500000e-01
      vertex 1.100500e+00 -2.500000e-01 -2.500000e-01
      vertex 1.081307e+00 -2.500000e-01 -1.909453e-01
    endloop
  endfacet
  facet normal -9.510309e-01 0.000000e+00 3.090960e-01
    outer loop
      vertex 1.081307e+00 2.500000e-01 -3.090547e-01
      vertex 1.081307e+00 -2.500000e-01 -3.090547e-01
      vertex 1.100500e+00 -2.500000e-01 -2.500000e-01
    endloop
  endfacet
  facet normal -9.510309e-01 0.000000e+00 3.090960e-01
    outer loop
      vertex 1.081307e+00 2.500000e-01 -3.090547e-01
      vertex 1.100500e+00 -2.500000e-01 -2.500000e-01
      vertex 1.100500e+00 2.500000e-01 -2.500000e-01
    endloop
  endfacet
  facet normal -5.877970e-01 0.000000e+00 -8.090084e-01
    outer loop
      vertex 1.081307e+00 2.500000e-01 -1.909453e-01
      vertex 1.081307e+00 -2.500000e-01 -1.909453e-01
      vertex 1.031027e+00 -2.500000e-01 -1.544142e-01
    endloop
  endfacet
  facet normal -9.510309e-01 0.000000e+00 -3.090960e-01
    outer loop
      vertex 1.081307e+00 2.500000e-01 -1.909453e-01
      vertex 1.100500e+00 2.500000e-01 -2.500000e-01
      vertex 1.081307e+00 -2.500000e-01 -1.909453e-01
    endloop
  endfacet
  facet normal 4.472768e-16 0.000000e+00 -1.000000e+00
    outer loop
      vertex 1.031027e+00 2.500000e-01 -1.544142e-01
      vertex 1.031027e+00 -2.500000e-01 -1.544142e-01
      vertex 9.689727e-01 -2.500000e-01 -1.544142e-01
    endloop
  endfacet
  facet normal -5.877970e-01 0.000000e+00 -8.090084e-01
    outer loop
      vertex 1.081307e+00 2.500000e-01 -1.909453e-01
      vertex 1.031027e+00 -2.500000e-01 -1.544142e-01
      vertex 1.031027e+00 2.500000e-01 -1.544142e-01
    endloop
  endfacet
  facet normal 5.877970e-01 0.000000e+00 -8.090084e-01
    outer loop
      vertex 9.689727e-01 2.500000e-01 -1.544142e-01
      vertex 9.689727e-01 -2.500000e-01 -1.544142e-01
      vertex 9.186935e-01 -2.500000e-01 -1.909453e-01
    endloop
  endfacet
  facet normal 4.472768e-16 0.000000e+00 -1.000000e+00
    outer loop
      vertex 1.031027e+00 2.500000e-01 -1.544142e-01
      vertex 9.689727e-01 -2.500000e-01 -1.544142e-01
      vertex 9.689727e-01 2.500000e-01 -1.544142e-01
    endloop
  endfacet
  facet normal 9.510309e-01 0.000000e+00 -3.090960e-01
    outer loop
      vertex 9.186935e-01 2.500000e-01 -1.909453e-01
      vertex 9.186935e-01 -2.500000e-01 -1.909453e-01
      vertex 8.995000e-01 -2.500000e-01 -2.500000e-01
    endloop
  endfacet
  facet normal 5.877970e-01 0.000000e+00 -8.090084e-01
    outer loop
      vertex 9.689727e-01 2.500000e-01 -1.544142e-01
      vertex 9.186935e-01 -2.500000e-01 -1.909453e-01
      vertex 9.186935e-01 2.500000e-01 -1.909453e-01
    endloop
  endfacet
  facet normal 9.510309e-01 0.000000e+00 3.090960e-01
    outer loop
      vertex 8.995000e-01 2.500000e-01 -2.500000e-01
      vertex 8.995000e-01 -2.500000e-01 -2.500000e-01
      vertex 9.186935e-01 -2.500000e-01 -3.090547e-01
    endloop
  endfacet
  facet normal 9.510309e-01 0.000000e+00 -3.090960e-01
    outer loop
      vertex 9.186935e-01 2.500000e-01 -1.909453e-01
      vertex 8.995000e-01 -2.500000e-01 -2.500000e-01
      vertex 8.995000e-01 2.500000e-01 -2.500000e-01
    endloop
  endfacet
  facet normal 5.877970e-01 0.000000e+00 8.090084e-01
    outer loop
      vertex 9.186935e-01 2.500000e-01 -3.090547e-01
      vertex 9.186935e-01 -2.500000e-01 -3.090547e-01
      vertex 9.689727e-01 -2.500000e-01 -3.455858e-01
    endloop
  endfacet
  facet normal 9.510309e-01 0.000000e+00 3.090960e-01
    outer loop
      vertex 8.995000e-01 2.500000e-01 -2.500000e-01
      vertex 9.186935e-01 -2.500000e-01 -3.090547e-01
      vertex 9.186935e-01 2.500000e-01 -3.090547e-01
    endloop
  endfacet
  facet normal 8.945536e-16 0.000000e+00 1.000000e+00
    outer loop
      vertex 9.689727e-01 2.500000e-01 -3.455858e-01
      vertex 9.689727e-01 -2.500000e-01 -3.455858e-01
      vertex 1.031027e+00 -2.500000e-01 -3.455858e-01
    endloop
  endfacet
  facet normal 5.877970e-01 0.000000e+00 8.090084e-01
    outer loop
      vertex 9.186935e-01 2.500000e-01 -3.090547e-01
      vertex 9.689727e-01 -2.500000e-01 -3.455858e-01
      vertex 9.689727e-01 2.500000e-01 -3.455858e-01
    endloop
  endfacet
  facet normal -5.877970e-01 0.000000e+00 8.090084e-01
    outer loop
      vertex 1.031027e+00 2.500000e-01 -3.455858e-01
      vertex 1.031027e+00 -2.500000e-01 -3.455858e-01
      vertex 1.081307e+00 -2.500000e-01 -3.090547e-01
    endloop
  endfacet
  facet normal 8.945536e-16 0.000000e+00 1.000000e+00
    outer loop
      vertex 9.689727e-01 2.500000e-01 -3.455858e-01
      vertex 1.031027e+00 -2.500000e-01 -3.455858e-01
      vertex 1.031027e+00 2.500000e-01 -3.455858e-01
    endloop
  endfacet
  facet normal -5.877970e-01 0.000000e+00 8.090084e-01
    outer loop
      vertex 1.031027e+00 2.500000e-01 -3.455858e-01
      vertex 1.081307e+00 -2.500000e-01 -3.090547e-01
      vertex 1.081307e+00 2.500000e-01 -3.090547e-01
    endloop
  endfacet
  facet normal 0.000000e+00 1.000000e+00 0.000000e+00
    outer loop
      vertex -1.100500e+00 2.500000e-01 -2.500000e-01
      vertex -1.500000e+00 2.500000e-01 -2.500000e+00
      vertex -1.500000e+00 2.500000e-01 0.000000e+00
    endloop
  endfacet
  facet normal 0.000000e+00 1.000000e+00 0.000000e+00
    outer loop
      vertex -1.031027e+00 2.500000e-01 -1.544142e-01
      vertex -1.500000e+00 2.500000e-01 0.000000e+00
      vertex 1.500000e+00 2.500000e-01 0.000000e+00
    endloop
  endfacet
  facet normal 0.000000e+00 1.000000e+00 0.000000e+00
    outer loop
      vertex -1.081307e+00 2.500000e-01 -1.909453e-01
      vertex -1.100500e+00 2.500000e-01 -2.500000e-01
      vertex -1.500000e+00 2.500000e-01 0.000000e+00
    endloop
  endfacet
  facet normal 0.000000e+00 1.000000e+00 0.000000e+00
    outer loop
      vertex -1.031027e+00 2.500000e-01 -1.544142e-01
      vertex -1.081307e+00 2.500000e-01 -1.909453e-01
      vertex -1.500000e+00 2.500000e-01 0.000000e+00
    endloop
  endfacet
  facet normal 0.000000e+00 1.000000e+00 0.000000e+00
    outer loop
      vertex 1.031027e+00 2.500000e-01 -2.345586e+00
      vertex 1.500000e+00 2.500000e-01 -2.500000e+00
      vertex -1.500000e+00 2.500000e-01 -2.500000e+00
    endloop
  endfacet
  facet normal 0.000000e+00 1.000000e+00 0.000000e+00
    outer loop
      vertex -1.031027e+00 2.500000e-01 -2.345586e+00
      vertex -9.689727e-01 2.500000e-01 -2.345586e+00
      vertex -1.500000e+00 2.500000e-01 -2.500000e+00
    endloop
  endfacet
  facet normal 0.000000e+00 1.000000e+00 0.000000e+00
    outer loop
      vertex 8.995000e-01 2.500000e-01 -2.250000e+00
      vertex -1.500000e+00 2.500000e-01 -2.500000e+00
      vertex -9.689727e-01 2.500000e-01 -2.345586e+00
    endloop
  endfacet
  facet normal 0.000000e+00 1.000000e+00 0.000000e+00
    outer loop
      vertex -1.081307e+00 2.500000e-01 -2.309055e+00
      vertex -1.031027e+00 2.500000e-01 -2.345586e+00
      vertex -1.500000e+00 2.500000e-01 -2.500000e+00
    endloop
  endfacet
  facet normal 0.000000e+00 1.000000e+00 0.000000e+00
    outer loop
      vertex -1.100500e+00 2.500000e-01 -2.250000e+00
      vertex -1.081307e+00 2.500000e-01 -2.309055e+00
      vertex -1.500000e+00 2.500000e-01 -2.500000e+00
    endloop
  endfacet
  facet normal 0.000000e+00 1.000000e+00 0.000000e+00
    outer loop
      vertex -1.100500e+00 2.500000e-01 -2.500000e-01
      vertex -1.100500e+00 2.500000e-01 -2.250000e+00
      vertex -1.500000e+00 2.500000e-01 -2.500000e+00
    endloop
  endfacet
  facet normal 0.000000e+00 1.000000e+00 0.000000e+00
    outer loop
      vertex 9.689727e-01 2.500000e-01 -2.345586e+00
      vertex 1.031027e+00 2.500000e-01 -2.345586e+00
      vertex -1.500000e+00 2.500000e-01 -2.500000e+00
    endloop
  endfacet
  facet normal 0.000000e+00 1.000000e+00 0.000000e+00
    outer loop
      vertex 9.186935e-01 2.500000e-01 -2.309055e+00
      vertex 9.689727e-01 2.500000e-01 -2.345586e+00
      vertex -1.500000e+00 2.500000e-01 -2.500000e+00
    endloop
  endfacet
  facet normal 0.000000e+00 1.000000e+00 0.000000e+00
    outer loop
      vertex 8.995000e-01 2.500000e-01 -2.250000e+00
      vertex 9.186935e-01 2.500000e-01 -2.309055e+00
      vertex -1.500000e+00 2.500000e-01 -2.500000e+00
    endloop
  endfacet
  facet normal 0.000000e+00 1.000000e+00 0.000000e+00
    outer loop
      vertex 1.100500e+00 2.500000e-01 -2.250000e+00
      vertex 1.500000e+00 2.500000e-01 0.000000e+00
      vertex 1.500000e+00 2.500000e-01 -2.500000e+00
    endloop
  endfacet
  facet normal 0.000000e+00 1.000000e+00 0.000000e+00
    outer loop
      vertex 1.081307e+00 2.500000e-01 -2.309055e+00
      vertex 1.100500e+00 2.500000e-01 -2.250000e+00
      vertex 1.500000e+00 2.500000e-01 -2.500000e+00
    endloop
  endfacet
  facet normal 0.000000e+00 1.000000e+00 0.000000e+00
    outer loop
      vertex 1.031027e+00 2.500000e-01 -2.345586e+00
      vertex 1.081307e+00 2.500000e-01 -2.309055e+00
      vertex 1.500000e+00 2.500000e-01 -2.500000e+00
    endloop
  endfacet
  facet normal 0.000000e+00 1.000000e+00 0.000000e+00
    outer loop
      vertex 1.100500e+00 2.500000e-01 -2.500000e-01
      vertex 1.500000e+00 2.500000e-01 0.000000e+00
      vertex 1.100500e+00 2.500000e-01 -2.250000e+00
    endloop
  endfacet
  facet normal 0.000000e+00 1.000000e+00 0.000000e+00
    outer loop
      vertex -9.186935e-01 2.500000e-01 -1.909453e-01
      vertex 1.500000e+00 2.500000e-01 0.000000e+00
      vertex -8.995000e-01 2.500000e-01 -2.500000e-01
    endloop
  endfacet
  facet normal 0.000000e+00 1.000000e+00 0.000000e+00
    outer loop
      vertex 9.689727e-01 2.500000e-01 -1.544142e-01
      vertex -8.995000e-01 2.500000e-01 -2.500000e-01
      vertex 1.500000e+00 2.500000e-01 0.000000e+00
    endloop
  endfacet
  facet normal 0.000000e+00 1.000000e+00 0.000000e+00
    outer loop
      vertex -9.689727e-01 2.500000e-01 -1.544142e-01
      vertex -1.031027e+00 2.500000e-01 -1.544142e-01
      vertex 1.500000e+00 2.500000e-01 0.000000e+00
    endloop
  endfacet
  facet normal 0.000000e+00 1.000000e+00 0.000000e+00
    outer loop
      vertex -9.186935e-01 2.500000e-01 -1.909453e-01
      vertex -9.689727e-01 2.500000e-01 -1.544142e-01
      vertex 1.500000e+00 2.500000e-01 0.000000e+00
    endloop
  endfacet
  facet normal 0.000000e+00 1.000000e+00 0.000000e+00
    outer loop
      vertex 1.081307e+00 2.500000e-01 -1.909453e-01
      vertex 1.500000e+00 2.500000e-01 0.000000e+00
      vertex 1.100500e+00 2.500000e-01 -2.500000e-01
    endloop
  endfacet
  facet normal 0.000000e+00 1.000000e+00 0.000000e+00
    outer loop
      vertex 1.031027e+00 2.500000e-01 -1.544142e-01
      vertex 9.689727e-01 2.500000e-01 -1.544142e-01
      vertex 1.500000e+00 2.500000e-01 0.000000e+00
    endloop
  endfacet
  facet normal 0.000000e+00 1.000000e+00 0.000000e+00
    outer loop
      vertex 1.081307e+00 2.500000e-01 -1.909453e-01
      vertex 1.031027e+00 2.500000e-01 -1.544142e-01
      vertex 1.500000e+00 2.500000e-01 0.000000e+00
    endloop
  endfacet
  facet normal 0.000000e+00 1.000000e+00 0.000000e+00
    outer loop
      vertex -1.005000e-01 2.500000e-01 -8.750000e-01
      vertex -9.186935e-01 2.500000e-01 -2.309055e+00
      vertex -8.995000e-01 2.500000e-01 -2.250000e+00
    endloop
  endfacet
  facet normal 0.000000e+00 1.000000e+00 0.000000e+00
    outer loop
      vertex -8.995000e-01 2.500000e-01 -2.500000e-01
      vertex -8.995000e-01 2.500000e-01 -2.250000e+00
      vertex -9.186935e-01 2.500000e-01 -2.190945e+00
    endloop
  endfacet
  facet normal 0.000000e+00 1.000000e+00 0.000000e+00
    outer loop
      vertex -8.130654e-02 2.500000e-01 -8.159453e-01
      vertex -1.005000e-01 2.500000e-01 -8.750000e-01
      vertex -8.995000e-01 2.500000e-01 -2.250000e+00
    endloop
  endfacet
  facet normal 0.000000e+00 1.000000e+00 0.000000e+00
    outer loop
      vertex -8.995000e-01 2.500000e-01 -2.500000e-01
      vertex -8.130654e-02 2.500000e-01 -8.159453e-01
      vertex -8.995000e-01 2.500000e-01 -2.250000e+00
    endloop
  endfacet
  facet normal 0.000000e+00 1.000000e+00 0.000000e+00
    outer loop
      vertex -3.102729e-02 2.500000e-01 -1.720586e+00
      vertex -9.689727e-01 2.500000e-01 -2.345586e+00
      vertex -9.186935e-01 2.500000e-01 -2.309055e+00
    endloop
  endfacet
  facet normal 0.000000e+00 1.000000e+00 0.000000e+00
    outer loop
      vertex -8.130654e-02 2.500000e-01 -1.684055e+00
      vertex -3.102729e-02 2.500000e-01 -1.720586e+00
      vertex -9.186935e-01 2.500000e-01 -2.309055e+00
    endloop
  endfacet
  facet normal 0.000000e+00 1.000000e+00 0.000000e+00
    outer loop
      vertex -1.005000e-01 2.500000e-01 -1.625000e+00
      vertex -8.130654e-02 2.500000e-01 -1.684055e+00
      vertex -9.186935e-01 2.500000e-01 -2.309055e+00
    endloop
  endfacet
  facet normal 0.000000e+00 1.000000e+00 0.000000e+00
    outer loop
      vertex -1.005000e-01 2.500000e-01 -8.750000e-01
      vertex -1.005000e-01 2.500000e-01 -1.625000e+00
      vertex -9.186935e-01 2.500000e-01 -2.309055e+00
    endloop
  endfacet
  facet normal 0.000000e+00 1.000000e+00 0.000000e+00
    outer loop
      vertex -3.102729e-02 2.500000e-01 -1.720586e+00
      vertex 3.102729e-02 2.500000e-01 -1.720586e+00
      vertex -9.689727e-01 2.500000e-01 -2.345586e+00
    endloop
  endfacet
  facet normal 0.000000e+00 1.000000e+00 0.000000e+00
    outer loop
      vertex 8.995000e-01 2.500000e-01 -2.250000e+00
      vertex -9.689727e-01 2.500000e-01 -2.345586e+00
      vertex 3.102729e-02 2.500000e-01 -1.720586e+00
    endloop
  endfacet
  facet normal 0.000000e+00 1.000000e+00 0.000000e+00
    outer loop
      vertex -1.081307e+00 2.500000e-01 -3.090547e-01
      vertex -1.081307e+00 2.500000e-01 -2.190945e+00
      vertex -1.100500e+00 2.500000e-01 -2.250000e+00
    endloop
  endfacet
  facet normal 0.000000e+00 1.000000e+00 0.000000e+00
    outer loop
      vertex -1.100500e+00 2.500000e-01 -2.500000e-01
      vertex -1.081307e+00 2.500000e-01 -3.090547e-01
      vertex -1.100500e+00 2.500000e-01 -2.250000e+00
    endloop
  endfacet
  facet normal 0.000000e+00 1.000000e+00 0.000000e+00
    outer loop
      vertex -1.031027e+00 2.500000e-01 -3.455858e-01
      vertex -1.031027e+00 2.500000e-01 -2.154414e+00
      vertex -1.081307e+00 2.500000e-01 -2.190945e+00
    endloop
  endfacet
  facet normal 0.000000e+00 1.000000e+00 0.000000e+00
    outer loop
      vertex -1.081307e+00 2.500000e-01 -3.090547e-01
      vertex -1.031027e+00 2.500000e-01 -3.455858e-01
      vertex -1.081307e+00 2.500000e-01 -2.190945e+00
    endloop
  endfacet
  facet normal 0.000000e+00 1.000000e+00 0.000000e+00
    outer loop
      vertex -9.689727e-01 2.500000e-01 -3.455858e-01
      vertex -9.689727e-01 2.500000e-01 -2.154414e+00
      vertex -1.031027e+00 2.500000e-01 -2.154414e+00
    endloop
  endfacet
  facet normal 0.000000e+00 1.000000e+00 0.000000e+00
    outer loop
      vertex -1.031027e+00 2.500000e-01 -3.455858e-01
      vertex -9.689727e-01 2.500000e-01 -3.455858e-01
      vertex -1.031027e+00 2.500000e-01 -2.154414e+00
    endloop
  endfacet
  facet normal 0.000000e+00 1.000000e+00 0.000000e+00
    outer loop
      vertex -9.186935e-01 2.500000e-01 -3.090547e-01
      vertex -9.186935e-01 2.500000e-01 -2.190945e+00
      vertex -9.689727e-01 2.500000e-01 -2.154414e+00
    endloop
  endfacet
  facet normal 0.000000e+00 1.000000e+00 0.000000e+00
    outer loop
      vertex -9.689727e-01 2.500000e-01 -3.455858e-01
      vertex -9.186935e-01 2.500000e-01 -3.090547e-01
      vertex -9.689727e-01 2.500000e-01 -2.154414e+00
    endloop
  endfacet
  facet normal 0.000000e+00 1.000000e+00 0.000000e+00
    outer loop
      vertex -9.186935e-01 2.500000e-01 -3.090547e-01
      vertex -8.995000e-01 2.500000e-01 -2.500000e-01
      vertex -9.186935e-01 2.500000e-01 -2.190945e+00
    endloop
  endfacet
  facet normal 0.000000e+00 1.000000e+00 0.000000e+00
    outer loop
      vertex 8.995000e-01 2.500000e-01 -2.500000e-01
      vertex 8.130654e-02 2.500000e-01 -1.684055e+00
      vertex 1.005000e-01 2.500000e-01 -1.625000e+00
    endloop
  endfacet
  facet normal 0.000000e+00 1.000000e+00 0.000000e+00
    outer loop
      vertex 1.005000e-01 2.500000e-01 -8.750000e-01
      vertex 1.005000e-01 2.500000e-01 -1.625000e+00
      vertex 8.130654e-02 2.500000e-01 -1.565945e+00
    endloop
  endfacet
  facet normal 0.000000e+00 1.000000e+00 0.000000e+00
    outer loop
      vertex 9.186935e-01 2.500000e-01 -1.909453e-01
      vertex 1.005000e-01 2.500000e-01 -1.625000e+00
      vertex 1.005000e-01 2.500000e-01 -8.750000e-01
    endloop
  endfacet
  facet normal 0.000000e+00 1.000000e+00 0.000000e+00
    outer loop
      vertex 9.186935e-01 2.500000e-01 -1.909453e-01
      vertex 8.995000e-01 2.500000e-01 -2.500000e-01
      vertex 1.005000e-01 2.500000e-01 -1.625000e+00
    endloop
  endfacet
  facet normal 0.000000e+00 1.000000e+00 0.000000e+00
    outer loop
      vertex 8.995000e-01 2.500000e-01 -2.250000e+00
      vertex 3.102729e-02 2.500000e-01 -1.720586e+00
      vertex 8.130654e-02 2.500000e-01 -1.684055e+00
    endloop
  endfacet
  facet normal 0.000000e+00 1.000000e+00 0.000000e+00
    outer loop
      vertex 8.995000e-01 2.500000e-01 -2.500000e-01
      vertex 8.995000e-01 2.500000e-01 -2.250000e+00
      vertex 8.130654e-02 2.500000e-01 -1.684055e+00
    endloop
  endfacet
  facet normal 0.000000e+00 1.000000e+00 0.000000e+00
    outer loop
      vertex -8.130654e-02 2.500000e-01 -9.340547e-01
      vertex -8.130654e-02 2.500000e-01 -1.565945e+00
      vertex -1.005000e-01 2.500000e-01 -1.625000e+00
    endloop
  endfacet
  facet normal 0.000000e+00 1.000000e+00 0.000000e+00
    outer loop
      vertex -1.005000e-01 2.500000e-01 -8.750000e-01
      vertex -8.130654e-02 2.500000e-01 -9.340547e-01
      vertex -1.005000e-01 2.500000e-01 -1.625000e+00
    endloop
  endfacet
  facet normal 0.000000e+00 1.000000e+00 0.000000e+00
    outer loop
      vertex -3.102729e-02 2.500000e-01 -9.705858e-01
      vertex -3.102729e-02 2.500000e-01 -1.529414e+00
      vertex -8.130654e-02 2.500000e-01 -1.565945e+00
    endloop
  endfacet
  facet normal 0.000000e+00 1.000000e+00 0.000000e+00
    outer loop
      vertex -8.130654e-02 2.500000e-01 -9.340547e-01
      vertex -3.102729e-02 2.500000e-01 -9.705858e-01
      vertex -8.130654e-02 2.500000e-01 -1.565945e+00
    endloop
  endfacet
  facet normal 0.000000e+00 1.000000e+00 0.000000e+00
    outer loop
      vertex 3.102729e-02 2.500000e-01 -9.705858e-01
      vertex 3.102729e-02 2.500000e-01 -1.529414e+00
      vertex -3.102729e-02 2.500000e-01 -1.529414e+00
    endloop
  endfacet
  facet normal 0.000000e+00 1.000000e+00 0.000000e+00
    outer loop
      vertex -3.102729e-02 2.500000e-01 -9.705858e-01
      vertex 3.102729e-02 2.500000e-01 -9.705858e-01
      vertex -3.102729e-02 2.500000e-01 -1.529414e+00
    endloop
  endfacet
  facet normal 0.000000e+00 1.000000e+00 0.000000e+00
    outer loop
      vertex 8.130654e-02 2.500000e-01 -9.340547e-01
      vertex 8.130654e-02 2.500000e-01 -1.565945e+00
      vertex 3.102729e-02 2.500000e-01 -1.529414e+00
    endloop
  endfacet
  facet normal 0.000000e+00 1.000000e+00 0.000000e+00
    outer loop
      vertex 3.102729e-02 2.500000e-01 -9.705858e-01
      vertex 8.130654e-02 2.500000e-01 -9.340547e-01
      vertex 3.102729e-02 2.500000e-01 -1.529414e+00
    endloop
  endfacet
  facet normal 0.000000e+00 1.000000e+00 0.000000e+00
    outer loop
      vertex 8.130654e-02 2.500000e-01 -9.340547e-01
      vertex 1.005000e-01 2.500000e-01 -8.750000e-01
      vertex 8.130654e-02 2.500000e-01 -1.565945e+00
    endloop
  endfacet
  facet normal 0.000000e+00 1.000000e+00 0.000000e+00
    outer loop
      vertex 1.100500e+00 2.500000e-01 -2.500000e-01
      vertex 1.100500e+00 2.500000e-01 -2.250000e+00
      vertex 1.081307e+00 2.500000e-01 -2.190945e+00
    endloop
  endfacet
  facet normal 0.000000e+00 1.000000e+00 0.000000e+00
    outer loop
      vertex 9.186935e-01 2.500000e-01 -3.090547e-01
      vertex 9.186935e-01 2.500000e-01 -2.190945e+00
      vertex 8.995000e-01 2.500000e-01 -2.250000e+00
    endloop
  endfacet
  facet normal 0.000000e+00 1.000000e+00 0.000000e+00
    outer loop
      vertex 8.995000e-01 2.500000e-01 -2.500000e-01
      vertex 9.186935e-01 2.500000e-01 -3.090547e-01
      vertex 8.995000e-01 2.500000e-01 -2.250000e+00
    endloop
  endfacet
  facet normal 0.000000e+00 1.000000e+00 0.000000e+00
    outer loop
      vertex 9.689727e-01 2.500000e-01 -3.455858e-01
      vertex 9.689727e-01 2.500000e-01 -2.154414e+00
      vertex 9.186935e-01 2.500000e-01 -2.190945e+00
    endloop
  endfacet
  facet normal 0.000000e+00 1.000000e+00 0.000000e+00
    outer loop
      vertex 9.186935e-01 2.500000e-01 -3.090547e-01
      vertex 9.689727e-01 2.500000e-01 -3.455858e-01
      vertex 9.186935e-01 2.500000e-01 -2.190945e+00
    endloop
  endfacet
  facet normal 0.000000e+00 1.000000e+00 0.000000e+00
    outer loop
      vertex 1.031027e+00 2.500000e-01 -3.455858e-01
      vertex 1.031027e+00 2.500000e-01 -2.154414e+00
      vertex 9.689727e-01 2.500000e-01 -2.154414e+00
    endloop
  endfacet
  facet normal 0.000000e+00 1.000000e+00 0.000000e+00
    outer loop
      vertex 9.689727e-01 2.500000e-01 -3.455858e-01
      vertex 1.031027e+00 2.500000e-01 -3.455858e-01
      vertex 9.689727e-01 2.500000e-01 -2.154414e+00
    endloop
  endfacet
  facet normal 0.000000e+00 1.000000e+00 0.000000e+00
    outer loop
      vertex 1.081307e+00 2.500000e-01 -3.090547e-01
      vertex 1.081307e+00 2.500000e-01 -2.190945e+00
      vertex 1.031027e+00 2.500000e-01 -2.154414e+00
    endloop
  endfacet
  facet normal 0.000000e+00 1.000000e+00 0.000000e+00
    outer loop
      vertex 1.031027e+00 2.500000e-01 -3.455858e-01
      vertex 1.081307e+00 2.500000e-01 -3.090547e-01
      vertex 1.031027e+00 2.500000e-01 -2.154414e+00
    endloop
  endfacet
  facet normal 0.000000e+00 1.000000e+00 0.000000e+00
    outer loop
      vertex 1.081307e+00 2.500000e-01 -3.090547e-01
      vertex 1.100500e+00 2.500000e-01 -2.500000e-01
      vertex 1.081307e+00 2.500000e-01 -2.190945e+00
    endloop
  endfacet
  facet normal 0.000000e+00 1.000000e+00 0.000000e+00
    outer loop
      vertex 9.186935e-01 2.500000e-01 -1.909453e-01
      vertex 1.005000e-01 2.500000e-01 -8.750000e-01
      vertex 8.130654e-02 2.500000e-01 -8.159453e-01
    endloop
  endfacet
  facet normal 0.000000e+00 1.000000e+00 0.000000e+00
    outer loop
      vertex -8.995000e-01 2.500000e-01 -2.500000e-01
      vertex -3.102729e-02 2.500000e-01 -7.794142e-01
      vertex -8.130654e-02 2.500000e-01 -8.159453e-01
    endloop
  endfacet
  facet normal 0.000000e+00 1.000000e+00 0.000000e+00
    outer loop
      vertex 9.689727e-01 2.500000e-01 -1.544142e-01
      vertex 3.102729e-02 2.500000e-01 -7.794142e-01
      vertex -3.102729e-02 2.500000e-01 -7.794142e-01
    endloop
  endfacet
  facet normal 0.000000e+00 1.000000e+00 0.000000e+00
    outer loop
      vertex 9.689727e-01 2.500000e-01 -1.544142e-01
      vertex -3.102729e-02 2.500000e-01 -7.794142e-01
      vertex -8.995000e-01 2.500000e-01 -2.500000e-01
    endloop
  endfacet
  facet normal 0.000000e+00 1.000000e+00 0.000000e+00
    outer loop
      vertex 9.186935e-01 2.500000e-01 -1.909453e-01
      vertex 8.130654e-02 2.500000e-01 -8.159453e-01
      vertex 3.102729e-02 2.500000e-01 -7.794142e-01
    endloop
  endfacet
  facet normal 0.000000e+00 1.000000e+00 0.000000e+00
    outer loop
      vertex 9.689727e-01 2.500000e-01 -1.544142e-01
      vertex 9.186935e-01 2.500000e-01 -1.909453e-01
      vertex 3.102729e-02 2.500000e-01 -7.794142e-01
    endloop
  endfacet
endsolid CONNECTOR_1
