solid TENSIONER
  facet normal 0.000000e+00 -1.000000e+00 0.000000e+00
    outer loop
      vertex 1.975000e-01 0.000000e+00 -4.300000e-01
      vertex 2.450000e-01 0.000000e+00 -1.180000e+00
      vertex 2.450000e-01 0.000000e+00 -7.000000e-02
    endloop
  endfacet
  facet normal 1.000000e+00 0.000000e+00 0.000000e+00
    outer loop
      vertex 2.450000e-01 1.750000e-01 -7.000000e-02
      vertex 2.450000e-01 0.000000e+00 -7.000000e-02
      vertex 2.450000e-01 0.000000e+00 -1.180000e+00
    endloop
  endfacet
  facet normal 0.000000e+00 -1.000000e+00 0.000000e+00
    outer loop
      vertex 2.356168e-01 0.000000e+00 -3.499528e-02
      vertex 0.000000e+00 0.000000e+00 -7.000000e-02
      vertex 2.450000e-01 0.000000e+00 -7.000000e-02
    endloop
  endfacet
  facet normal 0.000000e+00 -1.000000e+00 0.000000e+00
    outer loop
      vertex 8.249528e-02 0.000000e+00 -1.593832e-01
      vertex 2.450000e-01 0.000000e+00 -7.000000e-02
      vertex 0.000000e+00 0.000000e+00 -7.000000e-02
    endloop
  endfacet
  facet normal 9.659004e-01 1.026614e-17 2.589138e-01
    outer loop
      vertex 2.356168e-01 1.750000e-01 -3.499528e-02
      vertex 2.356168e-01 0.000000e+00 -3.499528e-02
      vertex 2.450000e-01 0.000000e+00 -7.000000e-02
    endloop
  endfacet
  facet normal 0.000000e+00 -1.000000e+00 0.000000e+00
    outer loop
      vertex 1.881168e-01 0.000000e+00 -1.849953e-01
      vertex 1.975000e-01 0.000000e+00 -2.200000e-01
      vertex 2.450000e-01 0.000000e+00 -7.000000e-02
    endloop
  endfacet
  facet normal 0.000000e+00 -1.000000e+00 0.000000e+00
    outer loop
      vertex 1.975000e-01 0.000000e+00 -4.300000e-01
      vertex 2.450000e-01 0.000000e+00 -7.000000e-02
      vertex 1.975000e-01 0.000000e+00 -2.200000e-01
    endloop
  endfacet
  facet normal 0.000000e+00 -1.000000e+00 0.000000e+00
    outer loop
      vertex 1.625047e-01 0.000000e+00 -1.593832e-01
      vertex 1.881168e-01 0.000000e+00 -1.849953e-01
      vertex 2.450000e-01 0.000000e+00 -7.000000e-02
    endloop
  endfacet
  facet normal 0.000000e+00 -1.000000e+00 0.000000e+00
    outer loop
      vertex 1.275000e-01 0.000000e+00 -1.500000e-01
      vertex 1.625047e-01 0.000000e+00 -1.593832e-01
      vertex 2.450000e-01 0.000000e+00 -7.000000e-02
    endloop
  endfacet
  facet normal 0.000000e+00 -1.000000e+00 0.000000e+00
    outer loop
      vertex 1.175000e-01 0.000000e+00 -1.500000e-01
      vertex 1.275000e-01 0.000000e+00 -1.500000e-01
      vertex 2.450000e-01 0.000000e+00 -7.000000e-02
    endloop
  endfacet
  facet normal 0.000000e+00 -1.000000e+00 0.000000e+00
    outer loop
      vertex 8.249528e-02 0.000000e+00 -1.593832e-01
      vertex 1.175000e-01 0.000000e+00 -1.500000e-01
      vertex 2.450000e-01 0.000000e+00 -7.000000e-02
    endloop
  endfacet
  facet normal 9.659004e-01 0.000000e+00 2.589138e-01
    outer loop
      vertex 2.356168e-01 1.750000e-01 -3.499528e-02
      vertex 2.450000e-01 0.000000e+00 -7.000000e-02
      vertex 2.450000e-01 1.750000e-01 -7.000000e-02
    endloop
  endfacet
  facet normal 0.000000e+00 -1.000000e+00 0.000000e+00
    outer loop
      vertex 9.383166e-03 0.000000e+00 -1.215005e+00
      vertex 2.356168e-01 0.000000e+00 -1.215005e+00
      vertex 2.450000e-01 0.000000e+00 -1.180000e+00
    endloop
  endfacet
  facet normal 9.659004e-01 0.000000e+00 -2.589138e-01
    outer loop
      vertex 2.450000e-01 1.750000e-01 -1.180000e+00
      vertex 2.450000e-01 0.000000e+00 -1.180000e+00
      vertex 2.356168e-01 0.000000e+00 -1.215005e+00
    endloop
  endfacet
  facet normal 0.000000e+00 -1.000000e+00 0.000000e+00
    outer loop
      vertex 0.000000e+00 0.000000e+00 -1.180000e+00
      vertex 9.383166e-03 0.000000e+00 -1.215005e+00
      vertex 2.450000e-01 0.000000e+00 -1.180000e+00
    endloop
  endfacet
  facet normal 0.000000e+00 -1.000000e+00 0.000000e+00
    outer loop
      vertex 1.975000e-01 0.000000e+00 -4.300000e-01
      vertex 0.000000e+00 0.000000e+00 -1.180000e+00
      vertex 2.450000e-01 0.000000e+00 -1.180000e+00
    endloop
  endfacet
  facet normal 1.000000e+00 0.000000e+00 0.000000e+00
    outer loop
      vertex 2.450000e-01 1.750000e-01 -7.000000e-02
      vertex 2.450000e-01 0.000000e+00 -1.180000e+00
      vertex 2.450000e-01 1.750000e-01 -1.180000e+00
    endloop
  endfacet
  facet normal 0.000000e+00 -1.000000e+00 0.000000e+00
    outer loop
      vertex 3.499528e-02 0.000000e+00 -1.240617e+00
      vertex 2.100047e-01 0.000000e+00 -1.240617e+00
      vertex 2.356168e-01 0.000000e+00 -1.215005e+00
    endloop
  endfacet
  facet normal 7.071068e-01 8.971957e-16 -7.071068e-01
    outer loop
      vertex 2.356168e-01 1.750000e-01 -1.215005e+00
      vertex 2.356168e-01 0.000000e+00 -1.215005e+00
      vertex 2.100047e-01 0.000000e+00 -1.240617e+00
    endloop
  endfacet
  facet normal 0.000000e+00 -1.000000e+00 0.000000e+00
    outer loop
      vertex 9.383166e-03 0.000000e+00 -1.215005e+00
      vertex 3.499528e-02 0.000000e+00 -1.240617e+00
      vertex 2.356168e-01 0.000000e+00 -1.215005e+00
    endloop
  endfacet
  facet normal 9.659004e-01 3.248116e-16 -2.589138e-01
    outer loop
      vertex 2.450000e-01 1.750000e-01 -1.180000e+00
      vertex 2.356168e-01 0.000000e+00 -1.215005e+00
      vertex 2.356168e-01 1.750000e-01 -1.215005e+00
    endloop
  endfacet
  facet normal 0.000000e+00 -1.000000e+00 0.000000e+00
    outer loop
      vertex 7.000000e-02 0.000000e+00 -1.250000e+00
      vertex 1.750000e-01 0.000000e+00 -1.250000e+00
      vertex 2.100047e-01 0.000000e+00 -1.240617e+00
    endloop
  endfacet
  facet normal 2.589138e-01 0.000000e+00 -9.659004e-01
    outer loop
      vertex 2.100047e-01 1.750000e-01 -1.240617e+00
      vertex 2.100047e-01 0.000000e+00 -1.240617e+00
      vertex 1.750000e-01 0.000000e+00 -1.250000e+00
    endloop
  endfacet
  facet normal 0.000000e+00 -1.000000e+00 0.000000e+00
    outer loop
      vertex 3.499528e-02 0.000000e+00 -1.240617e+00
      vertex 7.000000e-02 0.000000e+00 -1.250000e+00
      vertex 2.100047e-01 0.000000e+00 -1.240617e+00
    endloop
  endfacet
  facet normal 7.071068e-01 0.000000e+00 -7.071068e-01
    outer loop
      vertex 2.356168e-01 1.750000e-01 -1.215005e+00
      vertex 2.100047e-01 0.000000e+00 -1.240617e+00
      vertex 2.100047e-01 1.750000e-01 -1.240617e+00
    endloop
  endfacet
  facet normal 0.000000e+00 0.000000e+00 -1.000000e+00
    outer loop
      vertex 1.092396e-01 4.518248e-02 -1.250000e+00
      vertex 1.750000e-01 0.000000e+00 -1.250000e+00
      vertex 7.000000e-02 0.000000e+00 -1.250000e+00
    endloop
  endfacet
  facet normal 2.589138e-01 0.000000e+00 -9.659004e-01
    outer loop
      vertex 2.100047e-01 1.750000e-01 -1.240617e+00
      vertex 1.750000e-01 0.000000e+00 -1.250000e+00
      vertex 1.750000e-01 1.750000e-01 -1.250000e+00
    endloop
  endfacet
  facet normal 0.000000e+00 0.000000e+00 -1.000000e+00
    outer loop
      vertex 1.675000e-01 8.750000e-02 -1.250000e+00
      vertex 1.750000e-01 1.750000e-01 -1.250000e+00
      vertex 1.750000e-01 0.000000e+00 -1.250000e+00
    endloop
  endfacet
  facet normal 0.000000e+00 0.000000e+00 -1.000000e+00
    outer loop
      vertex 1.589956e-01 6.134139e-02 -1.250000e+00
      vertex 1.675000e-01 8.750000e-02 -1.250000e+00
      vertex 1.750000e-01 0.000000e+00 -1.250000e+00
    endloop
  endfacet
  facet normal 0.000000e+00 0.000000e+00 -1.000000e+00
    outer loop
      vertex 1.367604e-01 4.518248e-02 -1.250000e+00
      vertex 1.589956e-01 6.134139e-02 -1.250000e+00
      vertex 1.750000e-01 0.000000e+00 -1.250000e+00
    endloop
  endfacet
  facet normal 0.000000e+00 0.000000e+00 -1.000000e+00
    outer loop
      vertex 1.092396e-01 4.518248e-02 -1.250000e+00
      vertex 1.367604e-01 4.518248e-02 -1.250000e+00
      vertex 1.750000e-01 0.000000e+00 -1.250000e+00
    endloop
  endfacet
  facet normal -2.589138e-01 0.000000e+00 -9.659004e-01
    outer loop
      vertex 7.000000e-02 1.750000e-01 -1.250000e+00
      vertex 7.000000e-02 0.000000e+00 -1.250000e+00
      vertex 3.499528e-02 0.000000e+00 -1.240617e+00
    endloop
  endfacet
  facet normal 0.000000e+00 0.000000e+00 -1.000000e+00
    outer loop
      vertex 7.850000e-02 8.750000e-02 -1.250000e+00
      vertex 7.000000e-02 0.000000e+00 -1.250000e+00
      vertex 7.000000e-02 1.750000e-01 -1.250000e+00
    endloop
  endfacet
  facet normal 0.000000e+00 0.000000e+00 -1.000000e+00
    outer loop
      vertex 8.700435e-02 6.134139e-02 -1.250000e+00
      vertex 1.092396e-01 4.518248e-02 -1.250000e+00
      vertex 7.000000e-02 0.000000e+00 -1.250000e+00
    endloop
  endfacet
  facet normal 0.000000e+00 0.000000e+00 -1.000000e+00
    outer loop
      vertex 7.850000e-02 8.750000e-02 -1.250000e+00
      vertex 8.700435e-02 6.134139e-02 -1.250000e+00
      vertex 7.000000e-02 0.000000e+00 -1.250000e+00
    endloop
  endfacet
  facet normal -7.071068e-01 -2.803737e-16 -7.071068e-01
    outer loop
      vertex 3.499528e-02 1.750000e-01 -1.240617e+00
      vertex 3.499528e-02 0.000000e+00 -1.240617e+00
      vertex 9.383166e-03 0.000000e+00 -1.215005e+00
    endloop
  endfacet
  facet normal -2.589138e-01 -1.025721e-16 -9.659004e-01
    outer loop
      vertex 7.000000e-02 1.750000e-01 -1.250000e+00
      vertex 3.499528e-02 0.000000e+00 -1.240617e+00
      vertex 3.499528e-02 1.750000e-01 -1.240617e+00
    endloop
  endfacet
  facet normal -9.659004e-01 -3.542634e-16 -2.589138e-01
    outer loop
      vertex 9.383166e-03 1.750000e-01 -1.215005e+00
      vertex 9.383166e-03 0.000000e+00 -1.215005e+00
      vertex 0.000000e+00 0.000000e+00 -1.180000e+00
    endloop
  endfacet
  facet normal -7.071068e-01 -2.736729e-16 -7.071068e-01
    outer loop
      vertex 3.499528e-02 1.750000e-01 -1.240617e+00
      vertex 9.383166e-03 0.000000e+00 -1.215005e+00
      vertex 9.383166e-03 1.750000e-01 -1.215005e+00
    endloop
  endfacet
  facet normal 0.000000e+00 -1.000000e+00 0.000000e+00
    outer loop
      vertex 4.750000e-02 0.000000e+00 -2.200000e-01
      vertex 0.000000e+00 0.000000e+00 -7.000000e-02
      vertex 0.000000e+00 0.000000e+00 -1.180000e+00
    endloop
  endfacet
  facet normal -1.000000e+00 0.000000e+00 0.000000e+00
    outer loop
      vertex 0.000000e+00 1.750000e-01 -1.180000e+00
      vertex 0.000000e+00 0.000000e+00 -1.180000e+00
      vertex 0.000000e+00 0.000000e+00 -7.000000e-02
    endloop
  endfacet
  facet normal 0.000000e+00 -1.000000e+00 0.000000e+00
    outer loop
      vertex 4.750000e-02 0.000000e+00 -4.300000e-01
      vertex 4.750000e-02 0.000000e+00 -2.200000e-01
      vertex 0.000000e+00 0.000000e+00 -1.180000e+00
    endloop
  endfacet
  facet normal 0.000000e+00 -1.000000e+00 0.000000e+00
    outer loop
      vertex 5.688317e-02 0.000000e+00 -4.650047e-01
      vertex 4.750000e-02 0.000000e+00 -4.300000e-01
      vertex 0.000000e+00 0.000000e+00 -1.180000e+00
    endloop
  endfacet
  facet normal 0.000000e+00 -1.000000e+00 0.000000e+00
    outer loop
      vertex 8.249528e-02 0.000000e+00 -4.906168e-01
      vertex 5.688317e-02 0.000000e+00 -4.650047e-01
      vertex 0.000000e+00 0.000000e+00 -1.180000e+00
    endloop
  endfacet
  facet normal 0.000000e+00 -1.000000e+00 0.000000e+00
    outer loop
      vertex 1.175000e-01 0.000000e+00 -5.000000e-01
      vertex 8.249528e-02 0.000000e+00 -4.906168e-01
      vertex 0.000000e+00 0.000000e+00 -1.180000e+00
    endloop
  endfacet
  facet normal 0.000000e+00 -1.000000e+00 0.000000e+00
    outer loop
      vertex 1.275000e-01 0.000000e+00 -5.000000e-01
      vertex 1.175000e-01 0.000000e+00 -5.000000e-01
      vertex 0.000000e+00 0.000000e+00 -1.180000e+00
    endloop
  endfacet
  facet normal 0.000000e+00 -1.000000e+00 0.000000e+00
    outer loop
      vertex 1.625047e-01 0.000000e+00 -4.906168e-01
      vertex 1.275000e-01 0.000000e+00 -5.000000e-01
      vertex 0.000000e+00 0.000000e+00 -1.180000e+00
    endloop
  endfacet
  facet normal 0.000000e+00 -1.000000e+00 0.000000e+00
    outer loop
      vertex 1.881168e-01 0.000000e+00 -4.650047e-01
      vertex 1.625047e-01 0.000000e+00 -4.906168e-01
      vertex 0.000000e+00 0.000000e+00 -1.180000e+00
    endloop
  endfacet
  facet normal 0.000000e+00 -1.000000e+00 0.000000e+00
    outer loop
      vertex 1.975000e-01 0.000000e+00 -4.300000e-01
      vertex 1.881168e-01 0.000000e+00 -4.650047e-01
      vertex 0.000000e+00 0.000000e+00 -1.180000e+00
    endloop
  endfacet
  facet normal -9.659004e-01 3.333593e-16 -2.589138e-01
    outer loop
      vertex 9.383166e-03 1.750000e-01 -1.215005e+00
      vertex 0.000000e+00 0.000000e+00 -1.180000e+00
      vertex 0.000000e+00 1.750000e-01 -1.180000e+00
    endloop
  endfacet
  facet normal 0.000000e+00 -1.000000e+00 0.000000e+00
    outer loop
      vertex 2.356168e-01 0.000000e+00 -3.499528e-02
      vertex 9.383166e-03 0.000000e+00 -3.499528e-02
      vertex 0.000000e+00 0.000000e+00 -7.000000e-02
    endloop
  endfacet
  facet normal -9.659004e-01 0.000000e+00 2.589138e-01
    outer loop
      vertex 0.000000e+00 1.750000e-01 -7.000000e-02
      vertex 0.000000e+00 0.000000e+00 -7.000000e-02
      vertex 9.383166e-03 0.000000e+00 -3.499528e-02
    endloop
  endfacet
  facet normal 0.000000e+00 -1.000000e+00 0.000000e+00
    outer loop
      vertex 5.688317e-02 0.000000e+00 -1.849953e-01
      vertex 8.249528e-02 0.000000e+00 -1.593832e-01
      vertex 0.000000e+00 0.000000e+00 -7.000000e-02
    endloop
  endfacet
  facet normal 0.000000e+00 -1.000000e+00 0.000000e+00
    outer loop
      vertex 4.750000e-02 0.000000e+00 -2.200000e-01
      vertex 5.688317e-02 0.000000e+00 -1.849953e-01
      vertex 0.000000e+00 0.000000e+00 -7.000000e-02
    endloop
  endfacet
  facet normal -1.000000e+00 0.000000e+00 0.000000e+00
    outer loop
      vertex 0.000000e+00 1.750000e-01 -1.180000e+00
      vertex 0.000000e+00 0.000000e+00 -7.000000e-02
      vertex 0.000000e+00 1.750000e-01 -7.000000e-02
    endloop
  endfacet
  facet normal 0.000000e+00 -1.000000e+00 0.000000e+00
    outer loop
      vertex 2.100047e-01 0.000000e+00 -9.383166e-03
      vertex 3.499528e-02 0.000000e+00 -9.383166e-03
      vertex 9.383166e-03 0.000000e+00 -3.499528e-02
    endloop
  endfacet
  facet normal -7.071068e-01 -1.401868e-17 7.071068e-01
    outer loop
      vertex 9.383166e-03 1.750000e-01 -3.499528e-02
      vertex 9.383166e-03 0.000000e+00 -3.499528e-02
      vertex 3.499528e-02 0.000000e+00 -9.383166e-03
    endloop
  endfacet
  facet normal 0.000000e+00 -1.000000e+00 0.000000e+00
    outer loop
      vertex 2.356168e-01 0.000000e+00 -3.499528e-02
      vertex 2.100047e-01 0.000000e+00 -9.383166e-03
      vertex 9.383166e-03 0.000000e+00 -3.499528e-02
    endloop
  endfacet
  facet normal -9.659004e-01 -1.709535e-17 2.589138e-01
    outer loop
      vertex 0.000000e+00 1.750000e-01 -7.000000e-02
      vertex 9.383166e-03 0.000000e+00 -3.499528e-02
      vertex 9.383166e-03 1.750000e-01 -3.499528e-02
    endloop
  endfacet
  facet normal 0.000000e+00 -1.000000e+00 0.000000e+00
    outer loop
      vertex 1.750000e-01 0.000000e+00 0.000000e+00
      vertex 7.000000e-02 0.000000e+00 0.000000e+00
      vertex 3.499528e-02 0.000000e+00 -9.383166e-03
    endloop
  endfacet
  facet normal -2.589138e-01 1.984083e-17 9.659004e-01
    outer loop
      vertex 3.499528e-02 1.750000e-01 -9.383166e-03
      vertex 3.499528e-02 0.000000e+00 -9.383166e-03
      vertex 7.000000e-02 0.000000e+00 0.000000e+00
    endloop
  endfacet
  facet normal 0.000000e+00 -1.000000e+00 0.000000e+00
    outer loop
      vertex 2.100047e-01 0.000000e+00 -9.383166e-03
      vertex 1.750000e-01 0.000000e+00 0.000000e+00
      vertex 3.499528e-02 0.000000e+00 -9.383166e-03
    endloop
  endfacet
  facet normal -7.071068e-01 1.710456e-17 7.071068e-01
    outer loop
      vertex 9.383166e-03 1.750000e-01 -3.499528e-02
      vertex 3.499528e-02 0.000000e+00 -9.383166e-03
      vertex 3.499528e-02 1.750000e-01 -9.383166e-03
    endloop
  endfacet
  facet normal 0.000000e+00 0.000000e+00 1.000000e+00
    outer loop
      vertex 1.550000e-01 2.500000e-02 0.000000e+00
      vertex 7.000000e-02 0.000000e+00 0.000000e+00
      vertex 1.750000e-01 0.000000e+00 0.000000e+00
    endloop
  endfacet
  facet normal 0.000000e+00 0.000000e+00 1.000000e+00
    outer loop
      vertex 7.000000e-02 1.750000e-01 0.000000e+00
      vertex 7.000000e-02 0.000000e+00 0.000000e+00
      vertex 9.000000e-02 1.750000e-01 0.000000e+00
    endloop
  endfacet
  facet normal 0.000000e+00 0.000000e+00 1.000000e+00
    outer loop
      vertex 9.000000e-02 2.500000e-02 0.000000e+00
      vertex 9.000000e-02 1.750000e-01 0.000000e+00
      vertex 7.000000e-02 0.000000e+00 0.000000e+00
    endloop
  endfacet
  facet normal -2.589138e-01 0.000000e+00 9.659004e-01
    outer loop
      vertex 3.499528e-02 1.750000e-01 -9.383166e-03
      vertex 7.000000e-02 0.000000e+00 0.000000e+00
      vertex 7.000000e-02 1.750000e-01 0.000000e+00
    endloop
  endfacet
  facet normal 0.000000e+00 0.000000e+00 1.000000e+00
    outer loop
      vertex 1.550000e-01 2.500000e-02 0.000000e+00
      vertex 9.000000e-02 2.500000e-02 0.000000e+00
      vertex 7.000000e-02 0.000000e+00 0.000000e+00
    endloop
  endfacet
  facet normal 2.589138e-01 0.000000e+00 9.659004e-01
    outer loop
      vertex 1.750000e-01 1.750000e-01 0.000000e+00
      vertex 1.750000e-01 0.000000e+00 0.000000e+00
      vertex 2.100047e-01 0.000000e+00 -9.383166e-03
    endloop
  endfacet
  facet normal 0.000000e+00 0.000000e+00 1.000000e+00
    outer loop
      vertex 1.550000e-01 2.500000e-02 0.000000e+00
      vertex 1.750000e-01 0.000000e+00 0.000000e+00
      vertex 1.750000e-01 1.750000e-01 0.000000e+00
    endloop
  endfacet
  facet normal 7.071068e-01 -1.401868e-17 7.071068e-01
    outer loop
      vertex 2.100047e-01 1.750000e-01 -9.383166e-03
      vertex 2.100047e-01 0.000000e+00 -9.383166e-03
      vertex 2.356168e-01 0.000000e+00 -3.499528e-02
    endloop
  endfacet
  facet normal 2.589138e-01 -1.709535e-17 9.659004e-01
    outer loop
      vertex 1.750000e-01 1.750000e-01 0.000000e+00
      vertex 2.100047e-01 0.000000e+00 -9.383166e-03
      vertex 2.100047e-01 1.750000e-01 -9.383166e-03
    endloop
  endfacet
  facet normal 7.071068e-01 3.420912e-17 7.071068e-01
    outer loop
      vertex 2.100047e-01 1.750000e-01 -9.383166e-03
      vertex 2.356168e-01 0.000000e+00 -3.499528e-02
      vertex 2.356168e-01 1.750000e-01 -3.499528e-02
    endloop
  endfacet
  facet normal -9.659004e-01 4.106457e-17 -2.589138e-01
    outer loop
      vertex 1.975000e-01 1.750000e-01 -2.200000e-01
      vertex 1.975000e-01 0.000000e+00 -2.200000e-01
      vertex 1.881168e-01 0.000000e+00 -1.849953e-01
    endloop
  endfacet
  facet normal -1.000000e+00 0.000000e+00 0.000000e+00
    outer loop
      vertex 1.975000e-01 1.750000e-01 -4.300000e-01
      vertex 1.975000e-01 0.000000e+00 -4.300000e-01
      vertex 1.975000e-01 0.000000e+00 -2.200000e-01
    endloop
  endfacet
  facet normal -1.000000e+00 0.000000e+00 0.000000e+00
    outer loop
      vertex 1.975000e-01 1.750000e-01 -4.300000e-01
      vertex 1.975000e-01 0.000000e+00 -2.200000e-01
      vertex 1.975000e-01 1.750000e-01 -2.200000e-01
    endloop
  endfacet
  facet normal -7.070961e-01 5.508188e-03 -7.070961e-01
    outer loop
      vertex 1.859165e-01 1.750000e-01 -1.814317e-01
      vertex 1.881168e-01 0.000000e+00 -1.849953e-01
      vertex 1.625047e-01 0.000000e+00 -1.593832e-01
    endloop
  endfacet
  facet normal -9.057949e-01 -2.760825e-03 -4.237075e-01
    outer loop
      vertex 1.945394e-01 1.750000e-01 -1.998655e-01
      vertex 1.881168e-01 0.000000e+00 -1.849953e-01
      vertex 1.859165e-01 1.750000e-01 -1.814317e-01
    endloop
  endfacet
  facet normal -9.890777e-01 2.394102e-02 -1.454376e-01
    outer loop
      vertex 1.975000e-01 1.750000e-01 -2.200000e-01
      vertex 1.881168e-01 0.000000e+00 -1.849953e-01
      vertex 1.945394e-01 1.750000e-01 -1.998655e-01
    endloop
  endfacet
  facet normal -2.583283e-01 6.720800e-02 -9.637165e-01
    outer loop
      vertex 1.550000e-01 2.500000e-02 -1.556280e-01
      vertex 1.625047e-01 0.000000e+00 -1.593832e-01
      vertex 1.275000e-01 0.000000e+00 -1.500000e-01
    endloop
  endfacet
  facet normal -7.453961e-01 1.575491e-02 -6.664356e-01
    outer loop
      vertex 1.859165e-01 1.750000e-01 -1.814317e-01
      vertex 1.625047e-01 0.000000e+00 -1.593832e-01
      vertex 1.723523e-01 1.750000e-01 -1.662604e-01
    endloop
  endfacet
  facet normal -4.693981e-01 -8.284688e-03 -8.829478e-01
    outer loop
      vertex 1.550000e-01 2.500000e-02 -1.556280e-01
      vertex 1.723523e-01 1.750000e-01 -1.662604e-01
      vertex 1.625047e-01 0.000000e+00 -1.593832e-01
    endloop
  endfacet
  facet normal 0.000000e+00 0.000000e+00 -1.000000e+00
    outer loop
      vertex 1.175000e-01 2.500000e-02 -1.500000e-01
      vertex 1.275000e-01 0.000000e+00 -1.500000e-01
      vertex 1.175000e-01 0.000000e+00 -1.500000e-01
    endloop
  endfacet
  facet normal 0.000000e+00 0.000000e+00 -1.000000e+00
    outer loop
      vertex 1.275000e-01 2.500000e-02 -1.500000e-01
      vertex 1.275000e-01 0.000000e+00 -1.500000e-01
      vertex 1.175000e-01 2.500000e-02 -1.500000e-01
    endloop
  endfacet
  facet normal -1.008189e-01 0.000000e+00 -9.949048e-01
    outer loop
      vertex 1.415482e-01 2.500000e-02 -1.514236e-01
      vertex 1.275000e-01 0.000000e+00 -1.500000e-01
      vertex 1.275000e-01 2.500000e-02 -1.500000e-01
    endloop
  endfacet
  facet normal -2.964285e-01 1.125667e-01 -9.483981e-01
    outer loop
      vertex 1.550000e-01 2.500000e-02 -1.556280e-01
      vertex 1.275000e-01 0.000000e+00 -1.500000e-01
      vertex 1.415482e-01 2.500000e-02 -1.514236e-01
    endloop
  endfacet
  facet normal 2.589138e-01 0.000000e+00 -9.659004e-01
    outer loop
      vertex 1.175000e-01 2.500000e-02 -1.500000e-01
      vertex 1.175000e-01 0.000000e+00 -1.500000e-01
      vertex 8.249528e-02 0.000000e+00 -1.593832e-01
    endloop
  endfacet
  facet normal 7.070559e-01 1.200110e-02 -7.070559e-01
    outer loop
      vertex 7.264768e-02 1.750000e-01 -1.662604e-01
      vertex 8.249528e-02 0.000000e+00 -1.593832e-01
      vertex 5.688317e-02 0.000000e+00 -1.849953e-01
    endloop
  endfacet
  facet normal 5.224541e-01 -4.108754e-03 -8.526575e-01
    outer loop
      vertex 9.000000e-02 1.750000e-01 -1.556280e-01
      vertex 8.249528e-02 0.000000e+00 -1.593832e-01
      vertex 7.264768e-02 1.750000e-01 -1.662604e-01
    endloop
  endfacet
  facet normal 4.474777e-01 0.000000e+00 -8.942951e-01
    outer loop
      vertex 9.000000e-02 2.500000e-02 -1.556280e-01
      vertex 8.249528e-02 0.000000e+00 -1.593832e-01
      vertex 9.000000e-02 1.750000e-01 -1.556280e-01
    endloop
  endfacet
  facet normal 9.820509e-02 2.262276e-01 -9.691114e-01
    outer loop
      vertex 1.034518e-01 2.500000e-02 -1.514236e-01
      vertex 1.175000e-01 2.500000e-02 -1.500000e-01
      vertex 8.249528e-02 0.000000e+00 -1.593832e-01
    endloop
  endfacet
  facet normal 2.978936e-01 5.373412e-02 -9.530855e-01
    outer loop
      vertex 1.034518e-01 2.500000e-02 -1.514236e-01
      vertex 8.249528e-02 0.000000e+00 -1.593832e-01
      vertex 9.000000e-02 2.500000e-02 -1.556280e-01
    endloop
  endfacet
  facet normal 9.658131e-01 1.344681e-02 -2.588903e-01
    outer loop
      vertex 5.046065e-02 1.750000e-01 -1.998655e-01
      vertex 5.688317e-02 0.000000e+00 -1.849953e-01
      vertex 4.750000e-02 0.000000e+00 -2.200000e-01
    endloop
  endfacet
  facet normal 9.057949e-01 -2.760825e-03 -4.237075e-01
    outer loop
      vertex 5.908350e-02 1.750000e-01 -1.814317e-01
      vertex 5.688317e-02 0.000000e+00 -1.849953e-01
      vertex 5.046065e-02 1.750000e-01 -1.998655e-01
    endloop
  endfacet
  facet normal 7.454821e-01 4.199135e-03 -6.665125e-01
    outer loop
      vertex 7.264768e-02 1.750000e-01 -1.662604e-01
      vertex 5.688317e-02 0.000000e+00 -1.849953e-01
      vertex 5.908350e-02 1.750000e-01 -1.814317e-01
    endloop
  endfacet
  facet normal 1.000000e+00 0.000000e+00 0.000000e+00
    outer loop
      vertex 4.750000e-02 1.750000e-01 -2.200000e-01
      vertex 4.750000e-02 0.000000e+00 -2.200000e-01
      vertex 4.750000e-02 0.000000e+00 -4.300000e-01
    endloop
  endfacet
  facet normal 9.893613e-01 0.000000e+00 -1.454793e-01
    outer loop
      vertex 5.046065e-02 1.750000e-01 -1.998655e-01
      vertex 4.750000e-02 0.000000e+00 -2.200000e-01
      vertex 4.750000e-02 1.750000e-01 -2.200000e-01
    endloop
  endfacet
  facet normal 9.659004e-01 0.000000e+00 2.589138e-01
    outer loop
      vertex 4.750000e-02 1.750000e-01 -4.300000e-01
      vertex 4.750000e-02 0.000000e+00 -4.300000e-01
      vertex 5.688317e-02 0.000000e+00 -4.650047e-01
    endloop
  endfacet
  facet normal 1.000000e+00 0.000000e+00 0.000000e+00
    outer loop
      vertex 4.750000e-02 1.750000e-01 -2.200000e-01
      vertex 4.750000e-02 0.000000e+00 -4.300000e-01
      vertex 4.750000e-02 1.750000e-01 -4.300000e-01
    endloop
  endfacet
  facet normal 7.071068e-01 -1.682242e-16 7.071068e-01
    outer loop
      vertex 5.688317e-02 1.750000e-01 -4.650047e-01
      vertex 5.688317e-02 0.000000e+00 -4.650047e-01
      vertex 8.249528e-02 0.000000e+00 -4.906168e-01
    endloop
  endfacet
  facet normal 9.659004e-01 0.000000e+00 2.589138e-01
    outer loop
      vertex 4.750000e-02 1.750000e-01 -4.300000e-01
      vertex 5.688317e-02 0.000000e+00 -4.650047e-01
      vertex 5.688317e-02 1.750000e-01 -4.650047e-01
    endloop
  endfacet
  facet normal 2.589117e-01 3.975786e-03 9.658928e-01
    outer loop
      vertex 8.341132e-02 6.717169e-02 -4.911389e-01
      vertex 8.249528e-02 0.000000e+00 -4.906168e-01
      vertex 1.175000e-01 0.000000e+00 -5.000000e-01
    endloop
  endfacet
  facet normal 7.603767e-01 1.625972e-02 6.492788e-01
    outer loop
      vertex 7.850000e-02 8.750000e-02 -4.881292e-01
      vertex 5.688317e-02 1.750000e-01 -4.650047e-01
      vertex 8.249528e-02 0.000000e+00 -4.906168e-01
    endloop
  endfacet
  facet normal 5.210806e-01 -4.729307e-04 8.535074e-01
    outer loop
      vertex 7.850000e-02 8.750000e-02 -4.881292e-01
      vertex 8.249528e-02 0.000000e+00 -4.906168e-01
      vertex 8.341132e-02 6.717169e-02 -4.911389e-01
    endloop
  endfacet
  facet normal 0.000000e+00 0.000000e+00 1.000000e+00
    outer loop
      vertex 1.275000e-01 4.322811e-02 -5.000000e-01
      vertex 1.175000e-01 0.000000e+00 -5.000000e-01
      vertex 1.275000e-01 0.000000e+00 -5.000000e-01
    endloop
  endfacet
  facet normal 0.000000e+00 0.000000e+00 1.000000e+00
    outer loop
      vertex 1.224904e-01 4.300292e-02 -5.000000e-01
      vertex 1.175000e-01 0.000000e+00 -5.000000e-01
      vertex 1.275000e-01 4.322811e-02 -5.000000e-01
    endloop
  endfacet
  facet normal 0.000000e+00 0.000000e+00 1.000000e+00
    outer loop
      vertex 1.224904e-01 4.300292e-02 -5.000000e-01
      vertex 1.175000e-01 4.334120e-02 -5.000000e-01
      vertex 1.175000e-01 0.000000e+00 -5.000000e-01
    endloop
  endfacet
  facet normal 1.448422e-01 0.000000e+00 9.894548e-01
    outer loop
      vertex 9.743593e-02 5.107453e-02 -4.970629e-01
      vertex 1.175000e-01 0.000000e+00 -5.000000e-01
      vertex 1.175000e-01 4.334120e-02 -5.000000e-01
    endloop
  endfacet
  facet normal 5.371100e-01 1.634096e-01 8.275326e-01
    outer loop
      vertex 8.341132e-02 6.717169e-02 -4.911389e-01
      vertex 1.175000e-01 0.000000e+00 -5.000000e-01
      vertex 9.743593e-02 5.107453e-02 -4.970629e-01
    endloop
  endfacet
  facet normal -2.589138e-01 0.000000e+00 9.659004e-01
    outer loop
      vertex 1.275000e-01 4.322811e-02 -5.000000e-01
      vertex 1.275000e-01 0.000000e+00 -5.000000e-01
      vertex 1.625047e-01 0.000000e+00 -4.906168e-01
    endloop
  endfacet
  facet normal -7.071068e-01 1.458387e-04 7.071068e-01
    outer loop
      vertex 1.625322e-01 6.706459e-02 -4.906032e-01
      vertex 1.625047e-01 0.000000e+00 -4.906168e-01
      vertex 1.881168e-01 0.000000e+00 -4.650047e-01
    endloop
  endfacet
  facet normal -1.736085e-01 7.260129e-02 9.821350e-01
    outer loop
      vertex 1.480183e-01 5.069917e-02 -4.969253e-01
      vertex 1.275000e-01 4.322811e-02 -5.000000e-01
      vertex 1.625047e-01 0.000000e+00 -4.906168e-01
    endloop
  endfacet
  facet normal -3.993290e-01 -2.316295e-05 9.168077e-01
    outer loop
      vertex 1.480183e-01 5.069917e-02 -4.969253e-01
      vertex 1.625047e-01 0.000000e+00 -4.906168e-01
      vertex 1.625322e-01 6.706459e-02 -4.906032e-01
    endloop
  endfacet
  facet normal -9.659004e-01 0.000000e+00 2.589138e-01
    outer loop
      vertex 1.881168e-01 1.750000e-01 -4.650047e-01
      vertex 1.881168e-01 0.000000e+00 -4.650047e-01
      vertex 1.975000e-01 0.000000e+00 -4.300000e-01
    endloop
  endfacet
  facet normal -7.071068e-01 0.000000e+00 7.071068e-01
    outer loop
      vertex 1.625047e-01 1.750000e-01 -4.906168e-01
      vertex 1.881168e-01 0.000000e+00 -4.650047e-01
      vertex 1.881168e-01 1.750000e-01 -4.650047e-01
    endloop
  endfacet
  facet normal -7.766256e-01 -2.151867e-02 6.295948e-01
    outer loop
      vertex 1.675000e-01 8.750000e-02 -4.874456e-01
      vertex 1.881168e-01 0.000000e+00 -4.650047e-01
      vertex 1.625047e-01 1.750000e-01 -4.906168e-01
    endloop
  endfacet
  facet normal -6.508364e-01 4.107877e-02 7.581058e-01
    outer loop
      vertex 1.625322e-01 6.706459e-02 -4.906032e-01
      vertex 1.881168e-01 0.000000e+00 -4.650047e-01
      vertex 1.675000e-01 8.750000e-02 -4.874456e-01
    endloop
  endfacet
  facet normal -9.659004e-01 0.000000e+00 2.589138e-01
    outer loop
      vertex 1.881168e-01 1.750000e-01 -4.650047e-01
      vertex 1.975000e-01 0.000000e+00 -4.300000e-01
      vertex 1.975000e-01 1.750000e-01 -4.300000e-01
    endloop
  endfacet
  facet normal 0.000000e+00 1.000000e+00 0.000000e+00
    outer loop
      vertex 2.450000e-01 1.750000e-01 -7.000000e-02
      vertex 1.723523e-01 1.750000e-01 -1.662604e-01
      vertex 1.550000e-01 1.750000e-01 -1.556280e-01
    endloop
  endfacet
  facet normal -5.224585e-01 0.000000e+00 -8.526647e-01
    outer loop
      vertex 1.550000e-01 2.500000e-02 -1.556280e-01
      vertex 1.550000e-01 1.750000e-01 -1.556280e-01
      vertex 1.723523e-01 1.750000e-01 -1.662604e-01
    endloop
  endfacet
  facet normal 0.000000e+00 1.000000e+00 0.000000e+00
    outer loop
      vertex 1.550000e-01 1.750000e-01 0.000000e+00
      vertex 2.450000e-01 1.750000e-01 -7.000000e-02
      vertex 1.550000e-01 1.750000e-01 -1.556280e-01
    endloop
  endfacet
  facet normal -1.000000e+00 0.000000e+00 0.000000e+00
    outer loop
      vertex 1.550000e-01 2.500000e-02 0.000000e+00
      vertex 1.550000e-01 1.750000e-01 0.000000e+00
      vertex 1.550000e-01 1.750000e-01 -1.556280e-01
    endloop
  endfacet
  facet normal -1.000000e+00 0.000000e+00 0.000000e+00
    outer loop
      vertex 1.550000e-01 2.500000e-02 -1.556280e-01
      vertex 1.550000e-01 2.500000e-02 0.000000e+00
      vertex 1.550000e-01 1.750000e-01 -1.556280e-01
    endloop
  endfacet
  facet normal 0.000000e+00 1.000000e+00 0.000000e+00
    outer loop
      vertex 2.450000e-01 1.750000e-01 -7.000000e-02
      vertex 1.859165e-01 1.750000e-01 -1.814317e-01
      vertex 1.723523e-01 1.750000e-01 -1.662604e-01
    endloop
  endfacet
  facet normal 0.000000e+00 1.000000e+00 0.000000e+00
    outer loop
      vertex 2.450000e-01 1.750000e-01 -7.000000e-02
      vertex 1.945394e-01 1.750000e-01 -1.998655e-01
      vertex 1.859165e-01 1.750000e-01 -1.814317e-01
    endloop
  endfacet
  facet normal 0.000000e+00 1.000000e+00 0.000000e+00
    outer loop
      vertex 2.450000e-01 1.750000e-01 -7.000000e-02
      vertex 1.975000e-01 1.750000e-01 -2.200000e-01
      vertex 1.945394e-01 1.750000e-01 -1.998655e-01
    endloop
  endfacet
  facet normal 0.000000e+00 1.000000e+00 0.000000e+00
    outer loop
      vertex 2.450000e-01 1.750000e-01 -1.180000e+00
      vertex 1.975000e-01 1.750000e-01 -4.300000e-01
      vertex 1.975000e-01 1.750000e-01 -2.200000e-01
    endloop
  endfacet
  facet normal 0.000000e+00 1.000000e+00 0.000000e+00
    outer loop
      vertex 2.450000e-01 1.750000e-01 -7.000000e-02
      vertex 2.450000e-01 1.750000e-01 -1.180000e+00
      vertex 1.975000e-01 1.750000e-01 -2.200000e-01
    endloop
  endfacet
  facet normal 0.000000e+00 1.000000e+00 0.000000e+00
    outer loop
      vertex 2.450000e-01 1.750000e-01 -1.180000e+00
      vertex 1.881168e-01 1.750000e-01 -4.650047e-01
      vertex 1.975000e-01 1.750000e-01 -4.300000e-01
    endloop
  endfacet
  facet normal 0.000000e+00 1.000000e+00 0.000000e+00
    outer loop
      vertex 2.450000e-01 1.750000e-01 -1.180000e+00
      vertex 1.625047e-01 1.750000e-01 -4.906168e-01
      vertex 1.881168e-01 1.750000e-01 -4.650047e-01
    endloop
  endfacet
  facet normal 0.000000e+00 1.000000e+00 0.000000e+00
    outer loop
      vertex 2.450000e-01 1.750000e-01 -1.180000e+00
      vertex 1.275000e-01 1.750000e-01 -5.000000e-01
      vertex 1.625047e-01 1.750000e-01 -4.906168e-01
    endloop
  endfacet
  facet normal -2.586378e-01 -4.616079e-02 9.648708e-01
    outer loop
      vertex 1.480158e-01 1.243025e-01 -4.969261e-01
      vertex 1.625047e-01 1.750000e-01 -4.906168e-01
      vertex 1.275000e-01 1.750000e-01 -5.000000e-01
    endloop
  endfacet
  facet normal -5.365672e-01 -4.861821e-05 8.438576e-01
    outer loop
      vertex 1.625331e-01 1.079336e-01 -4.906027e-01
      vertex 1.675000e-01 8.750000e-02 -4.874456e-01
      vertex 1.625047e-01 1.750000e-01 -4.906168e-01
    endloop
  endfacet
  facet normal -3.993168e-01 2.481970e-05 9.168130e-01
    outer loop
      vertex 1.625331e-01 1.079336e-01 -4.906027e-01
      vertex 1.625047e-01 1.750000e-01 -4.906168e-01
      vertex 1.480158e-01 1.243025e-01 -4.969261e-01
    endloop
  endfacet
  facet normal 0.000000e+00 1.000000e+00 0.000000e+00
    outer loop
      vertex 2.450000e-01 1.750000e-01 -1.180000e+00
      vertex 1.175000e-01 1.750000e-01 -5.000000e-01
      vertex 1.275000e-01 1.750000e-01 -5.000000e-01
    endloop
  endfacet
  facet normal 0.000000e+00 0.000000e+00 1.000000e+00
    outer loop
      vertex 1.175000e-01 1.316588e-01 -5.000000e-01
      vertex 1.275000e-01 1.750000e-01 -5.000000e-01
      vertex 1.175000e-01 1.750000e-01 -5.000000e-01
    endloop
  endfacet
  facet normal 0.000000e+00 0.000000e+00 1.000000e+00
    outer loop
      vertex 1.224904e-01 1.319971e-01 -5.000000e-01
      vertex 1.275000e-01 1.317719e-01 -5.000000e-01
      vertex 1.275000e-01 1.750000e-01 -5.000000e-01
    endloop
  endfacet
  facet normal -1.481773e-01 0.000000e+00 9.889608e-01
    outer loop
      vertex 1.480158e-01 1.243025e-01 -4.969261e-01
      vertex 1.275000e-01 1.750000e-01 -5.000000e-01
      vertex 1.275000e-01 1.317719e-01 -5.000000e-01
    endloop
  endfacet
  facet normal 0.000000e+00 0.000000e+00 1.000000e+00
    outer loop
      vertex 1.175000e-01 1.316588e-01 -5.000000e-01
      vertex 1.224904e-01 1.319971e-01 -5.000000e-01
      vertex 1.275000e-01 1.750000e-01 -5.000000e-01
    endloop
  endfacet
  facet normal 0.000000e+00 1.000000e+00 0.000000e+00
    outer loop
      vertex 2.450000e-01 1.750000e-01 -1.180000e+00
      vertex 8.249528e-02 1.750000e-01 -4.906168e-01
      vertex 1.175000e-01 1.750000e-01 -5.000000e-01
    endloop
  endfacet
  facet normal 2.589138e-01 0.000000e+00 9.659004e-01
    outer loop
      vertex 1.175000e-01 1.316588e-01 -5.000000e-01
      vertex 1.175000e-01 1.750000e-01 -5.000000e-01
      vertex 8.249528e-02 1.750000e-01 -4.906168e-01
    endloop
  endfacet
  facet normal 0.000000e+00 1.000000e+00 0.000000e+00
    outer loop
      vertex 2.450000e-01 1.750000e-01 -1.180000e+00
      vertex 5.688317e-02 1.750000e-01 -4.650047e-01
      vertex 8.249528e-02 1.750000e-01 -4.906168e-01
    endloop
  endfacet
  facet normal 7.070543e-01 -1.218242e-02 7.070543e-01
    outer loop
      vertex 7.850000e-02 8.750000e-02 -4.881292e-01
      vertex 8.249528e-02 1.750000e-01 -4.906168e-01
      vertex 5.688317e-02 1.750000e-01 -4.650047e-01
    endloop
  endfacet
  facet normal 1.721859e-01 -7.359898e-02 9.823112e-01
    outer loop
      vertex 9.743337e-02 1.239237e-01 -4.970621e-01
      vertex 1.175000e-01 1.316588e-01 -5.000000e-01
      vertex 8.249528e-02 1.750000e-01 -4.906168e-01
    endloop
  endfacet
  facet normal 5.210747e-01 4.733026e-04 8.535110e-01
    outer loop
      vertex 8.341202e-02 1.078298e-01 -4.911393e-01
      vertex 8.249528e-02 1.750000e-01 -4.906168e-01
      vertex 7.850000e-02 8.750000e-02 -4.881292e-01
    endloop
  endfacet
  facet normal 3.909003e-01 -1.823808e-03 9.204312e-01
    outer loop
      vertex 9.743337e-02 1.239237e-01 -4.970621e-01
      vertex 8.249528e-02 1.750000e-01 -4.906168e-01
      vertex 8.341202e-02 1.078298e-01 -4.911393e-01
    endloop
  endfacet
  facet normal 0.000000e+00 1.000000e+00 0.000000e+00
    outer loop
      vertex 2.450000e-01 1.750000e-01 -1.180000e+00
      vertex 4.750000e-02 1.750000e-01 -4.300000e-01
      vertex 5.688317e-02 1.750000e-01 -4.650047e-01
    endloop
  endfacet
  facet normal 0.000000e+00 1.000000e+00 0.000000e+00
    outer loop
      vertex 0.000000e+00 1.750000e-01 -7.000000e-02
      vertex 4.750000e-02 1.750000e-01 -2.200000e-01
      vertex 4.750000e-02 1.750000e-01 -4.300000e-01
    endloop
  endfacet
  facet normal 0.000000e+00 1.000000e+00 0.000000e+00
    outer loop
      vertex 0.000000e+00 1.750000e-01 -1.180000e+00
      vertex 0.000000e+00 1.750000e-01 -7.000000e-02
      vertex 4.750000e-02 1.750000e-01 -4.300000e-01
    endloop
  endfacet
  facet normal 0.000000e+00 1.000000e+00 0.000000e+00
    outer loop
      vertex 2.450000e-01 1.750000e-01 -1.180000e+00
      vertex 0.000000e+00 1.750000e-01 -1.180000e+00
      vertex 4.750000e-02 1.750000e-01 -4.300000e-01
    endloop
  endfacet
  facet normal 0.000000e+00 1.000000e+00 0.000000e+00
    outer loop
      vertex 0.000000e+00 1.750000e-01 -7.000000e-02
      vertex 5.046065e-02 1.750000e-01 -1.998655e-01
      vertex 4.750000e-02 1.750000e-01 -2.200000e-01
    endloop
  endfacet
  facet normal 0.000000e+00 1.000000e+00 0.000000e+00
    outer loop
      vertex 0.000000e+00 1.750000e-01 -7.000000e-02
      vertex 5.908350e-02 1.750000e-01 -1.814317e-01
      vertex 5.046065e-02 1.750000e-01 -1.998655e-01
    endloop
  endfacet
  facet normal 0.000000e+00 1.000000e+00 0.000000e+00
    outer loop
      vertex 0.000000e+00 1.750000e-01 -7.000000e-02
      vertex 7.264768e-02 1.750000e-01 -1.662604e-01
      vertex 5.908350e-02 1.750000e-01 -1.814317e-01
    endloop
  endfacet
  facet normal 0.000000e+00 1.000000e+00 0.000000e+00
    outer loop
      vertex 0.000000e+00 1.750000e-01 -7.000000e-02
      vertex 9.000000e-02 1.750000e-01 -1.556280e-01
      vertex 7.264768e-02 1.750000e-01 -1.662604e-01
    endloop
  endfacet
  facet normal 0.000000e+00 1.000000e+00 0.000000e+00
    outer loop
      vertex 7.000000e-02 1.750000e-01 0.000000e+00
      vertex 9.000000e-02 1.750000e-01 0.000000e+00
      vertex 9.000000e-02 1.750000e-01 -1.556280e-01
    endloop
  endfacet
  facet normal 1.000000e+00 0.000000e+00 0.000000e+00
    outer loop
      vertex 9.000000e-02 2.500000e-02 -1.556280e-01
      vertex 9.000000e-02 1.750000e-01 -1.556280e-01
      vertex 9.000000e-02 1.750000e-01 0.000000e+00
    endloop
  endfacet
  facet normal 0.000000e+00 1.000000e+00 0.000000e+00
    outer loop
      vertex 3.499528e-02 1.750000e-01 -9.383166e-03
      vertex 7.000000e-02 1.750000e-01 0.000000e+00
      vertex 9.000000e-02 1.750000e-01 -1.556280e-01
    endloop
  endfacet
  facet normal 0.000000e+00 1.000000e+00 0.000000e+00
    outer loop
      vertex 9.383166e-03 1.750000e-01 -3.499528e-02
      vertex 3.499528e-02 1.750000e-01 -9.383166e-03
      vertex 9.000000e-02 1.750000e-01 -1.556280e-01
    endloop
  endfacet
  facet normal 0.000000e+00 1.000000e+00 0.000000e+00
    outer loop
      vertex 0.000000e+00 1.750000e-01 -7.000000e-02
      vertex 9.383166e-03 1.750000e-01 -3.499528e-02
      vertex 9.000000e-02 1.750000e-01 -1.556280e-01
    endloop
  endfacet
  facet normal 1.000000e+00 0.000000e+00 0.000000e+00
    outer loop
      vertex 9.000000e-02 2.500000e-02 -1.556280e-01
      vertex 9.000000e-02 1.750000e-01 0.000000e+00
      vertex 9.000000e-02 2.500000e-02 0.000000e+00
    endloop
  endfacet
  facet normal 0.000000e+00 1.000000e+00 0.000000e+00
    outer loop
      vertex 2.356168e-01 1.750000e-01 -1.215005e+00
      vertex 9.383166e-03 1.750000e-01 -1.215005e+00
      vertex 0.000000e+00 1.750000e-01 -1.180000e+00
    endloop
  endfacet
  facet normal 0.000000e+00 1.000000e+00 0.000000e+00
    outer loop
      vertex 2.450000e-01 1.750000e-01 -1.180000e+00
      vertex 2.356168e-01 1.750000e-01 -1.215005e+00
      vertex 0.000000e+00 1.750000e-01 -1.180000e+00
    endloop
  endfacet
  facet normal 0.000000e+00 1.000000e+00 0.000000e+00
    outer loop
      vertex 2.100047e-01 1.750000e-01 -1.240617e+00
      vertex 3.499528e-02 1.750000e-01 -1.240617e+00
      vertex 9.383166e-03 1.750000e-01 -1.215005e+00
    endloop
  endfacet
  facet normal 0.000000e+00 1.000000e+00 0.000000e+00
    outer loop
      vertex 2.356168e-01 1.750000e-01 -1.215005e+00
      vertex 2.100047e-01 1.750000e-01 -1.240617e+00
      vertex 9.383166e-03 1.750000e-01 -1.215005e+00
    endloop
  endfacet
  facet normal 0.000000e+00 1.000000e+00 0.000000e+00
    outer loop
      vertex 1.750000e-01 1.750000e-01 -1.250000e+00
      vertex 7.000000e-02 1.750000e-01 -1.250000e+00
      vertex 3.499528e-02 1.750000e-01 -1.240617e+00
    endloop
  endfacet
  facet normal 0.000000e+00 1.000000e+00 0.000000e+00
    outer loop
      vertex 2.100047e-01 1.750000e-01 -1.240617e+00
      vertex 1.750000e-01 1.750000e-01 -1.250000e+00
      vertex 3.499528e-02 1.750000e-01 -1.240617e+00
    endloop
  endfacet
  facet normal 0.000000e+00 0.000000e+00 -1.000000e+00
    outer loop
      vertex 1.367604e-01 1.298175e-01 -1.250000e+00
      vertex 7.000000e-02 1.750000e-01 -1.250000e+00
      vertex 1.750000e-01 1.750000e-01 -1.250000e+00
    endloop
  endfacet
  facet normal 0.000000e+00 0.000000e+00 -1.000000e+00
    outer loop
      vertex 8.700435e-02 1.136586e-01 -1.250000e+00
      vertex 7.850000e-02 8.750000e-02 -1.250000e+00
      vertex 7.000000e-02 1.750000e-01 -1.250000e+00
    endloop
  endfacet
  facet normal 0.000000e+00 0.000000e+00 -1.000000e+00
    outer loop
      vertex 1.092396e-01 1.298175e-01 -1.250000e+00
      vertex 8.700435e-02 1.136586e-01 -1.250000e+00
      vertex 7.000000e-02 1.750000e-01 -1.250000e+00
    endloop
  endfacet
  facet normal 0.000000e+00 0.000000e+00 -1.000000e+00
    outer loop
      vertex 1.367604e-01 1.298175e-01 -1.250000e+00
      vertex 1.092396e-01 1.298175e-01 -1.250000e+00
      vertex 7.000000e-02 1.750000e-01 -1.250000e+00
    endloop
  endfacet
  facet normal 0.000000e+00 0.000000e+00 -1.000000e+00
    outer loop
      vertex 1.589956e-01 1.136586e-01 -1.250000e+00
      vertex 1.750000e-01 1.750000e-01 -1.250000e+00
      vertex 1.675000e-01 8.750000e-02 -1.250000e+00
    endloop
  endfacet
  facet normal 0.000000e+00 0.000000e+00 -1.000000e+00
    outer loop
      vertex 1.589956e-01 1.136586e-01 -1.250000e+00
      vertex 1.367604e-01 1.298175e-01 -1.250000e+00
      vertex 1.750000e-01 1.750000e-01 -1.250000e+00
    endloop
  endfacet
  facet normal 0.000000e+00 1.000000e+00 0.000000e+00
    outer loop
      vertex 1.550000e-01 1.750000e-01 0.000000e+00
      vertex 2.356168e-01 1.750000e-01 -3.499528e-02
      vertex 2.450000e-01 1.750000e-01 -7.000000e-02
    endloop
  endfacet
  facet normal 0.000000e+00 1.000000e+00 0.000000e+00
    outer loop
      vertex 1.550000e-01 1.750000e-01 0.000000e+00
      vertex 2.100047e-01 1.750000e-01 -9.383166e-03
      vertex 2.356168e-01 1.750000e-01 -3.499528e-02
    endloop
  endfacet
  facet normal 0.000000e+00 1.000000e+00 0.000000e+00
    outer loop
      vertex 1.550000e-01 1.750000e-01 0.000000e+00
      vertex 1.750000e-01 1.750000e-01 0.000000e+00
      vertex 2.100047e-01 1.750000e-01 -9.383166e-03
    endloop
  endfacet
  facet normal 0.000000e+00 0.000000e+00 1.000000e+00
    outer loop
      vertex 1.550000e-01 2.500000e-02 0.000000e+00
      vertex 1.750000e-01 1.750000e-01 0.000000e+00
      vertex 1.550000e-01 1.750000e-01 0.000000e+00
    endloop
  endfacet
  facet normal 0.000000e+00 1.000000e+00 0.000000e+00
    outer loop
      vertex 1.550000e-01 2.500000e-02 -1.556280e-01
      vertex 9.000000e-02 2.500000e-02 0.000000e+00
      vertex 1.550000e-01 2.500000e-02 0.000000e+00
    endloop
  endfacet
  facet normal 0.000000e+00 1.000000e+00 -2.312965e-17
    outer loop
      vertex 1.275000e-01 2.500000e-02 -1.500000e-01
      vertex 1.175000e-01 2.500000e-02 -1.500000e-01
      vertex 9.000000e-02 2.500000e-02 0.000000e+00
    endloop
  endfacet
  facet normal 2.447641e-16 1.000000e+00 2.174378e-17
    outer loop
      vertex 1.034518e-01 2.500000e-02 -1.514236e-01
      vertex 9.000000e-02 2.500000e-02 0.000000e+00
      vertex 1.175000e-01 2.500000e-02 -1.500000e-01
    endloop
  endfacet
  facet normal -2.557916e-16 1.000000e+00 -8.707754e-17
    outer loop
      vertex 1.415482e-01 2.500000e-02 -1.514236e-01
      vertex 1.275000e-01 2.500000e-02 -1.500000e-01
      vertex 9.000000e-02 2.500000e-02 0.000000e+00
    endloop
  endfacet
  facet normal 0.000000e+00 1.000000e+00 0.000000e+00
    outer loop
      vertex 1.550000e-01 2.500000e-02 -1.556280e-01
      vertex 1.415482e-01 2.500000e-02 -1.514236e-01
      vertex 9.000000e-02 2.500000e-02 0.000000e+00
    endloop
  endfacet
  facet normal 0.000000e+00 1.000000e+00 0.000000e+00
    outer loop
      vertex 1.034518e-01 2.500000e-02 -1.514236e-01
      vertex 9.000000e-02 2.500000e-02 -1.556280e-01
      vertex 9.000000e-02 2.500000e-02 0.000000e+00
    endloop
  endfacet
  facet normal -9.510041e-01 3.091782e-01 0.000000e+00
    outer loop
      vertex 1.675000e-01 8.750000e-02 -4.874456e-01
      vertex 1.675000e-01 8.750000e-02 -1.250000e+00
      vertex 1.589956e-01 6.134139e-02 -1.250000e+00
    endloop
  endfacet
  facet normal -9.510020e-01 -3.091775e-01 2.099116e-03
    outer loop
      vertex 1.625331e-01 1.079336e-01 -4.906027e-01
      vertex 1.589956e-01 1.136586e-01 -1.250000e+00
      vertex 1.675000e-01 8.750000e-02 -1.250000e+00
    endloop
  endfacet
  facet normal -9.717049e-01 -2.361981e-01 0.000000e+00
    outer loop
      vertex 1.625331e-01 1.079336e-01 -4.906027e-01
      vertex 1.675000e-01 8.750000e-02 -1.250000e+00
      vertex 1.675000e-01 8.750000e-02 -4.874456e-01
    endloop
  endfacet
  facet normal -5.878793e-01 8.089436e-01 2.862388e-03
    outer loop
      vertex 1.480183e-01 5.069917e-02 -4.969253e-01
      vertex 1.589956e-01 6.134139e-02 -1.250000e+00
      vertex 1.367604e-01 4.518248e-02 -1.250000e+00
    endloop
  endfacet
  facet normal -9.717942e-01 2.358147e-01 2.748519e-03
    outer loop
      vertex 1.625322e-01 6.706459e-02 -4.906032e-01
      vertex 1.675000e-01 8.750000e-02 -4.874456e-01
      vertex 1.589956e-01 6.134139e-02 -1.250000e+00
    endloop
  endfacet
  facet normal -7.478677e-01 6.638461e-01 -1.520189e-03
    outer loop
      vertex 1.480183e-01 5.069917e-02 -4.969253e-01
      vertex 1.625322e-01 6.706459e-02 -4.906032e-01
      vertex 1.589956e-01 6.134139e-02 -1.250000e+00
    endloop
  endfacet
  facet normal -5.042641e-16 9.999966e-01 2.605809e-03
    outer loop
      vertex 1.275000e-01 4.322811e-02 -5.000000e-01
      vertex 1.367604e-01 4.518248e-02 -1.250000e+00
      vertex 1.092396e-01 4.518248e-02 -1.250000e+00
    endloop
  endfacet
  facet normal -3.419068e-01 9.397322e-01 -1.772817e-03
    outer loop
      vertex 1.480183e-01 5.069917e-02 -4.969253e-01
      vertex 1.367604e-01 4.518248e-02 -1.250000e+00
      vertex 1.275000e-01 4.322811e-02 -5.000000e-01
    endloop
  endfacet
  facet normal 5.878793e-01 8.089435e-01 2.885763e-03
    outer loop
      vertex 9.743593e-02 5.107453e-02 -4.970629e-01
      vertex 1.092396e-01 4.518248e-02 -1.250000e+00
      vertex 8.700435e-02 6.134139e-02 -1.250000e+00
    endloop
  endfacet
  facet normal -4.490733e-02 9.989843e-01 3.696538e-03
    outer loop
      vertex 1.224904e-01 4.300292e-02 -5.000000e-01
      vertex 1.275000e-01 4.322811e-02 -5.000000e-01
      vertex 1.092396e-01 4.518248e-02 -1.250000e+00
    endloop
  endfacet
  facet normal 6.763004e-02 9.977090e-01 1.704549e-03
    outer loop
      vertex 1.224904e-01 4.300292e-02 -5.000000e-01
      vertex 1.092396e-01 4.518248e-02 -1.250000e+00
      vertex 1.175000e-01 4.334120e-02 -5.000000e-01
    endloop
  endfacet
  facet normal 3.594297e-01 9.331707e-01 -1.667735e-03
    outer loop
      vertex 9.743593e-02 5.107453e-02 -4.970629e-01
      vertex 1.175000e-01 4.334120e-02 -5.000000e-01
      vertex 1.092396e-01 4.518248e-02 -1.250000e+00
    endloop
  endfacet
  facet normal 9.510020e-01 3.091775e-01 2.127375e-03
    outer loop
      vertex 8.341132e-02 6.717169e-02 -4.911389e-01
      vertex 8.700435e-02 6.134139e-02 -1.250000e+00
      vertex 7.850000e-02 8.750000e-02 -1.250000e+00
    endloop
  endfacet
  facet normal 7.537063e-01 6.572098e-01 -1.480693e-03
    outer loop
      vertex 8.341132e-02 6.717169e-02 -4.911389e-01
      vertex 9.743593e-02 5.107453e-02 -4.970629e-01
      vertex 8.700435e-02 6.134139e-02 -1.250000e+00
    endloop
  endfacet
  facet normal 9.510041e-01 -3.091782e-01 1.732293e-17
    outer loop
      vertex 7.850000e-02 8.750000e-02 -4.881292e-01
      vertex 7.850000e-02 8.750000e-02 -1.250000e+00
      vertex 8.700435e-02 1.136586e-01 -1.250000e+00
    endloop
  endfacet
  facet normal 9.720333e-01 2.348432e-01 1.770598e-17
    outer loop
      vertex 7.850000e-02 8.750000e-02 -4.881292e-01
      vertex 8.341132e-02 6.717169e-02 -4.911389e-01
      vertex 7.850000e-02 8.750000e-02 -1.250000e+00
    endloop
  endfacet
  facet normal 5.878793e-01 -8.089435e-01 2.885849e-03
    outer loop
      vertex 9.743337e-02 1.239237e-01 -4.970621e-01
      vertex 8.700435e-02 1.136586e-01 -1.250000e+00
      vertex 1.092396e-01 1.298175e-01 -1.250000e+00
    endloop
  endfacet
  facet normal 9.721203e-01 -2.344660e-01 2.800933e-03
    outer loop
      vertex 8.341202e-02 1.078298e-01 -4.911393e-01
      vertex 7.850000e-02 8.750000e-02 -4.881292e-01
      vertex 8.700435e-02 1.136586e-01 -1.250000e+00
    endloop
  endfacet
  facet normal 7.537164e-01 -6.571982e-01 -1.479977e-03
    outer loop
      vertex 9.743337e-02 1.239237e-01 -4.970621e-01
      vertex 8.341202e-02 1.078298e-01 -4.911393e-01
      vertex 8.700435e-02 1.136586e-01 -1.250000e+00
    endloop
  endfacet
  facet normal -1.008528e-15 -9.999970e-01 2.455033e-03
    outer loop
      vertex 1.175000e-01 1.316588e-01 -5.000000e-01
      vertex 1.092396e-01 1.298175e-01 -1.250000e+00
      vertex 1.367604e-01 1.298175e-01 -1.250000e+00
    endloop
  endfacet
  facet normal 3.594617e-01 -9.331583e-01 -1.668118e-03
    outer loop
      vertex 9.743337e-02 1.239237e-01 -4.970621e-01
      vertex 1.092396e-01 1.298175e-01 -1.250000e+00
      vertex 1.175000e-01 1.316588e-01 -5.000000e-01
    endloop
  endfacet
  facet normal -5.878793e-01 -8.089436e-01 2.862235e-03
    outer loop
      vertex 1.480158e-01 1.243025e-01 -4.969261e-01
      vertex 1.367604e-01 1.298175e-01 -1.250000e+00
      vertex 1.589956e-01 1.136586e-01 -1.250000e+00
    endloop
  endfacet
  facet normal -4.490755e-02 -9.989890e-01 2.048701e-03
    outer loop
      vertex 1.224904e-01 1.319971e-01 -5.000000e-01
      vertex 1.367604e-01 1.298175e-01 -1.250000e+00
      vertex 1.275000e-01 1.317719e-01 -5.000000e-01
    endloop
  endfacet
  facet normal -3.418763e-01 -9.397433e-01 -1.772412e-03
    outer loop
      vertex 1.480158e-01 1.243025e-01 -4.969261e-01
      vertex 1.275000e-01 1.317719e-01 -5.000000e-01
      vertex 1.367604e-01 1.298175e-01 -1.250000e+00
    endloop
  endfacet
  facet normal 6.762955e-02 -9.977017e-01 4.186160e-03
    outer loop
      vertex 1.175000e-01 1.316588e-01 -5.000000e-01
      vertex 1.367604e-01 1.298175e-01 -1.250000e+00
      vertex 1.224904e-01 1.319971e-01 -5.000000e-01
    endloop
  endfacet
  facet normal -7.478615e-01 -6.638530e-01 -1.521006e-03
    outer loop
      vertex 1.625331e-01 1.079336e-01 -4.906027e-01
      vertex 1.480158e-01 1.243025e-01 -4.969261e-01
      vertex 1.589956e-01 1.136586e-01 -1.250000e+00
    endloop
  endfacet
endsolid TENSIONER
